<svg width="18" height="15" viewBox="0 0 18 15" fill="none" xmlns="http://www.w3.org/2000/svg">
<path id="Shape" d="M17.857 2.14283V12.857C17.857 14.0405 16.8976 14.9998 15.7141 14.9998H13.5713V13.2141C13.5713 10.65 11.4926 8.57134 8.92848 8.57134C10.3092 8.57134 11.4285 7.45206 11.4285 6.07136C11.4285 4.69067 10.3092 3.57139 8.92848 3.57139C7.54778 3.57139 6.4285 4.69067 6.4285 6.07136C6.4285 7.45206 7.54778 8.57134 8.92848 8.57134C6.36433 8.57134 4.28567 10.65 4.28567 13.2141V14.9998H2.14283C0.95938 14.9998 0 14.0405 0 12.857V2.14283C0 0.95938 0.95938 0 2.14283 0H15.7141C16.8976 0 17.857 0.95938 17.857 2.14283Z" fill="#F29C1F"/>
</svg>
