<svg width="10" height="13" viewBox="0 0 10 13" fill="none" xmlns="http://www.w3.org/2000/svg">
<path id="Vector" d="M9.60961 4.18787C9.55685 4.05023 9.49084 3.91093 9.40823 3.77902C9.26021 3.54255 9.18692 3.26799 9.20709 2.98974C9.26391 2.20726 9.23383 0.675838 8.20604 0.213393C7.3332 -0.179339 6.26231 0.0480636 5.57951 0.275108C5.13616 0.422532 4.65557 0.422532 4.21223 0.275108C3.52942 0.0479443 2.45866 -0.179339 1.58581 0.213393C0.555518 0.677032 0.527824 2.21513 0.585241 2.99571C0.605057 3.26572 0.538687 3.53586 0.392695 3.76482C0.308538 3.89672 0.241332 4.03639 0.187495 4.17462C0.0129739 4.6231 -0.0379973 5.10942 0.0274184 5.58571L0.113843 6.82216C0.216145 8.28542 0.727055 9.69066 1.58844 10.8778L1.84449 11.2307C2.43407 12.0432 3.37722 13 4.38102 13H5.41084C6.41475 13 7.35791 12.0432 7.94748 11.2307L8.20354 10.8778C9.06492 9.69054 9.57583 8.28542 9.67813 6.82216L9.76456 5.58619C9.82926 5.11443 9.7802 4.63289 9.60961 4.18787Z" fill="#FFC7AB"/>
</svg>
