<svg width="18" height="36" viewBox="0 0 18 36" fill="none" xmlns="http://www.w3.org/2000/svg">
<g id="Group">
<path id="Vector" d="M9.40804 12.8088C11.5401 12.8893 13.2441 14.6421 13.2441 16.7938V18.3882H13.8025C15.2736 18.3882 16.5784 19.0994 17.3924 20.1967V15.5561C17.3924 6.96468 10.4277 0 1.83626 0C1.21482 0 0.602302 0.0374944 0 0.108335C5.10273 2.26944 8.81084 7.07669 9.40804 12.8088Z" fill="#554E56"/>
<path id="Vector_2" d="M13.8024 27.3231H12.8383C11.9048 30.6607 9.42774 33.3518 6.22381 34.5789V35.6994C6.22381 35.8006 6.21919 35.9006 6.21248 36H11.2093C14.6241 36 17.3925 33.2317 17.3925 29.8168V25.5146C16.5783 26.6118 15.2735 27.3231 13.8024 27.3231Z" fill="#554E56"/>
</g>
</svg>
