<svg width="9" height="10" viewBox="0 0 9 10" fill="none" xmlns="http://www.w3.org/2000/svg">
<g id="Group">
<path id="Vector" d="M0 3.77081V2.087C0 0.913111 0.77075 0.48622 1.77867 0.48622C2.77472 0.48622 3.55739 0.913063 3.55739 2.087V3.77081C3.55739 4.9447 2.77477 5.37159 1.77867 5.37159C0.770798 5.37159 0 4.9447 0 3.77081ZM2.37158 2.087C2.37158 1.69569 2.14628 1.51784 1.77867 1.51784C1.41111 1.51784 1.19769 1.69574 1.19769 2.087V3.77081C1.19769 4.16213 1.41111 4.33997 1.77867 4.33997C2.14628 4.33997 2.37158 4.16208 2.37158 3.77081V2.087ZM7.23325 0.628485C7.23325 0.699642 7.22138 0.782626 7.1858 0.85383L3.01189 9.40324C2.92886 9.58113 2.70356 9.69964 2.47827 9.69964C2.07513 9.69964 1.8142 9.36766 1.8142 9.07116C1.8142 9 1.83795 8.91702 1.87353 8.84586L6.03556 0.296453C6.13047 0.0948593 6.32019 0 6.53361 0C6.86564 4.80787e-05 7.23325 0.249048 7.23325 0.628485ZM5.4427 7.58899V5.90517C5.4427 4.73128 6.21345 4.30439 7.22138 4.30439C8.21742 4.30439 9.00005 4.73124 9.00005 5.90517V7.58899C9.00005 8.76292 8.21747 9.18977 7.22138 9.18977C6.2135 9.18977 5.4427 8.76292 5.4427 7.58899ZM7.81424 5.90517C7.81424 5.51386 7.58894 5.33602 7.22138 5.33602C6.85381 5.33602 6.64035 5.51391 6.64035 5.90517V7.58899C6.64035 7.9803 6.85381 8.15814 7.22138 8.15814C7.58894 8.15814 7.81424 7.9803 7.81424 7.58899V5.90517Z" fill="url(#paint0_linear_160_3417)"/>
</g>
<defs>
<linearGradient id="paint0_linear_160_3417" x1="0" y1="4.84985" x2="3.55734" y2="4.84985" gradientUnits="userSpaceOnUse">
<stop stop-color="#EAF6FF"/>
<stop offset="1" stop-color="#B3DAFE"/>
</linearGradient>
</defs>
</svg>
