<svg width="229" height="60" viewBox="0 0 229 60" fill="none" xmlns="http://www.w3.org/2000/svg">
<g id="Group">
<path id="Vector" d="M76.1587 45.6263C77.5192 45.6263 78.8507 46.0029 79.8928 46.8141C80.0086 46.901 80.0665 47.0458 80.1244 47.1906L80.2691 47.1617C80.2402 47.0168 80.2112 46.8141 80.2112 46.6113L80.1823 45.2787H80.356L80.5296 50.6379H80.1533L80.0954 48.9288C79.9797 47.2776 78.0113 45.974 76.0139 45.974C72.685 45.974 70.8903 48.1176 70.8903 52.1154C70.8903 56.5476 72.7719 58.923 76.2455 58.923C78.1849 58.923 80.0665 57.9671 80.7612 56.4027L81.1086 56.5186C80.327 58.3726 78.3297 59.2707 76.2166 59.2707C71.9324 59.2707 69.0956 56.5186 69.0956 52.434C69.0667 48.3204 71.9035 45.6263 76.1587 45.6263Z" fill="#006F44"/>
<path id="Vector_2" d="M82.1502 58.9229H82.4686C82.9897 58.9229 83.2792 58.4014 83.5976 57.7641L89.3001 45.771H90.8632V46.0028C90.8632 46.3794 90.9501 46.8429 91.0369 47.0746L95.8421 57.7641C96.2474 58.6622 96.3052 58.9229 97.0289 58.9229H97.2026V59.0967H93.3237V58.9229H94.8869V58.8939C94.5974 58.807 94.3948 58.3435 94.25 58.0248L93.1211 55.4756H85.0739L83.9739 57.7641C83.916 57.909 83.8581 58.0538 83.8581 58.1987C83.8581 58.6332 84.2344 58.9229 84.8423 58.9229H85.8265V59.0967H82.1213V58.9229H82.1502ZM92.9764 55.1569L89.5317 47.4512C89.3869 47.1615 89.358 46.9008 89.358 46.698H89.1843C89.1843 46.8139 89.1264 47.0457 88.9527 47.4512L85.2475 55.1569H92.9764Z" fill="#006F44"/>
<path id="Vector_3" d="M102.472 58.9229H103.196C104.18 58.9229 104.267 58.836 104.267 57.9669V57.3296C100.186 57.0978 97.5224 55.2149 97.5224 52.4339C97.5224 49.6818 100.186 47.7988 104.267 47.5671V46.9298C104.267 46.0317 104.151 45.9738 103.196 45.9738H102.472V45.771H107.654V45.9738H106.93C105.946 45.9738 105.83 46.0607 105.83 46.9298V47.5381C109.912 47.7409 112.575 49.6528 112.575 52.4049C112.575 55.1859 109.912 57.0689 105.83 57.3006V57.9379C105.83 58.836 105.946 58.8939 106.93 58.8939H107.654V59.0677H102.472V58.9229ZM104.238 47.8857C101.228 48.1175 99.2882 49.7398 99.2882 52.0862C99.2882 54.7803 101.228 56.6343 104.238 56.953V47.8857ZM105.83 56.982C108.841 56.7502 110.78 55.128 110.78 52.7815C110.78 50.0874 108.841 48.2044 105.83 47.9147V56.982Z" fill="#006F44"/>
<path id="Vector_4" d="M113.847 58.9229H114.165C115.207 58.9229 115.352 58.6332 115.439 57.6193L115.989 46.9298C115.989 46.7849 116.018 46.6401 116.018 46.5532C116.018 46.1476 115.873 45.9738 115.005 45.9738H114.194V45.771H117.176L122.444 56.3736C122.618 56.7502 122.763 57.0689 122.763 57.1558H122.878C122.878 57.0399 123.023 56.6343 123.168 56.3736L128.436 45.771H131.418V45.9448H130.723C129.739 45.9448 129.594 46.2056 129.594 46.756C129.594 46.9008 129.594 47.0746 129.623 47.2484L130.086 57.5903C130.115 58.6332 130.26 58.8939 131.389 58.8939H131.823V59.0677H126.526V58.8939H127.249C128.378 58.8939 128.494 58.6332 128.494 58.1697C128.494 58.0828 128.494 57.9669 128.494 57.851L128.089 48.0885C128.06 47.7409 128.06 47.4802 128.06 47.2774H127.944C127.944 47.3353 127.799 47.654 127.626 48.0306L122.155 59.1546L122.097 59.2705H122.068L122.01 59.1546L116.626 48.2623C116.452 47.8857 116.394 47.5381 116.394 47.4802H116.307C116.307 47.654 116.307 47.7699 116.279 48.1175L115.757 57.8221C115.757 57.9669 115.729 58.1118 115.729 58.2276C115.729 58.6622 115.902 58.8939 117.002 58.8939H117.726V59.0677H113.818V58.9229H113.847Z" fill="#006F44"/>
<path id="Vector_5" d="M133.099 58.9229H133.417C133.938 58.9229 134.228 58.4014 134.546 57.7641L140.249 45.771H141.812V46.0028C141.812 46.3794 141.899 46.8429 141.986 47.0746L146.791 57.7641C147.196 58.6622 147.254 58.9229 147.978 58.9229H148.151V59.0967H144.272V58.9229H145.836V58.8939C145.546 58.807 145.343 58.3435 145.199 58.0248L144.07 55.4756H136.052L134.952 57.7641C134.894 57.909 134.836 58.0538 134.836 58.1987C134.836 58.6332 135.212 58.9229 135.82 58.9229H136.804V59.0967H133.099V58.9229ZM143.954 55.1569L140.509 47.4512C140.365 47.1615 140.336 46.9008 140.336 46.698H140.162C140.162 46.8139 140.104 47.0457 139.93 47.4512L136.225 55.1569H143.954Z" fill="#006F44"/>
<path id="Vector_6" d="M149.655 58.9229H150.379C151.363 58.9229 151.45 58.836 151.45 57.9379V46.9298C151.45 46.0317 151.334 45.9448 150.379 45.9448H149.655V45.771H154.779C157.847 45.771 159.874 47.3933 159.874 49.8556C159.874 52.289 157.818 53.9113 154.779 53.9113H153.042V57.9379C153.042 58.836 153.158 58.9229 154.142 58.9229H154.663V59.0967H149.655V58.9229ZM152.695 46.2345C152.926 46.5242 153.042 46.9587 153.042 47.3933V53.5926H154.171C156.747 53.5926 158.108 52.289 158.108 49.8846C158.108 47.4802 156.718 46.1766 154.171 46.1766H152.695V46.2345Z" fill="#006F44"/>
<path id="Vector_7" d="M61.2516 52.5205L61.3095 52.028H66.4042L66.2884 52.5205H61.2516Z" fill="#006F44"/>
<path id="Vector_8" d="M162.566 52.5205L162.623 52.028H167.718L167.602 52.5205H162.566Z" fill="#006F44"/>
<path id="Vector_9" d="M19.9733 12.9491C18.7865 10.0522 16.6734 8.60375 13.605 8.60375C7.64198 8.60375 4.08151 12.6884 4.08151 19.6119C4.08151 26.8831 8.22092 31.2283 14.2998 31.2283C17.2813 31.2283 19.8865 30.0696 21.7102 27.9549C20.726 31.7208 17.1944 34.299 12.3603 34.299C5.23939 34.299 0 28.8818 0 20.8286C0 12.1669 5.18149 6.77871 14.0682 6.77871C16.1813 6.77871 18.1207 7.27118 20.2339 7.27118L19.9733 12.9491Z" fill="#006F44"/>
<path id="Vector_10" d="M45.2145 7.27103C45.2145 7.27103 43.304 9.9941 41.3646 14.2525C40.1778 16.8597 37.5146 22.8273 35.3726 27.5492C33.1437 32.503 30.8279 34.9074 28.0201 34.2412C27.3543 34.0673 26.8332 33.6618 26.5438 33.3431C25.8491 32.561 25.6754 31.576 25.5885 30.3593V29.5482C25.5885 29.5482 26.0517 30.2145 27.1227 30.8808C27.5859 31.1705 28.3095 31.3732 28.7437 31.4312C30.0753 31.605 31.349 31.0256 32.3911 29.5772C32.7095 29.0847 33.3752 28.0417 33.5779 27.4334C33.5779 27.4334 32.9989 26.3036 32.3332 24.9131C29.7279 19.6697 26.9201 13.789 24.5175 9.73339C24.5175 9.73339 24.1122 9.03813 23.6201 8.40082C23.3307 8.02422 22.9544 7.61866 22.5781 7.32897H27.0069C27.9043 7.32897 28.3385 8.31391 28.628 8.95123C30.5674 13.2966 32.42 16.9466 34.4463 21.234C34.5621 21.5237 35.4305 23.3487 35.4305 23.3487C35.4305 23.3487 35.8936 22.2769 36.4147 21.1181C37.1962 19.351 38.7304 15.643 39.483 13.9628C40.2357 12.3116 40.8146 10.3707 40.8146 9.21195C40.8146 8.6036 40.6409 7.79247 40.2067 7.35794H45.2145V7.27103Z" fill="#006F44"/>
<path id="Vector_11" d="M81.5144 38.9341C81.5144 38.9341 81.1091 38.9341 80.9644 38.9051C80.7039 38.8762 80.6749 37.9202 80.1828 36.7904C79.6907 35.6606 79.0539 34.7626 77.896 34.2701C76.9118 33.9804 75.9566 33.8066 70.3988 33.8066H53.4359H47.8492C48.2255 33.4011 48.457 32.4741 48.6307 31.0256C48.8044 29.5772 48.8912 26.4194 48.8912 21.6686V19.9884C48.8912 14.8029 48.8044 11.4715 48.6307 10.052C48.457 8.6036 48.2255 7.70556 47.8492 7.27103H53.4359C53.0596 7.6766 52.828 8.51669 52.6543 9.67545C52.4807 10.8342 52.4517 13.4414 52.4517 17.497V18.8586V20.3939V23.5515C52.4807 28.0996 52.4517 30.5331 52.7412 32.2423H61.3963C61.4831 31.9816 61.5121 31.5471 61.57 31.2574C61.6858 29.9248 61.7726 27.781 61.7726 23.5515V20.3939V18.8586V17.497C61.7726 13.6152 61.6858 11.0949 61.57 9.84926C61.3963 8.6036 61.1068 7.73453 60.7016 7.27103H66.4041C65.9989 7.6766 65.7383 8.54566 65.5647 9.96514C65.4489 11.3846 65.362 14.3394 65.362 18.9165V20.5388V22.161C65.362 26.7671 65.4489 29.9827 65.5647 31.4022C65.5936 31.7209 65.6515 32.0106 65.6804 32.2713H74.2777C74.3066 32.0975 74.3645 31.8078 74.3935 31.4312C74.5671 30.0986 74.654 27.2885 74.654 23.5805V20.3939V18.8586V17.497C74.654 13.6152 74.5671 11.0949 74.3935 9.84926C74.2198 8.6036 73.9882 7.73453 73.554 7.27103H79.2276C78.8513 7.6766 78.5618 8.54566 78.446 9.96514C78.2723 11.3846 78.1855 14.3394 78.1855 18.9165V20.5388V22.161C78.1855 26.7671 78.2723 29.722 78.446 31.1415C78.475 31.547 78.5329 31.9236 78.6197 32.2713H78.996C80.1539 32.2713 80.8486 32.2423 81.4854 32.1844V38.9341H81.5144Z" fill="#006F44"/>
<path id="Vector_12" d="M87.5075 21.6977V19.9885C87.5075 12.4856 87.5075 8.40097 86.4654 7.27118H89.0416C93.8758 7.27118 97.3494 7.15531 99.4915 7.15531C99.6652 7.15531 100.331 7.15531 100.939 7.18428L101.257 11.0661C100.476 8.95138 98.0731 8.77756 93.731 8.77756H91.4153C91.1258 10.0522 91.039 12.9491 91.039 17.4682V18.8298C91.9942 18.9456 93.0653 18.9167 94.2521 18.9167C96.8863 18.9167 99.202 18.8298 101.315 18.4532C99.3178 20.6548 96.3942 20.8576 92.0811 20.8576C91.7916 20.8576 91.4732 20.8286 91.01 20.8286V23.5227C91.01 28.0419 91.0969 30.9677 91.3863 32.2423H93.7889C98.4494 32.2423 101.344 31.6919 103.139 29.3744L102.444 33.5169C101.315 33.7197 99.9546 33.8356 98.3047 33.8356C96.1047 33.8356 93.2968 33.7487 89.8232 33.7487H86.4364C87.4785 32.7927 87.5075 28.8529 87.5075 21.6977Z" fill="#006F44"/>
<path id="Vector_13" d="M107.769 33.8065C108.753 32.7636 108.811 28.8528 108.811 21.6684V19.9882C108.811 12.4853 108.811 8.4007 107.769 7.27092H111.243C113.877 7.27092 116.366 6.98123 118.74 6.98123C122.879 6.98123 125.108 8.83524 125.108 11.9928C125.108 15.0056 122.966 17.2941 118.711 18.7426C123.719 19.3509 126.44 21.9292 126.44 25.8979C126.44 30.533 122.763 34.0383 116.395 34.0383C114.282 34.0383 112.372 33.7775 110.606 33.7775H107.769V33.8065ZM112.372 18.5108H113.5C118.682 18.5108 121.142 16.3671 121.142 12.8909C121.142 10.1099 119.145 8.74833 115.15 8.74833C114.398 8.74833 113.616 8.7773 112.748 8.86421C112.458 10.1388 112.372 12.8329 112.372 17.1493V17.5259V18.5108ZM112.372 25.1157C112.372 28.7949 112.574 30.9965 112.69 31.46C112.893 32.1553 114.022 32.5319 115.99 32.5319C119.927 32.5319 122.156 30.2144 122.156 26.2455C122.156 22.3927 119.724 20.0462 114.948 20.0462H112.343V25.1157H112.372Z" fill="#006F44"/>
<path id="Vector_14" d="M149.975 12.9491C148.788 10.0522 146.675 8.60375 143.607 8.60375C137.644 8.60375 134.083 12.6884 134.083 19.6119C134.083 26.8831 138.223 31.2283 144.302 31.2283C147.283 31.2283 149.888 30.0696 151.712 27.9549C150.728 31.7208 147.196 34.299 142.362 34.299C135.241 34.299 130.002 28.8818 130.002 20.7996C130.002 12.138 135.183 6.77871 144.07 6.77871C146.183 6.77871 148.123 7.27118 150.236 7.27118L149.975 12.9491Z" fill="#006F44"/>
<path id="Vector_15" d="M161.466 18.5109C162.074 18.0185 162.884 17.2363 163.781 16.1645C166.068 13.5573 167.545 11.6453 168.239 10.5735C168.992 9.4437 169.281 8.63257 169.281 8.05319C169.281 7.7635 169.252 7.56072 169.108 7.3H174.579C173.739 7.87938 172.35 9.21195 170.352 11.3556C168.355 13.4993 166.039 16.1645 163.434 19.351L170.931 28.795C171.047 28.9978 171.25 29.2585 171.539 29.6351C173.189 31.7498 174.521 33.1403 175.505 33.8646H171.423C171.018 33.8646 170.671 33.8356 170.439 33.6907C170.179 33.5749 169.947 33.3721 169.744 33.0824L160.568 20.7416H159.729V23.6095C159.729 27.6651 159.758 30.2724 159.931 31.4601C160.105 32.6189 160.337 33.459 160.771 33.8646H155.155C155.532 33.459 155.763 32.532 155.937 31.0835C156.11 29.6351 156.197 26.4774 156.197 21.7265V19.9884C156.197 14.8029 156.11 11.4715 155.937 10.052C155.763 8.6036 155.532 7.70556 155.155 7.27103H160.771C160.366 7.7635 160.105 8.54566 159.931 9.70442C159.758 10.8632 159.729 13.4414 159.729 17.497V19.2641C160.25 19.2352 160.829 18.9455 161.466 18.5109Z" fill="#006F44"/>
<path id="Vector_16" d="M199.791 31.1124C199.965 32.5609 200.254 33.4589 200.63 33.8065H194.928C195.333 33.343 195.622 32.474 195.796 31.1124C195.912 29.7799 195.999 27.3175 195.999 23.5516V20.394V18.8296V17.4681V14.1077L196.028 9.87827L194.754 12.4565C193.799 14.2236 192.409 16.9756 190.296 20.8285C187.981 24.971 186.417 27.9838 185.288 29.9827L183.638 32.8795C183.436 33.2561 183.233 33.4879 183.06 33.6617C182.857 33.7776 182.567 33.8355 182.162 33.8355H181.467H178.573C178.949 33.4589 179.181 32.5029 179.354 31.0545C179.528 29.6061 179.615 26.5064 179.615 21.6976V19.9884C179.615 14.774 179.528 11.4716 179.354 10.0521C179.181 8.60364 178.949 7.64767 178.573 7.27107H184.16C183.783 7.73457 183.552 8.51673 183.378 9.67549C183.204 10.8632 183.175 13.4125 183.175 17.4971V23.5516V27.0568V30.4172C183.262 30.2434 183.349 30.0985 183.465 29.9247L184.015 28.8818C184.333 28.2156 185.491 26.1588 189.341 19.0614C191.28 15.5562 192.699 12.8041 193.654 10.9791C194.204 9.90724 194.696 8.98023 195.101 8.19807C195.304 7.82148 195.478 7.58973 195.68 7.44488C195.883 7.32901 196.23 7.2421 196.665 7.2421H198.228H200.659C200.283 7.6187 199.993 8.51673 199.82 9.9362C199.646 11.3846 199.617 14.2815 199.617 18.8876V20.5098V22.1321C199.588 26.7671 199.646 29.664 199.791 31.1124Z" fill="#006F44"/>
<path id="Vector_17" d="M228.132 31.1125C228.305 32.561 228.595 33.459 228.971 33.8067H223.269C223.674 33.3432 223.963 32.4741 224.137 31.1125C224.253 29.78 224.34 27.3176 224.34 23.5517V20.3941V18.8298V17.4682V14.1078L224.368 9.87838L223.095 12.4566C222.14 14.2237 220.75 16.9757 218.637 20.8286C216.321 24.9712 214.758 27.9839 213.629 29.9828L211.979 32.8796C211.777 33.2562 211.574 33.488 211.4 33.6618C211.198 33.7777 210.908 33.8356 210.503 33.8356H209.808H206.914C207.29 33.459 207.521 32.5031 207.695 31.0546C207.869 29.6062 207.956 26.5065 207.956 21.6977V19.9885C207.956 14.7741 207.869 11.4717 207.695 10.0522C207.521 8.60375 207.29 7.64778 206.914 7.27118H212.5C212.124 7.73468 211.892 8.51684 211.719 9.6756C211.545 10.8633 211.516 13.4126 211.516 17.4972V23.5517V27.0569V30.4173C211.603 30.2435 211.69 30.0986 211.806 29.9248L212.356 28.8819C212.674 28.2157 213.832 26.1589 217.682 19.0615C219.621 15.5563 221.04 12.8042 221.995 10.9792C222.545 9.90735 223.037 8.98034 223.442 8.19819C223.645 7.82159 223.819 7.58984 224.021 7.445C224.224 7.32912 224.571 7.24221 225.005 7.24221H226.568H229C228.624 7.61881 228.334 8.51684 228.161 9.93632C227.987 11.3848 227.958 14.2816 227.958 18.8877V20.5099V22.1322C227.929 26.7672 227.958 29.6641 228.132 31.1125ZM216.784 4.95367C217.971 5.12749 219.071 5.04058 219.998 4.66399C220.953 4.28739 221.647 3.76595 222.313 3.09967C224.079 1.33257 223.79 0.115875 223.79 0C223.211 0.782159 222.516 1.44844 221.734 1.99885C220.953 2.49132 219.969 2.83895 218.84 2.83895C217.219 2.83895 216.234 1.99885 215.627 1.21669L215.25 0.637315L215.134 0.376595C214.092 0.984941 213.6 1.21669 212.5 1.65122L212.616 1.91194L212.877 2.37545C213.687 3.56317 215.019 4.66399 216.784 4.95367Z" fill="#006F44"/>
</g>
</svg>
