<svg width="60" height="60" viewBox="0 0 60 60" fill="none" xmlns="http://www.w3.org/2000/svg">
<path id="Vector" d="M30 0C27.7796 0 25.6147 0.241523 23.532 0.699141C10.072 3.65719 0 15.6513 0 30C0 46.569 13.431 60 30 60C35.1036 60 39.909 58.7262 44.1168 56.4769C53.5683 51.4288 60 41.4654 60 30C60 13.431 46.569 0 30 0ZM12.3178 43.8246C11.5125 44.6299 10.1651 44.5056 9.53473 43.5566C6.95695 39.6724 5.45496 35.0119 5.45496 30C5.45496 18.3366 13.6507 8.53629 24.5812 6.05988C26.3248 5.66391 28.1394 5.45496 30 5.45496C35.0119 5.45496 39.6724 6.95695 43.5566 9.53473C44.5056 10.165 44.6299 11.5124 43.8246 12.3178L40.9233 15.2191L27.8859 22.9429L24.5716 24.9061L15.2193 40.9233L12.3178 43.8246ZM41.2106 51.8272L37.4786 55.0799L30.1412 55.3274L28.8312 54.545C28.8312 54.545 28.836 54.5353 28.8457 54.5173C24.2733 54.3071 20.0282 52.8438 16.4434 50.4653C15.4944 49.835 15.3701 48.4876 16.1754 47.6822L19.0719 44.7857L21.8791 38.3105L31.6529 32.2046L47.6822 16.1754C48.4875 15.3701 49.8349 15.4944 50.4653 16.4434C53.043 20.3276 54.545 24.9881 54.545 30C54.545 39.4889 49.119 47.745 41.2106 51.8272Z" fill="#FF7F5A"/>
</svg>
