<svg width="40" height="39" viewBox="0 0 40 39" fill="none" xmlns="http://www.w3.org/2000/svg">
<path id="Vector" d="M39.9996 16.9186C40.0359 14.4657 37.1092 14.7297 36.9318 14.6637C37.0548 14.4799 39.5725 13.0146 38.0878 11.0354C33.9365 5.49911 25.8295 12.1408 25.8295 12.1408C25.8295 12.1408 29.6403 2.37823 23.093 0.141445C20.7708 -0.652043 20.1171 2.21254 19.9993 2.3614C19.8634 2.18795 19.2486 -0.658515 16.9069 0.141445C10.3584 2.37823 14.1705 12.1408 14.1705 12.1408C14.1705 12.1408 6.06347 5.49911 1.91222 11.0354C0.440445 12.9991 2.9633 14.5058 3.06815 14.6637C2.86104 14.7401 -0.0359069 14.4449 0.000337228 16.9186C0.105186 23.8374 10.5681 23.229 10.5681 23.229C10.5681 23.229 1.74523 28.8869 5.72821 34.5462C7.14044 36.5526 9.35392 34.6187 9.53514 34.5669C9.5442 34.7883 8.36885 37.4522 10.7325 38.1823C17.3445 40.221 19.9993 30.0817 19.9993 30.0817C19.9993 30.0817 22.6555 40.221 29.2675 38.1823C31.6117 37.4587 30.4571 34.7572 30.4648 34.5669C30.6771 34.6278 32.8479 36.5694 34.2718 34.5462C38.2548 28.8869 29.4319 23.229 29.4319 23.229C29.4319 23.229 39.8961 23.8374 39.9996 16.9186Z" fill="#FFA4B8"/>
</svg>
