<svg width="20" height="20" viewBox="0 0 20 20" fill="none" xmlns="http://www.w3.org/2000/svg">
<path id="Vector" d="M19.7352 18.4576L14.9176 13.64V4.74448C14.9176 4.24549 14.513 3.84095 14.0141 3.84095C13.5151 3.84095 13.1105 4.24549 13.1105 4.74448V11.8329L8.36919 7.0916V0.903527C8.36919 0.404539 7.96465 0 7.46566 0C6.96667 0 6.56213 0.404539 6.56213 0.903527V5.28455L2.12618 0.848593C1.77332 0.495736 1.20121 0.495736 0.848472 0.848593C0.495614 1.20145 0.495614 1.77356 0.848472 2.1263L5.28443 6.56225H0.903527C0.404539 6.56225 0 6.96679 0 7.46578C0 7.96477 0.404539 8.36931 0.903527 8.36931H7.09148L11.8328 13.1107H4.74436C4.24537 13.1107 3.84083 13.5152 3.84083 14.0142C3.84083 14.5132 4.24537 14.9177 4.74436 14.9177H13.6399L18.4575 19.7353C18.6339 19.9117 18.8652 20 19.0963 20C19.3275 20 19.5588 19.9118 19.7352 19.7353C20.088 19.3826 20.088 18.8105 19.7352 18.4576Z" fill="#BB5D4C"/>
</svg>
