<svg width="40" height="40" viewBox="0 0 40 40" fill="none" xmlns="http://www.w3.org/2000/svg">
<g id="fi_1946788" clip-path="url(#clip0_160_3111)">
<path id="Vector" d="M10.0096 39.6213H1.06078C0.474902 39.6213 0 39.1463 0 38.5605V17.8415C0 17.2557 0.474902 16.7808 1.06078 16.7808H10.0096L10.0096 39.6213Z" fill="url(#paint0_linear_160_3111)"/>
<path id="Vector_2" d="M29.9902 39.6213H38.9391C39.525 39.6213 39.9999 39.1464 39.9999 38.5605V17.8415C39.9999 17.2557 39.525 16.7808 38.9391 16.7808H29.9902V39.6213Z" fill="url(#paint1_linear_160_3111)"/>
<path id="Vector_3" d="M40.0001 25.1191V38.5607C40.0001 39.1471 39.5253 39.6218 38.939 39.6218H29.9902V16.7812H31.663L40.0001 25.1191Z" fill="url(#paint2_linear_160_3111)"/>
<path id="Vector_4" d="M8.33374 8.58887H31.6661V39.6213H8.33374V8.58887Z" fill="url(#paint3_linear_160_3111)"/>
<path id="Vector_5" d="M29.6417 39.6215H10.3581C9.81155 39.6215 9.36841 39.1784 9.36841 38.6318V10.7646C9.36841 10.218 9.81155 9.7749 10.3581 9.7749H29.6417C30.1883 9.7749 30.6314 10.218 30.6314 10.7646V38.6318C30.6313 39.1784 30.1883 39.6215 29.6417 39.6215Z" fill="url(#paint4_linear_160_3111)"/>
<path id="Vector_6" d="M28.3811 11.3926C29.0068 11.3926 29.5157 11.9016 29.5157 12.5272V16.2206C29.5157 16.8461 29.0067 17.3552 28.3811 17.3552H24.6878C24.0622 17.3552 23.5532 16.8461 23.5532 16.2206V12.5272C23.5532 11.9016 24.0622 11.3926 24.6878 11.3926H28.3811Z" fill="url(#paint5_linear_160_3111)"/>
<path id="Vector_7" d="M28.3811 17.8804C29.0068 17.8804 29.5157 18.3894 29.5157 19.015V22.7084C29.5157 23.3339 29.0067 23.843 28.3811 23.843H24.6878C24.0622 23.843 23.5532 23.3339 23.5532 22.7084V19.015C23.5532 18.3894 24.0622 17.8804 24.6878 17.8804H28.3811Z" fill="url(#paint6_linear_160_3111)"/>
<path id="Vector_8" d="M28.3811 24.3677C29.0068 24.3677 29.5157 24.8767 29.5157 25.5023V29.1956C29.5157 29.8212 29.0067 30.3302 28.3811 30.3302H24.6878C24.0622 30.3302 23.5532 29.8212 23.5532 29.1956V25.5023C23.5532 24.8767 24.0622 24.3677 24.6878 24.3677H28.3811Z" fill="url(#paint7_linear_160_3111)"/>
<path id="Vector_9" d="M15.3118 11.3926C15.9375 11.3926 16.4464 11.9016 16.4464 12.5272V16.2206C16.4464 16.8461 15.9374 17.3552 15.3118 17.3552H11.6185C10.9928 17.3552 10.4839 16.8461 10.4839 16.2206V12.5272C10.4839 11.9016 10.9929 11.3926 11.6185 11.3926H15.3118Z" fill="url(#paint8_linear_160_3111)"/>
<path id="Vector_10" d="M15.3118 17.8804C15.9375 17.8804 16.4464 18.3894 16.4464 19.015V22.7084C16.4464 23.3339 15.9374 23.843 15.3118 23.843H11.6185C10.9928 23.843 10.4839 23.3339 10.4839 22.7084V19.015C10.4839 18.3894 10.9929 17.8804 11.6185 17.8804H15.3118Z" fill="url(#paint9_linear_160_3111)"/>
<path id="Vector_11" d="M15.3118 24.3677C15.9375 24.3677 16.4464 24.8767 16.4464 25.5023V29.1956C16.4464 29.8212 15.9374 30.3302 15.3118 30.3302H11.6185C10.9928 30.3302 10.4839 29.8212 10.4839 29.1956V25.5023C10.4839 24.8767 10.9929 24.3677 11.6185 24.3677H15.3118Z" fill="url(#paint10_linear_160_3111)"/>
<path id="Vector_12" d="M21.8465 11.3926C22.4721 11.3926 22.9811 11.9016 22.9811 12.5272V16.2206C22.9811 16.8461 22.472 17.3552 21.8465 17.3552H18.1531C17.5275 17.3552 17.0186 16.8461 17.0186 16.2206V12.5272C17.0186 11.9016 17.5276 11.3926 18.1531 11.3926H21.8465Z" fill="url(#paint11_linear_160_3111)"/>
<path id="Vector_13" d="M21.8465 17.8804C22.4721 17.8804 22.9811 18.3894 22.9811 19.015V22.7084C22.9811 23.3339 22.472 23.843 21.8465 23.843H18.1531C17.5275 23.843 17.0186 23.3339 17.0186 22.7084V19.015C17.0186 18.3894 17.5276 17.8804 18.1531 17.8804H21.8465Z" fill="url(#paint12_linear_160_3111)"/>
<path id="Vector_14" d="M21.8465 24.3677C22.4721 24.3677 22.9811 24.8767 22.9811 25.5023V29.1956C22.9811 29.8212 22.472 30.3302 21.8465 30.3302H18.1531C17.5275 30.3302 17.0186 29.8212 17.0186 29.1956V25.5023C17.0186 24.8767 17.5276 24.3677 18.1531 24.3677H21.8465Z" fill="url(#paint13_linear_160_3111)"/>
<path id="Vector_15" d="M31.6661 8.58887H8.33374V8.94573L31.6661 32.2781V8.58887Z" fill="url(#paint14_linear_160_3111)"/>
<path id="Vector_16" d="M20 39.6213H30.5462C31.1647 39.6213 31.6662 39.1806 31.6662 38.637V8.58887H20V39.6213Z" fill="url(#paint15_linear_160_3111)"/>
<path id="Vector_17" d="M25.0269 32.0045C24.9687 31.8829 24.8455 31.7983 24.7017 31.7983H15.298C15.0982 31.7983 14.9363 31.9603 14.9363 32.1601V32.6425C14.9363 32.7863 15.0208 32.9095 15.1424 32.9678L21.796 39.6214H29.6415H29.6416H30.616C31.1728 39.6214 31.6269 39.1879 31.6626 38.6402L25.0269 32.0045Z" fill="url(#paint16_linear_160_3111)"/>
<path id="Vector_18" d="M15.6375 32.854H24.3627V39.6215H15.6375V32.854Z" fill="url(#paint17_linear_160_3111)"/>
<path id="Vector_19" d="M21.7964 39.6215H24.3627V32.854H15.6375V33.4626L21.7964 39.6215Z" fill="url(#paint18_linear_160_3111)"/>
<path id="Vector_20" d="M23.9634 39.6216H16.0366V33.8216C16.0366 33.5734 16.2379 33.3721 16.4861 33.3721H23.5139C23.7621 33.3721 23.9634 33.5733 23.9634 33.8216L23.9634 39.6216Z" fill="url(#paint19_linear_160_3111)"/>
<path id="Vector_21" d="M20 32.854H24.3626V39.6215H20V32.854Z" fill="url(#paint20_linear_160_3111)"/>
<path id="Vector_22" d="M24.7017 33.0041H15.298C15.0982 33.0041 14.9363 32.8422 14.9363 32.6424V32.1601C14.9363 31.9603 15.0982 31.7983 15.298 31.7983H24.7017C24.9015 31.7983 25.0634 31.9603 25.0634 32.1601V32.6424C25.0633 32.8423 24.9015 33.0041 24.7017 33.0041Z" fill="url(#paint21_linear_160_3111)"/>
<path id="Vector_23" d="M11.6185 29.7564C11.3094 29.7564 11.0579 29.5049 11.0579 29.1958V25.5024C11.0579 25.1933 11.3093 24.9419 11.6185 24.9419H15.3118C15.6209 24.9419 15.8724 25.1933 15.8724 25.5024V29.1958C15.8724 29.5049 15.621 29.7564 15.3118 29.7564H11.6185Z" fill="url(#paint22_linear_160_3111)"/>
<path id="Vector_24" d="M11.6185 23.2686C11.3094 23.2686 11.0579 23.0172 11.0579 22.7081V19.0147C11.0579 18.7056 11.3093 18.4541 11.6185 18.4541H15.3118C15.6209 18.4541 15.8724 18.7056 15.8724 19.0147V22.7081C15.8724 23.0172 15.621 23.2686 15.3118 23.2686H11.6185Z" fill="url(#paint23_linear_160_3111)"/>
<path id="Vector_25" d="M11.6185 16.7807C11.3094 16.7807 11.0579 16.5293 11.0579 16.2202V12.5269C11.0579 12.2178 11.3093 11.9663 11.6185 11.9663H15.3118C15.6209 11.9663 15.8724 12.2178 15.8724 12.5269V16.2202C15.8724 16.5293 15.621 16.7807 15.3118 16.7807H11.6185Z" fill="url(#paint24_linear_160_3111)"/>
<path id="Vector_26" d="M24.6878 29.7564C24.3787 29.7564 24.1272 29.5049 24.1272 29.1958V25.5024C24.1272 25.1933 24.3786 24.9419 24.6878 24.9419H28.3812C28.6903 24.9419 28.9418 25.1933 28.9418 25.5024V29.1958C28.9418 29.5049 28.6903 29.7564 28.3812 29.7564H24.6878Z" fill="url(#paint25_linear_160_3111)"/>
<path id="Vector_27" d="M24.6878 23.2686C24.3787 23.2686 24.1272 23.0172 24.1272 22.7081V19.0147C24.1272 18.7056 24.3786 18.4541 24.6878 18.4541H28.3812C28.6903 18.4541 28.9418 18.7056 28.9418 19.0147V22.7081C28.9418 23.0172 28.6903 23.2686 28.3812 23.2686H24.6878Z" fill="url(#paint26_linear_160_3111)"/>
<path id="Vector_28" d="M24.6878 16.7807C24.3787 16.7807 24.1272 16.5293 24.1272 16.2202V12.5269C24.1272 12.2178 24.3786 11.9663 24.6878 11.9663H28.3812C28.6903 11.9663 28.9418 12.2178 28.9418 12.5269V16.2202C28.9418 16.5293 28.6903 16.7807 28.3812 16.7807H24.6878Z" fill="url(#paint27_linear_160_3111)"/>
<path id="Vector_29" d="M18.1532 29.7564C17.8441 29.7564 17.5925 29.5049 17.5925 29.1958V25.5024C17.5925 25.1933 17.844 24.9419 18.1532 24.9419H21.8465C22.1556 24.9419 22.4071 25.1933 22.4071 25.5024V29.1958C22.4071 29.5049 22.1557 29.7564 21.8465 29.7564H18.1532Z" fill="url(#paint28_linear_160_3111)"/>
<path id="Vector_30" d="M18.1532 23.2686C17.8441 23.2686 17.5925 23.0172 17.5925 22.7081V19.0147C17.5925 18.7056 17.844 18.4541 18.1532 18.4541H21.8465C22.1556 18.4541 22.4071 18.7056 22.4071 19.0147V22.7081C22.4071 23.0172 22.1557 23.2686 21.8465 23.2686H18.1532Z" fill="url(#paint29_linear_160_3111)"/>
<path id="Vector_31" d="M18.1532 16.7807C17.8441 16.7807 17.5925 16.5293 17.5925 16.2202V12.5269C17.5925 12.2178 17.844 11.9663 18.1532 11.9663H21.8465C22.1556 11.9663 22.4071 12.2178 22.4071 12.5269V16.2202C22.4071 16.5293 22.1557 16.7807 21.8465 16.7807H18.1532Z" fill="url(#paint30_linear_160_3111)"/>
<path id="Vector_32" d="M8.82422 6.13623H9.45057V7.83756H8.82422V6.13623Z" fill="url(#paint31_linear_160_3111)"/>
<path id="Vector_33" d="M11.8137 6.13623H12.4401V7.83756H11.8137V6.13623Z" fill="url(#paint32_linear_160_3111)"/>
<path id="Vector_34" d="M15.4634 6.13623H16.0897V7.83756H15.4634V6.13623Z" fill="url(#paint33_linear_160_3111)"/>
<path id="Vector_35" d="M20.1785 6.13623H20.8048V7.83756H20.1785V6.13623Z" fill="url(#paint34_linear_160_3111)"/>
<path id="Vector_36" d="M24.9702 6.13623H25.5966V7.83756H24.9702V6.13623Z" fill="url(#paint35_linear_160_3111)"/>
<path id="Vector_37" d="M29.3987 6.13623H30.025V7.83756H29.3987V6.13623Z" fill="url(#paint36_linear_160_3111)"/>
<path id="Vector_38" d="M8.4541 6.21763V0.780222C8.4541 0.649163 8.51959 0.549398 8.65073 0.481006C8.78179 0.412614 8.93849 0.378418 9.12093 0.378418C9.30328 0.378418 9.45998 0.412614 9.59112 0.481006C9.72218 0.549398 9.78775 0.649163 9.78775 0.780222V2.87481H11.4891V0.780222C11.4891 0.649163 11.5546 0.549398 11.6857 0.481006C11.8168 0.412614 11.9735 0.378418 12.1559 0.378418C12.3383 0.378418 12.495 0.412614 12.6261 0.481006C12.7572 0.549398 12.8227 0.649163 12.8227 0.780222V6.21763C12.8227 6.34885 12.7572 6.44995 12.6261 6.52116C12.4949 6.59246 12.3382 6.62807 12.1559 6.62807C11.9735 6.62807 11.8168 6.59254 11.6857 6.52116C11.5545 6.45003 11.4891 6.34885 11.4891 6.21763V3.90077H9.78775V6.21763C9.78775 6.34885 9.72218 6.44995 9.59112 6.52116C9.45991 6.59246 9.30328 6.62807 9.12093 6.62807C8.93842 6.62807 8.78171 6.59254 8.65073 6.52116C8.51951 6.44995 8.4541 6.34885 8.4541 6.21763Z" fill="url(#paint37_linear_160_3111)"/>
<path id="Vector_39" d="M13.6777 4.66163V2.39607C13.6777 1.70077 13.8686 1.19057 14.2505 0.865712C14.6323 0.540849 15.1397 0.378418 15.7723 0.378418C16.4106 0.378418 16.9207 0.540849 17.3027 0.865712C17.6845 1.19057 17.8755 1.70069 17.8755 2.39607V4.66163C17.8755 5.35708 17.6844 5.86712 17.3027 6.19199C16.9208 6.51685 16.4106 6.67928 15.7723 6.67928C15.1397 6.67928 14.6323 6.51685 14.2505 6.19199C13.8686 5.86712 13.6777 5.35708 13.6777 4.66163ZM15.0115 4.66163C15.0115 5.23167 15.265 5.51661 15.7723 5.51661C16.2853 5.51661 16.5417 5.23167 16.5417 4.66163V2.39607C16.5417 1.82618 16.2853 1.54108 15.7723 1.54108C15.2649 1.54108 15.0115 1.82618 15.0115 2.39607V4.66163Z" fill="url(#paint38_linear_160_3111)"/>
<path id="Vector_40" d="M18.2432 0.951516C18.2432 0.796536 18.2774 0.662261 18.3458 0.548692C18.4141 0.435124 18.5138 0.378418 18.645 0.378418H22.3383C22.4694 0.378418 22.5691 0.435124 22.6375 0.548692C22.7059 0.662261 22.7401 0.796536 22.7401 0.951516C22.7401 1.11763 22.7044 1.2574 22.6333 1.37097C22.562 1.48446 22.4636 1.54108 22.3383 1.54108H21.1585V6.21481C21.1585 6.34681 21.0929 6.44869 20.9618 6.52046C20.8306 6.59222 20.674 6.62799 20.4916 6.62799C20.3091 6.62799 20.1524 6.59222 20.0214 6.52046C19.8902 6.44869 19.8248 6.34681 19.8248 6.21481V1.54108H18.645C18.5196 1.54108 18.4212 1.48446 18.35 1.37097C18.2787 1.2574 18.2432 1.11771 18.2432 0.951516Z" fill="url(#paint39_linear_160_3111)"/>
<path id="Vector_41" d="M23.27 6.21763V0.788771C23.27 0.657712 23.327 0.556614 23.441 0.48532C23.555 0.414104 23.6917 0.378418 23.8514 0.378418H26.895C27.026 0.378418 27.1258 0.435438 27.1942 0.549398C27.2626 0.663516 27.2968 0.79732 27.2968 0.951202C27.2968 1.11661 27.2611 1.25614 27.1899 1.3701C27.1186 1.48422 27.0202 1.54108 26.895 1.54108H24.6037V2.98595H25.8861C26.0114 2.98595 26.1097 3.03724 26.1811 3.13983C26.2523 3.24242 26.288 3.36508 26.288 3.50744C26.288 3.63865 26.2538 3.75536 26.1854 3.85795C26.117 3.96054 26.0172 4.01183 25.8862 4.01183H24.6038V5.46524H26.895C27.0203 5.46524 27.1186 5.52226 27.1899 5.63622C27.2612 5.75026 27.2968 5.88987 27.2968 6.05512C27.2968 6.20901 27.2626 6.34297 27.1943 6.45693C27.1259 6.57105 27.0261 6.62791 26.895 6.62791H23.8514C23.6918 6.62791 23.555 6.59238 23.4411 6.52101C23.327 6.44995 23.27 6.34885 23.27 6.21763Z" fill="url(#paint40_linear_160_3111)"/>
<path id="Vector_42" d="M27.8779 6.21763V0.780222C27.8779 0.649163 27.9434 0.549398 28.0746 0.481006C28.2056 0.412614 28.3623 0.378418 28.5448 0.378418C28.7271 0.378418 28.8838 0.412614 29.0149 0.481006C29.146 0.549398 29.2116 0.649163 29.2116 0.780222V5.46532H31.1608C31.2805 5.46532 31.3746 5.52234 31.4429 5.6363C31.5113 5.75034 31.5455 5.88712 31.5455 6.04665C31.5455 6.20634 31.5113 6.34312 31.4429 6.45709C31.3746 6.5712 31.2805 6.62807 31.1608 6.62807H28.4593C28.2997 6.62807 28.1628 6.59254 28.0489 6.52116C27.9349 6.44995 27.8779 6.34885 27.8779 6.21763Z" fill="url(#paint41_linear_160_3111)"/>
<path id="Vector_43" d="M32.0802 8.94579H7.91993C7.70487 8.94579 7.53052 8.77144 7.53052 8.55638V7.51246C7.53052 7.2974 7.70487 7.12305 7.91993 7.12305H32.0802C32.2952 7.12305 32.4696 7.2974 32.4696 7.51246V8.55638C32.4695 8.77144 32.2952 8.94579 32.0802 8.94579Z" fill="url(#paint42_linear_160_3111)"/>
<path id="Vector_44" d="M15.312 11.9663H11.6186C11.5408 11.9663 11.4666 11.9823 11.3992 12.0111L15.8277 16.4396C15.8565 16.3722 15.8726 16.2981 15.8726 16.2202V12.5269C15.8726 12.2178 15.6211 11.9663 15.312 11.9663Z" fill="url(#paint43_linear_160_3111)"/>
<path id="Vector_45" d="M21.8467 11.9663H20V16.7807H21.8467C22.1558 16.7807 22.4073 16.5293 22.4073 16.2202V12.5269C22.4073 12.2178 22.1558 11.9663 21.8467 11.9663Z" fill="url(#paint44_linear_160_3111)"/>
<path id="Vector_46" d="M6.14872 17.8804C6.77437 17.8804 7.28331 18.3894 7.28331 19.015V22.7084C7.28331 23.3339 6.77429 23.843 6.14872 23.843H2.45539C1.82974 23.843 1.3208 23.3339 1.3208 22.7084V19.015C1.3208 18.3894 1.82982 17.8804 2.45539 17.8804H6.14872Z" fill="url(#paint45_linear_160_3111)"/>
<path id="Vector_47" d="M6.14872 24.3677C6.77437 24.3677 7.28331 24.8767 7.28331 25.5023V29.1957C7.28331 29.8212 6.77429 30.3303 6.14872 30.3303H2.45539C1.82974 30.3303 1.3208 29.8212 1.3208 29.1957V25.5023C1.3208 24.8767 1.82982 24.3677 2.45539 24.3677H6.14872Z" fill="url(#paint46_linear_160_3111)"/>
<path id="Vector_48" d="M6.14872 30.8555C6.77437 30.8555 7.28331 31.3645 7.28331 31.9901V35.6834C7.28331 36.309 6.77429 36.818 6.14872 36.818H2.45539C1.82974 36.818 1.3208 36.309 1.3208 35.6834V31.9901C1.3208 31.3645 1.82982 30.8555 2.45539 30.8555H6.14872Z" fill="url(#paint47_linear_160_3111)"/>
<path id="Vector_49" d="M2.4554 36.2442C2.1463 36.2442 1.89478 35.9927 1.89478 35.6836V31.9902C1.89478 31.6811 2.14623 31.4297 2.4554 31.4297H6.14874C6.45783 31.4297 6.70936 31.6811 6.70936 31.9902V35.6836C6.70936 35.9927 6.45791 36.2442 6.14874 36.2442H2.4554Z" fill="url(#paint48_linear_160_3111)"/>
<path id="Vector_50" d="M2.4554 29.7564C2.1463 29.7564 1.89478 29.505 1.89478 29.1959V25.5024C1.89478 25.1933 2.14623 24.9419 2.4554 24.9419H6.14874C6.45783 24.9419 6.70936 25.1933 6.70936 25.5024V29.1959C6.70936 29.505 6.45791 29.7564 6.14874 29.7564H2.4554Z" fill="url(#paint49_linear_160_3111)"/>
<path id="Vector_51" d="M2.4554 23.2685C2.1463 23.2685 1.89478 23.0171 1.89478 22.708V19.0147C1.89478 18.7056 2.14623 18.4541 2.4554 18.4541H6.14874C6.45783 18.4541 6.70936 18.7056 6.70936 19.0147V22.708C6.70936 23.0171 6.45791 23.2685 6.14874 23.2685H2.4554Z" fill="url(#paint50_linear_160_3111)"/>
<path id="Vector_52" d="M37.5447 17.8804C38.1704 17.8804 38.6793 18.3894 38.6793 19.015V22.7084C38.6793 23.3339 38.1703 23.843 37.5447 23.843H33.8514C33.2257 23.843 32.7168 23.3339 32.7168 22.7084V19.015C32.7168 18.3894 33.2258 17.8804 33.8514 17.8804H37.5447Z" fill="url(#paint51_linear_160_3111)"/>
<path id="Vector_53" d="M37.5447 24.3677C38.1704 24.3677 38.6793 24.8767 38.6793 25.5023V29.1957C38.6793 29.8212 38.1703 30.3303 37.5447 30.3303H33.8514C33.2257 30.3303 32.7168 29.8212 32.7168 29.1957V25.5023C32.7168 24.8767 33.2258 24.3677 33.8514 24.3677H37.5447Z" fill="url(#paint52_linear_160_3111)"/>
<path id="Vector_54" d="M37.5447 30.8555C38.1704 30.8555 38.6793 31.3645 38.6793 31.9901V35.6834C38.6793 36.309 38.1703 36.818 37.5447 36.818H33.8514C33.2257 36.818 32.7168 36.309 32.7168 35.6834V31.9901C32.7168 31.3645 33.2258 30.8555 33.8514 30.8555H37.5447Z" fill="url(#paint53_linear_160_3111)"/>
<path id="Vector_55" d="M33.8514 36.2442C33.5423 36.2442 33.2908 35.9927 33.2908 35.6836V31.9902C33.2908 31.6811 33.5422 31.4297 33.8514 31.4297H37.5447C37.8538 31.4297 38.1054 31.6811 38.1054 31.9902V35.6836C38.1054 35.9927 37.8539 36.2442 37.5447 36.2442H33.8514Z" fill="url(#paint54_linear_160_3111)"/>
<path id="Vector_56" d="M33.8514 29.7564C33.5423 29.7564 33.2908 29.505 33.2908 29.1959V25.5024C33.2908 25.1933 33.5422 24.9419 33.8514 24.9419H37.5447C37.8538 24.9419 38.1054 25.1933 38.1054 25.5024V29.1959C38.1054 29.505 37.8539 29.7564 37.5447 29.7564H33.8514Z" fill="url(#paint55_linear_160_3111)"/>
<path id="Vector_57" d="M33.8514 23.2685C33.5423 23.2685 33.2908 23.0171 33.2908 22.708V19.0147C33.2908 18.7056 33.5422 18.4541 33.8514 18.4541H37.5447C37.8538 18.4541 38.1054 18.7056 38.1054 19.0147V22.708C38.1054 23.0171 37.8539 23.2685 37.5447 23.2685H33.8514Z" fill="url(#paint56_linear_160_3111)"/>
<path id="Vector_58" d="M33.4789 18.5972C33.3638 18.6999 33.2908 18.8489 33.2908 19.0149V22.7082C33.2908 23.0173 33.5422 23.2688 33.8514 23.2688H37.5447C37.7106 23.2688 37.8595 23.1959 37.9622 23.081L33.4789 18.5972Z" fill="url(#paint57_linear_160_3111)"/>
</g>
<defs>
<linearGradient id="paint0_linear_160_3111" x1="0.418039" y1="22.0722" x2="10.4666" y2="34.7421" gradientUnits="userSpaceOnUse">
<stop stop-color="#4A98F7"/>
<stop offset="1" stop-color="#0469BC"/>
</linearGradient>
<linearGradient id="paint1_linear_160_3111" x1="30.639" y1="24.1557" x2="40.1087" y2="33.6254" gradientUnits="userSpaceOnUse">
<stop stop-color="#4A98F7"/>
<stop offset="1" stop-color="#0469BC"/>
</linearGradient>
<linearGradient id="paint2_linear_160_3111" x1="38" y1="28.2016" x2="25.9534" y2="28.2016" gradientUnits="userSpaceOnUse">
<stop stop-color="#0469BC" stop-opacity="0"/>
<stop offset="1" stop-color="#0469BC"/>
</linearGradient>
<linearGradient id="paint3_linear_160_3111" x1="11.2747" y1="15.3798" x2="41.2683" y2="45.3734" gradientUnits="userSpaceOnUse">
<stop stop-color="#4A98F7"/>
<stop offset="1" stop-color="#0469BC"/>
</linearGradient>
<linearGradient id="paint4_linear_160_3111" x1="16.8564" y1="22.5109" x2="1.25327" y2="11.6542" gradientUnits="userSpaceOnUse">
<stop stop-color="#18CFFC" stop-opacity="0"/>
<stop offset="1" stop-color="#65E1DC"/>
</linearGradient>
<linearGradient id="paint5_linear_160_3111" x1="29.4183" y1="15.7277" x2="20.1796" y2="11.3905" gradientUnits="userSpaceOnUse">
<stop stop-color="#4A98F7"/>
<stop offset="1" stop-color="#0469BC"/>
</linearGradient>
<linearGradient id="paint6_linear_160_3111" x1="29.4183" y1="22.2155" x2="20.1796" y2="17.8783" gradientUnits="userSpaceOnUse">
<stop stop-color="#4A98F7"/>
<stop offset="1" stop-color="#0469BC"/>
</linearGradient>
<linearGradient id="paint7_linear_160_3111" x1="29.4183" y1="28.7028" x2="20.1796" y2="24.3655" gradientUnits="userSpaceOnUse">
<stop stop-color="#4A98F7"/>
<stop offset="1" stop-color="#0469BC"/>
</linearGradient>
<linearGradient id="paint8_linear_160_3111" x1="16.349" y1="15.7277" x2="7.11024" y2="11.3905" gradientUnits="userSpaceOnUse">
<stop stop-color="#4A98F7"/>
<stop offset="1" stop-color="#0469BC"/>
</linearGradient>
<linearGradient id="paint9_linear_160_3111" x1="16.349" y1="22.2155" x2="7.11024" y2="17.8783" gradientUnits="userSpaceOnUse">
<stop stop-color="#4A98F7"/>
<stop offset="1" stop-color="#0469BC"/>
</linearGradient>
<linearGradient id="paint10_linear_160_3111" x1="16.349" y1="28.7028" x2="7.11024" y2="24.3655" gradientUnits="userSpaceOnUse">
<stop stop-color="#4A98F7"/>
<stop offset="1" stop-color="#0469BC"/>
</linearGradient>
<linearGradient id="paint11_linear_160_3111" x1="22.8837" y1="15.7277" x2="13.6449" y2="11.3905" gradientUnits="userSpaceOnUse">
<stop stop-color="#4A98F7"/>
<stop offset="1" stop-color="#0469BC"/>
</linearGradient>
<linearGradient id="paint12_linear_160_3111" x1="22.8837" y1="22.2155" x2="13.6449" y2="17.8783" gradientUnits="userSpaceOnUse">
<stop stop-color="#4A98F7"/>
<stop offset="1" stop-color="#0469BC"/>
</linearGradient>
<linearGradient id="paint13_linear_160_3111" x1="22.8837" y1="28.7028" x2="13.6449" y2="24.3655" gradientUnits="userSpaceOnUse">
<stop stop-color="#4A98F7"/>
<stop offset="1" stop-color="#0469BC"/>
</linearGradient>
<linearGradient id="paint14_linear_160_3111" x1="21.0863" y1="14.1254" x2="18.4472" y2="1.10887" gradientUnits="userSpaceOnUse">
<stop stop-color="#0469BC" stop-opacity="0"/>
<stop offset="1" stop-color="#0469BC"/>
</linearGradient>
<linearGradient id="paint15_linear_160_3111" x1="24.2533" y1="21.755" x2="9.94981" y2="0.477021" gradientUnits="userSpaceOnUse">
<stop stop-color="#0469BC" stop-opacity="0"/>
<stop offset="1" stop-color="#0469BC"/>
</linearGradient>
<linearGradient id="paint16_linear_160_3111" x1="24.1067" y1="38.6445" x2="22.6118" y2="33.1276" gradientUnits="userSpaceOnUse">
<stop stop-color="#0469BC" stop-opacity="0"/>
<stop offset="1" stop-color="#0469BC"/>
</linearGradient>
<linearGradient id="paint17_linear_160_3111" x1="15.6738" y1="34.2067" x2="29.5337" y2="40.7135" gradientUnits="userSpaceOnUse">
<stop stop-color="#F9F7FC"/>
<stop offset="1" stop-color="#F0DDFC"/>
</linearGradient>
<linearGradient id="paint18_linear_160_3111" x1="21.1757" y1="36.96" x2="18.2447" y2="27.4818" gradientUnits="userSpaceOnUse">
<stop stop-color="#F0DDFC" stop-opacity="0"/>
<stop offset="0.2889" stop-color="#C8B7E0" stop-opacity="0.289"/>
<stop offset="0.5915" stop-color="#A595C8" stop-opacity="0.592"/>
<stop offset="0.8395" stop-color="#8F81B8" stop-opacity="0.84"/>
<stop offset="1" stop-color="#8779B3"/>
</linearGradient>
<linearGradient id="paint19_linear_160_3111" x1="20.2358" y1="37.1507" x2="18.4851" y2="33.5764" gradientUnits="userSpaceOnUse">
<stop stop-color="#E9EDF5" stop-opacity="0"/>
<stop offset="1" stop-color="white"/>
</linearGradient>
<linearGradient id="paint20_linear_160_3111" x1="22.5714" y1="36.3594" x2="15.0373" y2="34.0096" gradientUnits="userSpaceOnUse">
<stop stop-color="#F0DDFC" stop-opacity="0"/>
<stop offset="0.2889" stop-color="#C8B7E0" stop-opacity="0.289"/>
<stop offset="0.5915" stop-color="#A595C8" stop-opacity="0.592"/>
<stop offset="0.8395" stop-color="#8F81B8" stop-opacity="0.84"/>
<stop offset="1" stop-color="#8779B3"/>
</linearGradient>
<linearGradient id="paint21_linear_160_3111" x1="19.9998" y1="31.9584" x2="19.9998" y2="33.0306" gradientUnits="userSpaceOnUse">
<stop stop-color="#FFDA45"/>
<stop offset="1" stop-color="#FFA425"/>
</linearGradient>
<linearGradient id="paint22_linear_160_3111" x1="11.0423" y1="26.2116" x2="18.8044" y2="29.8556" gradientUnits="userSpaceOnUse">
<stop stop-color="#F9F7FC"/>
<stop offset="1" stop-color="#F0DDFC"/>
</linearGradient>
<linearGradient id="paint23_linear_160_3111" x1="11.0423" y1="19.7238" x2="18.8044" y2="23.3678" gradientUnits="userSpaceOnUse">
<stop stop-color="#F9F7FC"/>
<stop offset="1" stop-color="#F0DDFC"/>
</linearGradient>
<linearGradient id="paint24_linear_160_3111" x1="11.0423" y1="13.236" x2="18.8044" y2="16.88" gradientUnits="userSpaceOnUse">
<stop stop-color="#F9F7FC"/>
<stop offset="1" stop-color="#F0DDFC"/>
</linearGradient>
<linearGradient id="paint25_linear_160_3111" x1="24.1116" y1="26.2116" x2="31.8737" y2="29.8556" gradientUnits="userSpaceOnUse">
<stop stop-color="#F9F7FC"/>
<stop offset="1" stop-color="#F0DDFC"/>
</linearGradient>
<linearGradient id="paint26_linear_160_3111" x1="24.1116" y1="19.7238" x2="31.8737" y2="23.3678" gradientUnits="userSpaceOnUse">
<stop stop-color="#F9F7FC"/>
<stop offset="1" stop-color="#F0DDFC"/>
</linearGradient>
<linearGradient id="paint27_linear_160_3111" x1="24.1117" y1="13.236" x2="31.8737" y2="16.88" gradientUnits="userSpaceOnUse">
<stop stop-color="#F9F7FC"/>
<stop offset="1" stop-color="#F0DDFC"/>
</linearGradient>
<linearGradient id="paint28_linear_160_3111" x1="17.5769" y1="26.2116" x2="25.339" y2="29.8556" gradientUnits="userSpaceOnUse">
<stop stop-color="#F9F7FC"/>
<stop offset="1" stop-color="#F0DDFC"/>
</linearGradient>
<linearGradient id="paint29_linear_160_3111" x1="17.5769" y1="19.7238" x2="25.339" y2="23.3678" gradientUnits="userSpaceOnUse">
<stop stop-color="#F9F7FC"/>
<stop offset="1" stop-color="#F0DDFC"/>
</linearGradient>
<linearGradient id="paint30_linear_160_3111" x1="17.577" y1="13.236" x2="25.339" y2="16.88" gradientUnits="userSpaceOnUse">
<stop stop-color="#F9F7FC"/>
<stop offset="1" stop-color="#F0DDFC"/>
</linearGradient>
<linearGradient id="paint31_linear_160_3111" x1="8.81151" y1="6.98682" x2="9.38563" y2="6.98682" gradientUnits="userSpaceOnUse">
<stop stop-color="#7E8595"/>
<stop offset="1" stop-color="#555A66"/>
</linearGradient>
<linearGradient id="paint32_linear_160_3111" x1="11.801" y1="6.98682" x2="12.3751" y2="6.98682" gradientUnits="userSpaceOnUse">
<stop stop-color="#7E8595"/>
<stop offset="1" stop-color="#555A66"/>
</linearGradient>
<linearGradient id="paint33_linear_160_3111" x1="15.4507" y1="6.98682" x2="16.0248" y2="6.98682" gradientUnits="userSpaceOnUse">
<stop stop-color="#7E8595"/>
<stop offset="1" stop-color="#555A66"/>
</linearGradient>
<linearGradient id="paint34_linear_160_3111" x1="20.1658" y1="6.98682" x2="20.7399" y2="6.98682" gradientUnits="userSpaceOnUse">
<stop stop-color="#7E8595"/>
<stop offset="1" stop-color="#555A66"/>
</linearGradient>
<linearGradient id="paint35_linear_160_3111" x1="24.9575" y1="6.98682" x2="25.5316" y2="6.98682" gradientUnits="userSpaceOnUse">
<stop stop-color="#7E8595"/>
<stop offset="1" stop-color="#555A66"/>
</linearGradient>
<linearGradient id="paint36_linear_160_3111" x1="29.386" y1="6.98682" x2="29.9601" y2="6.98682" gradientUnits="userSpaceOnUse">
<stop stop-color="#7E8595"/>
<stop offset="1" stop-color="#555A66"/>
</linearGradient>
<linearGradient id="paint37_linear_160_3111" x1="10.6384" y1="1.21583" x2="10.6384" y2="12.0885" gradientUnits="userSpaceOnUse">
<stop stop-color="#FF7044"/>
<stop offset="1" stop-color="#F92814"/>
</linearGradient>
<linearGradient id="paint38_linear_160_3111" x1="15.7766" y1="1.21583" x2="15.7766" y2="12.0885" gradientUnits="userSpaceOnUse">
<stop stop-color="#FF7044"/>
<stop offset="1" stop-color="#F92814"/>
</linearGradient>
<linearGradient id="paint39_linear_160_3111" x1="20.4916" y1="1.21583" x2="20.4916" y2="12.0885" gradientUnits="userSpaceOnUse">
<stop stop-color="#FF7044"/>
<stop offset="1" stop-color="#F92814"/>
</linearGradient>
<linearGradient id="paint40_linear_160_3111" x1="25.2834" y1="1.21583" x2="25.2834" y2="12.0885" gradientUnits="userSpaceOnUse">
<stop stop-color="#FF7044"/>
<stop offset="1" stop-color="#F92814"/>
</linearGradient>
<linearGradient id="paint41_linear_160_3111" x1="29.7118" y1="1.21583" x2="29.7118" y2="12.0885" gradientUnits="userSpaceOnUse">
<stop stop-color="#FF7044"/>
<stop offset="1" stop-color="#F92814"/>
</linearGradient>
<linearGradient id="paint42_linear_160_3111" x1="20" y1="7.24179" x2="20" y2="10.2365" gradientUnits="userSpaceOnUse">
<stop stop-color="#FFDA45"/>
<stop offset="1" stop-color="#FFA425"/>
</linearGradient>
<linearGradient id="paint43_linear_160_3111" x1="16.7413" y1="16.2676" x2="7.97305" y2="4.71156" gradientUnits="userSpaceOnUse">
<stop stop-color="#F0DDFC" stop-opacity="0"/>
<stop offset="0.2889" stop-color="#C8B7E0" stop-opacity="0.289"/>
<stop offset="0.5915" stop-color="#A595C8" stop-opacity="0.592"/>
<stop offset="0.8395" stop-color="#8F81B8" stop-opacity="0.84"/>
<stop offset="1" stop-color="#8779B3"/>
</linearGradient>
<linearGradient id="paint44_linear_160_3111" x1="21.5087" y1="16.2203" x2="19.4243" y2="5.33486" gradientUnits="userSpaceOnUse">
<stop stop-color="#F0DDFC" stop-opacity="0"/>
<stop offset="0.2889" stop-color="#C8B7E0" stop-opacity="0.289"/>
<stop offset="0.5915" stop-color="#A595C8" stop-opacity="0.592"/>
<stop offset="0.8395" stop-color="#8F81B8" stop-opacity="0.84"/>
<stop offset="1" stop-color="#8779B3"/>
</linearGradient>
<linearGradient id="paint45_linear_160_3111" x1="7.1859" y1="22.2155" x2="-2.05292" y2="17.8783" gradientUnits="userSpaceOnUse">
<stop stop-color="#4A98F7"/>
<stop offset="1" stop-color="#0469BC"/>
</linearGradient>
<linearGradient id="paint46_linear_160_3111" x1="7.1859" y1="28.7028" x2="-2.05293" y2="24.3656" gradientUnits="userSpaceOnUse">
<stop stop-color="#4A98F7"/>
<stop offset="1" stop-color="#0469BC"/>
</linearGradient>
<linearGradient id="paint47_linear_160_3111" x1="7.18582" y1="35.1906" x2="-2.05292" y2="30.8533" gradientUnits="userSpaceOnUse">
<stop stop-color="#4A98F7"/>
<stop offset="1" stop-color="#0469BC"/>
</linearGradient>
<linearGradient id="paint48_linear_160_3111" x1="1.87917" y1="32.6994" x2="9.64121" y2="36.3434" gradientUnits="userSpaceOnUse">
<stop stop-color="#F9F7FC"/>
<stop offset="1" stop-color="#F0DDFC"/>
</linearGradient>
<linearGradient id="paint49_linear_160_3111" x1="1.87917" y1="26.2116" x2="9.64121" y2="29.8557" gradientUnits="userSpaceOnUse">
<stop stop-color="#F9F7FC"/>
<stop offset="1" stop-color="#F0DDFC"/>
</linearGradient>
<linearGradient id="paint50_linear_160_3111" x1="1.87917" y1="19.7238" x2="9.64121" y2="23.3678" gradientUnits="userSpaceOnUse">
<stop stop-color="#F9F7FC"/>
<stop offset="1" stop-color="#F0DDFC"/>
</linearGradient>
<linearGradient id="paint51_linear_160_3111" x1="38.5819" y1="22.2155" x2="29.3431" y2="17.8783" gradientUnits="userSpaceOnUse">
<stop stop-color="#4A98F7"/>
<stop offset="1" stop-color="#0469BC"/>
</linearGradient>
<linearGradient id="paint52_linear_160_3111" x1="38.5819" y1="28.7028" x2="29.3431" y2="24.3656" gradientUnits="userSpaceOnUse">
<stop stop-color="#4A98F7"/>
<stop offset="1" stop-color="#0469BC"/>
</linearGradient>
<linearGradient id="paint53_linear_160_3111" x1="38.5819" y1="35.1906" x2="29.3431" y2="30.8533" gradientUnits="userSpaceOnUse">
<stop stop-color="#4A98F7"/>
<stop offset="1" stop-color="#0469BC"/>
</linearGradient>
<linearGradient id="paint54_linear_160_3111" x1="33.2752" y1="32.6994" x2="41.0372" y2="36.3434" gradientUnits="userSpaceOnUse">
<stop stop-color="#F9F7FC"/>
<stop offset="1" stop-color="#F0DDFC"/>
</linearGradient>
<linearGradient id="paint55_linear_160_3111" x1="33.2752" y1="26.2116" x2="41.0373" y2="29.8557" gradientUnits="userSpaceOnUse">
<stop stop-color="#F9F7FC"/>
<stop offset="1" stop-color="#F0DDFC"/>
</linearGradient>
<linearGradient id="paint56_linear_160_3111" x1="33.2752" y1="19.7238" x2="41.0372" y2="23.3678" gradientUnits="userSpaceOnUse">
<stop stop-color="#F9F7FC"/>
<stop offset="1" stop-color="#F0DDFC"/>
</linearGradient>
<linearGradient id="paint57_linear_160_3111" x1="36.9768" y1="24.5153" x2="26.7029" y2="12.995" gradientUnits="userSpaceOnUse">
<stop stop-color="#F0DDFC" stop-opacity="0"/>
<stop offset="0.2889" stop-color="#C8B7E0" stop-opacity="0.289"/>
<stop offset="0.5915" stop-color="#A595C8" stop-opacity="0.592"/>
<stop offset="0.8395" stop-color="#8F81B8" stop-opacity="0.84"/>
<stop offset="1" stop-color="#8779B3"/>
</linearGradient>
<clipPath id="clip0_160_3111">
<rect width="40" height="40" fill="white"/>
</clipPath>
</defs>
</svg>
