<svg width="10" height="22" viewBox="0 0 10 22" fill="none" xmlns="http://www.w3.org/2000/svg">
<path id="Vector" d="M3.66076 22C5.50019 22 6.99136 20.5089 6.99136 18.6694C6.99136 18.5587 6.9857 18.4492 6.97508 18.3412C8.22248 17.9963 9.13872 16.8539 9.13872 15.4966C9.13872 14.3544 8.48949 13.3644 7.54035 12.8736C8.10018 12.3363 8.44939 11.5812 8.44939 10.744C8.44939 9.62902 7.83106 8.65866 6.91871 8.15649C7.31828 7.65291 7.55756 7.01641 7.55756 6.32366C7.55756 4.91517 6.5708 3.73794 5.25111 3.44346C5.278 3.28354 5.29263 3.11938 5.29263 2.95179C5.29263 1.32146 3.97105 0 2.34084 0C1.93078 0 1.54018 0.0837338 1.18531 0.234926C1.18531 0.234926 -1.00438 2.435 0.568632 4.52174V22H3.66076Z" fill="#5B4982"/>
</svg>
