<svg width="60" height="60" viewBox="0 0 60 60" fill="none" xmlns="http://www.w3.org/2000/svg">
<g id="fi_3092413" clip-path="url(#clip0_160_3048)">
<path id="Vector" d="M59.9996 38.3376C60.0307 40.5627 58.2317 42.4442 55.9418 42.4442H39.9227C37.9032 42.4442 36.1786 40.9549 35.9027 38.9409C35.9008 38.9274 32.7596 16.1473 32.6929 15.6758C32.3574 13.237 34.2511 11.0634 36.7129 11.0634H52.732C54.7596 11.0634 56.476 12.5594 56.752 14.5666C57.4181 19.4069 59.9929 37.8777 59.9996 38.3376Z" fill="#FE4F60"/>
<path id="Vector_2" d="M59.9996 38.3376C60.0307 40.5627 58.2317 42.4442 55.9418 42.4442H39.9227C37.9028 42.4442 36.1783 40.9543 35.9027 38.9409C35.7748 38.0198 35.4572 35.7085 32.6929 15.6758C32.3574 13.237 34.2511 11.0634 36.7129 11.0634H47.289C47.3257 11.329 50.0787 31.3039 50.5678 34.8343C50.8424 36.8457 52.5656 38.3376 54.5878 38.3376H59.9996Z" fill="#EA475F"/>
<path id="Vector_3" d="M44.7894 32.0114C44.7748 32.0163 38.0535 41.8266 37.9722 41.9451C36.879 41.3464 36.0823 40.2529 35.9027 38.9409C35.7057 37.5219 36.2585 41.5189 32.6929 15.6758C32.3574 13.237 34.2511 11.0634 36.7129 11.0634H42.9501C44.0648 19.1419 43.5554 15.449 45.4065 28.8679C45.558 29.9635 45.348 31.1687 44.7894 32.0114Z" fill="#42434D"/>
<path id="Vector_4" d="M41.2928 33.7874H4.32839C4.04637 31.7485 0.0482886 2.75776 0 2.40662H38.1588C40.3203 2.40662 42.1517 4.00136 42.4466 6.14391C42.45 6.15771 45.5733 28.8462 45.5806 28.868C45.9431 31.4853 43.902 33.7874 41.2928 33.7874Z" fill="#FE4F60"/>
<path id="Vector_5" d="M38.2589 6.21017C30.2335 6.34042 18.9234 6.48651 13.234 12.1455C10.215 15.1483 9.23164 19.1696 8.61891 23.9241C8.44415 25.2797 7.35529 26.3521 6.00564 26.4508C4.51911 26.5604 3.20977 25.5094 2.98659 24.0485C2.97225 23.977 2.48855 20.4696 0 2.40659C0.628969 2.40659 38.2055 2.40429 38.3604 2.41065C40.7883 2.52292 40.6896 6.17243 38.2589 6.21017Z" fill="#FF6D7A"/>
<path id="Vector_6" d="M43.4097 25.3227C43.8317 26.2059 42.9349 26.9391 42.1004 26.394L37.9519 23.6833C37.5785 23.4398 37.1241 23.4398 36.8251 23.6833L33.5112 26.394C32.8444 26.9391 31.7203 26.2059 31.8718 25.3227L32.6212 20.9361C32.6888 20.5412 32.4819 20.1097 32.1085 19.8649L27.9614 17.1542C27.1255 16.6091 27.3284 15.4215 28.2576 15.4215H32.8687C33.284 15.4215 33.6113 15.1538 33.6789 14.7587L34.4283 10.3735C34.5798 9.49024 35.8282 9.49024 36.2516 10.3735L38.3509 14.7587C38.5403 15.1537 38.9501 15.4215 39.364 15.4215H43.7249C43.8317 16.1965 43.9413 16.9865 44.0495 17.7737L41.493 19.8649C41.1941 20.1097 41.1211 20.5412 41.3091 20.9361L43.4097 25.3227Z" fill="#FFE773"/>
<path id="Vector_7" d="M7.62986 40.1155C7.5483 39.5235 7.00278 39.1095 6.41034 39.1909C5.81829 39.2724 5.40426 39.8184 5.48568 40.4104L7.71994 56.659C7.79461 57.2012 8.25842 57.5938 8.79068 57.5938C9.44859 57.5938 9.95339 57.014 9.86412 56.3642L7.62986 40.1155Z" fill="#42434D"/>
</g>
<defs>
<clipPath id="clip0_160_3048">
<rect width="60" height="60" fill="white"/>
</clipPath>
</defs>
</svg>
