<svg width="12" height="12" viewBox="0 0 12 12" fill="none" xmlns="http://www.w3.org/2000/svg">
<g id="Group">
<path id="Vector" d="M9.87984 2.83015H1.40473C0.632075 2.83015 0 3.46222 0 4.23487C0 5.00752 0.632192 5.6396 1.40473 5.6396H9.87984C10.6525 5.6396 11.2846 5.00752 11.2846 4.23487C11.2846 3.46222 10.6524 2.83015 9.87984 2.83015Z" fill="#E28B7D"/>
<path id="Vector_2" d="M9.72503 3.14382C9.62251 3.02823 9.56607 2.89319 9.56194 2.75332C9.54604 2.22093 9.41158 0.917902 8.50861 0.316585C7.86817 -0.109863 6.96778 -0.105503 5.83255 0.329783C5.71024 0.376682 5.57414 0.376682 5.45183 0.329783C4.31659 -0.105386 3.41621 -0.109745 2.77577 0.316585C1.87279 0.917902 1.73834 2.22105 1.72243 2.75332C1.71831 2.89319 1.66187 3.02823 1.55923 3.14382C0.993737 3.78108 1.11758 5.64265 1.24956 6.40918C1.34218 6.81819 1.44811 7.36447 1.56665 7.94953C1.95975 9.88828 3.6639 12 5.64213 12C7.62024 12 9.32439 9.8884 9.7176 7.94965C9.83638 7.364 9.94244 6.81677 10.0353 6.40694C10.162 5.60118 10.297 3.78827 9.72503 3.14382Z" fill="#EFA29A"/>
</g>
</svg>
