<svg width="6" height="6" viewBox="0 0 6 6" fill="none" xmlns="http://www.w3.org/2000/svg">
<path id="Vector" d="M1.00184 6.00002C0.803684 5.99998 0.609989 5.94118 0.445242 5.83107C0.280494 5.72096 0.152091 5.56448 0.0762656 5.38141C0.000440025 5.19833 -0.0194039 4.99688 0.0192429 4.80253C0.0578897 4.60818 0.153291 4.42965 0.293388 4.28951L4.30161 0.281289C4.4906 0.0987562 4.74372 -0.00224522 5.00645 3.78803e-05C5.26919 0.00232098 5.52052 0.107707 5.70631 0.293496C5.8921 0.479285 5.99748 0.730613 5.99977 0.993349C6.00205 1.25608 5.90105 1.50921 5.71851 1.6982L1.71029 5.70642C1.61738 5.79962 1.50695 5.87354 1.38537 5.92392C1.26379 5.97431 1.13345 6.00017 1.00184 6.00002Z" fill="#636971"/>
</svg>
