<svg width="21" height="17" viewBox="0 0 21 17" fill="none" xmlns="http://www.w3.org/2000/svg">
<g id="Group">
<path id="Vector" d="M18.0862 0.236144H14.096L10.408 5.63683L9.16816 10.6006L10.408 11.4804L18.0862 0.236144Z" fill="#D9E7EC"/>
<path id="Vector_2" d="M16.5042 7.79169C14.0015 7.79169 12.1125 9.46806 12.1125 12.3959C12.1125 15.3473 14.0014 17 16.5042 17C19.0071 17 20.8959 15.3473 20.8959 12.3959C20.8959 9.46806 19.007 7.79169 16.5042 7.79169ZM16.5042 14.45C15.9848 14.45 15.4654 13.9777 15.4654 12.3958C15.4654 10.8138 15.9848 10.3416 16.5042 10.3416C17.0237 10.3416 17.5431 10.8138 17.5431 12.3958C17.5431 13.9777 17.0237 14.45 16.5042 14.45Z" fill="#D9E7EC"/>
<path id="Vector_3" d="M6.79997 16.7638L10.4079 11.4804V5.6368L2.80975 16.7638H6.79997Z" fill="#FAFCFD"/>
<path id="Vector_4" d="M8.78341 4.60421C8.78341 1.67648 6.89455 0 4.39171 0C1.88886 0 0 1.67636 0 4.60421C0 7.55557 1.88886 9.20841 4.39171 9.20841C6.89455 9.20841 8.78341 7.55557 8.78341 4.60421ZM3.35284 4.60421C3.35284 3.02228 3.87227 2.55 4.39171 2.55C4.91114 2.55 5.43057 3.02228 5.43057 4.60421C5.43057 6.18614 4.91114 6.65841 4.39171 6.65841C3.87227 6.65841 3.35284 6.18614 3.35284 4.60421Z" fill="#FAFCFD"/>
</g>
</svg>
