<svg width="32" height="32" viewBox="0 0 32 32" fill="none" xmlns="http://www.w3.org/2000/svg">
<g id="Group">
<path id="Vector" d="M24.3469 24.3469C28.0336 24.2883 31.1825 21.6169 31.7788 17.9782C32.5685 13.1575 31.2442 8.05841 27.8037 4.17451C27.4288 3.75126 26.79 3.7364 26.3902 4.13611L25.0093 5.51702C24.4969 6.02943 23.6302 5.81947 23.3983 5.13288C22.8165 3.40969 21.9005 1.7746 20.6479 0.329963C20.2801 -0.0942364 19.6259 -0.110286 19.2288 0.286806L15.6013 3.91438C15.4053 4.11031 15.1352 4.21339 14.8586 4.19793L4.64401 3.62488C4.06703 3.59254 3.5891 4.06715 3.61751 4.64436L4.12386 14.9396C4.13742 15.214 4.03422 15.4813 3.83995 15.6756L0.286806 19.2287C-0.110286 19.6258 -0.0942364 20.28 0.329963 20.6478C1.7746 21.9004 3.40969 22.8164 5.13288 23.3982C5.81947 23.63 6.02955 24.4967 5.51702 25.0092L4.13611 26.3901C3.73628 26.7899 3.75126 27.4287 4.17451 27.8036C8.05841 31.2441 13.1576 32.5684 17.9782 31.7786C21.6169 31.1825 24.2883 28.0336 24.3469 24.3469Z" fill="#FE860A"/>
</g>
</svg>
