<svg width="30" height="30" viewBox="0 0 30 30" fill="none" xmlns="http://www.w3.org/2000/svg">
<path id="Vector" d="M22.7691 13.6353C22.7691 13.6353 30.0813 10.5936 27.8659 5.857C27.082 4.1766 25.1791 5.32335 25.0374 5.33659C25.0599 5.17107 26.2875 3.345 24.6243 2.48957C19.975 0.0980748 16.6579 7.28978 16.6579 7.28978C16.6579 7.28978 16.0236 -0.605073 10.8354 0.0371616C8.99481 0.264923 9.49667 2.42866 9.46622 2.5677C9.31526 2.49487 7.95796 0.762821 6.63112 2.0804C2.9194 5.76298 8.73394 11.1392 8.73394 11.1392C8.73394 11.1392 1.02977 9.30256 0.0379465 14.4365C-0.31429 16.2572 1.89844 16.4479 2.02159 16.5207C1.90639 16.6413 -0.160683 17.3974 0.681506 19.0659C3.01474 23.6899 9.81316 19.9398 9.94558 19.867C9.87275 19.9875 5.86043 26.6469 10.3958 29.1562C12.0179 30.0527 12.8826 28.0081 12.9899 27.9128C13.0694 28.0598 13.1501 30.2593 14.9974 29.9746C20.1048 29.1854 18.6575 21.5884 18.623 21.411C18.7263 21.5289 23.8126 27.3871 27.5945 23.8528C28.9491 22.5869 27.2727 21.1316 27.2144 21.0005C27.3786 20.9714 29.496 21.5739 29.7953 19.7293C30.6336 14.5676 22.7691 13.6353 22.7691 13.6353Z" fill="#FFA4B8"/>
</svg>
