<svg width="27" height="27" viewBox="0 0 27 27" fill="none" xmlns="http://www.w3.org/2000/svg">
<g id="Group">
<path id="Vector" d="M4.85271 7.19632C2.17264 7.19632 0 10.6726 0 14.9607C0 18.9617 1.89167 22.2548 4.32204 22.678C4.74523 25.1084 8.03828 27 12.0393 27C16.3275 27 19.8037 24.8274 19.8037 22.1473C19.8037 21.4102 19.5394 20.7119 19.069 20.0861C23.3027 20.0467 26.7158 17.8907 26.7158 15.2352C26.7158 13.4091 25.1012 11.8193 22.7163 10.991C23.1416 10.6668 23.5572 10.3056 23.9561 9.9067C26.9883 6.87449 27.91 2.88015 26.0149 0.985009C24.1197 -0.910136 20.1254 0.0116179 17.0932 3.04383C16.6943 3.4427 16.3331 3.85846 16.0089 4.28357C15.1807 1.89861 13.5908 0.284079 11.7648 0.284079C9.10932 0.284079 6.95333 3.69719 6.91391 7.93092C6.28811 7.46064 5.58982 7.19632 4.85271 7.19632Z" fill="#FFC344"/>
</g>
</svg>
