<svg width="39" height="27" viewBox="0 0 39 27" fill="none" xmlns="http://www.w3.org/2000/svg">
<path id="Vector" d="M38.9709 17.2048C38.912 16.0151 38.4699 14.8754 37.7435 13.9298C36.1054 11.797 35.786 10.1037 35.786 10.1037C34.4998 6.7335 33.3564 4.48791 32.516 3.06269C31.6318 1.56604 30.1026 0.557906 28.3781 0.336245C24.9102 -0.112082 14.0718 -0.112082 10.6039 0.336245C8.8806 0.559198 7.35141 1.56733 6.46719 3.06269C5.6268 4.48791 4.48467 6.7335 3.19716 10.1037C3.19716 10.1037 2.87783 11.797 1.23967 13.9298C0.514547 14.8754 0.0711446 16.0151 0.0135902 17.2048C-0.110398 19.7861 0.637325 20.3534 1.3061 26.1946C1.35873 26.6543 1.74692 26.9999 2.21034 26.9999H36.7755C37.2389 26.9999 37.6271 26.653 37.6798 26.1946C37.8676 24.5565 38.425 21.2338 38.425 21.2338C38.9133 19.5819 39.0197 18.2356 38.9709 17.2048Z" fill="#E95353"/>
</svg>
