<svg width="22" height="33" viewBox="0 0 22 33" fill="none" xmlns="http://www.w3.org/2000/svg">
<g id="Group">
<path id="Vector" d="M21.6027 29.8908L14.1324 11.8556C13.945 11.4031 13.945 10.8945 14.1324 10.4419L16.179 5.50107C16.5487 4.60875 16.1158 3.58415 15.2131 3.22944C14.3269 2.88132 13.3261 3.35079 12.9617 4.23057L12.1358 6.22463C12.081 6.35691 11.8935 6.35691 11.8387 6.22463L9.66467 0.976457C9.3172 0.137494 8.33085 -0.243254 7.50298 0.164174C6.74743 0.536082 6.44174 1.45862 6.76399 2.23651L8.05023 5.34163C8.11758 5.50412 7.9125 5.64122 7.7881 5.51682L5.23344 2.96248C4.59136 2.3204 3.53446 2.34596 2.92549 3.03931C2.36972 3.67207 2.44027 4.64137 3.03575 5.23684L5.25626 7.45736C5.38066 7.58176 5.24357 7.78684 5.08108 7.7195L2.18376 6.5194C1.3448 6.17192 0.378227 6.59992 0.0808933 7.47343C-0.190564 8.27061 0.245632 9.13915 1.02368 9.46155L3.73938 10.5864C3.90187 10.6538 3.85381 10.8957 3.67783 10.8957H2.11465C1.27248 10.8957 0.53718 11.5312 0.482856 12.3716C0.423229 13.2925 1.15242 14.0578 2.06049 14.0578H5.01518C5.76221 14.0578 6.43563 14.5079 6.72156 15.198L14.0954 33.0002L21.6027 29.8908Z" fill="#FFCEBF"/>
<path id="Vector_2" d="M21.6026 29.8905L14.1323 11.8554C13.9449 11.4028 13.9449 10.8943 14.1323 10.4417L16.179 5.50084C16.5486 4.60852 16.1158 3.58392 15.213 3.22921C14.708 3.03072 14.1662 3.09871 13.7257 3.35586C14.4515 3.7882 14.7707 4.69723 14.4379 5.50084L12.3912 10.4417C12.2038 10.8943 12.2038 11.4028 12.3912 11.8554L20.1166 30.5059L21.6026 29.8905Z" fill="#FFB09E"/>
</g>
</svg>
