<svg width="44" height="44" viewBox="0 0 44 44" fill="none" xmlns="http://www.w3.org/2000/svg">
<g id="Group">
<path id="Vector" d="M36.1727 9.71064L38.1097 11.5424L40.4139 3.82229L38.0944 3.27229L36.1727 9.71064Z" fill="#EDBC49"/>
<path id="Vector_2" d="M43.9999 17.2174L42.0323 15.356L36.1727 20.8981L38.5009 28.6995L30.577 30.5771L28.6994 38.5009L20.898 36.1728L15.3559 42.0324L17.2173 44L22.811 38.0858L30.6124 40.414L32.4901 32.4901L40.4139 30.6125L38.0857 22.8111L43.9999 17.2174Z" fill="#EDBC49"/>
<path id="Vector_3" d="M9.7107 36.1728L3.27235 38.0944L3.82235 40.414L11.5434 38.1097L9.7107 36.1728Z" fill="#EDBC49"/>
<path id="Vector_4" d="M17.2174 34.4348C26.7263 34.4348 34.4348 26.7263 34.4348 17.2174C34.4348 7.70849 26.7263 0 17.2174 0C7.70849 0 0 7.70849 0 17.2174C0 26.7263 7.70849 34.4348 17.2174 34.4348Z" fill="#EDBC49"/>
</g>
</svg>
