<svg width="45" height="60" viewBox="0 0 45 60" fill="none" xmlns="http://www.w3.org/2000/svg">
<path id="Vector" d="M44.6369 56.4354C40.3796 58.7112 35.5175 60 30.3537 60C13.5893 60 0 46.4107 0 29.6463C0 15.1285 10.1908 2.99292 23.8094 0L24.8711 5.42395C13.8116 7.92955 5.51927 17.8454 5.51927 29.6463C5.51927 34.7173 7.03898 39.4328 9.64714 43.3628C10.2848 44.3229 11.6481 44.4487 12.463 43.6339L15.3986 40.6984L24.8612 24.4924L28.2146 22.506L28.9988 26.5141C28.9988 26.5141 27.6917 30.3097 32.026 31.877L16.3661 47.537C15.5513 48.3518 15.6771 49.7151 16.6373 50.3529C20.5672 52.961 25.2827 54.4807 30.3537 54.4807C34.4364 54.4807 38.2931 53.4875 41.6965 51.7309V51.7321C41.6965 51.7321 40.2427 55.5485 44.6369 56.4354Z" fill="#FF5D29"/>
</svg>
