<svg width="22" height="21" viewBox="0 0 22 21" fill="none" xmlns="http://www.w3.org/2000/svg">
<g id="Group">
<path id="Vector" d="M17.1398 21C16.8119 21 16.4889 20.849 16.2807 20.5643L13.4093 16.6364C13.0629 16.1624 13.1662 15.4974 13.64 15.151C14.1141 14.8043 14.7792 14.9078 15.1256 15.3818L17.9969 19.3096C18.5148 20.018 17.996 21 17.1398 21Z" fill="#FF8CA5"/>
<path id="Vector_2" d="M4.82943 21C3.9725 21 3.45467 20.0176 3.97223 19.3095L6.84372 15.3816C7.19 14.9078 7.85505 14.8043 8.32929 15.1508C8.80313 15.4974 8.90651 16.1624 8.55997 16.6364L5.68848 20.5643C5.48039 20.849 5.1571 21 4.82943 21Z" fill="#FF8CA5"/>
<path id="Vector_3" d="M16.2858 10.8335C15.6987 10.8335 15.2221 10.3575 15.2221 9.77048C15.2221 9.28667 15.5447 8.87847 15.9868 8.74971L20.5726 7.23437C21.1301 7.05021 21.7313 7.35277 21.9153 7.91019C22.0996 8.46761 21.7969 9.06888 21.2395 9.25305C16.2301 10.9083 16.5302 10.8335 16.2858 10.8335Z" fill="#FF8CA5"/>
<path id="Vector_4" d="M5.68502 10.8338C5.44159 10.8338 5.74548 10.91 0.729886 9.25304C0.172465 9.06887 -0.130231 8.46774 0.0539373 7.91018C0.238371 7.35276 0.839111 7.05007 1.3968 7.23423L6.01828 8.761C6.5757 8.94517 6.8784 9.54631 6.69423 10.1039C6.5466 10.5506 6.13109 10.8338 5.68502 10.8338Z" fill="#FF8CA5"/>
<path id="Vector_5" d="M10.9852 6.99069C10.3982 6.99069 9.9222 6.51473 9.9222 5.92767V1.06302C9.9222 0.475968 10.3982 0 10.9852 0C11.5723 0 12.0482 0.475968 12.0482 1.06302V5.92767C12.0482 6.51473 11.5723 6.99069 10.9852 6.99069Z" fill="#FF8CA5"/>
</g>
</svg>
