<svg width="13" height="21" viewBox="0 0 13 21" fill="none" xmlns="http://www.w3.org/2000/svg">
<path id="Vector" d="M12.965 5.38618L11.6112 0L7.51448 1.2296C7.31604 1.15551 6.61725 0.563991 6.40579 0.533027H2.6048V2.41607C2.6048 2.41607 0.273023 3.76031 0.273023 5.82927C0.273023 7.57125 0.435094 12.7441 0.34982 16.3537C0.329177 17.2255 0.257662 18.095 0.118077 18.9559C0.0282564 19.5099 -0.0502584 20.2742 0.0399311 20.9426C0.486455 20.9805 0.933839 21 1.38135 21C3.25456 21 5.12765 20.6681 6.93108 20.0045L7.55687 19.7742C7.55982 19.7731 7.56277 19.772 7.56572 19.771C7.96629 19.6194 8.30284 19.1158 8.14077 18.6746C6.28046 13.6132 8.05807 10.7081 9.08641 8.55264C9.26777 8.17247 9.53944 7.84243 9.88128 7.59644L9.8873 7.59214C10.0891 7.4469 10.3116 7.33324 10.5473 7.2546L12.2524 6.68619C12.7934 6.50606 13.1041 5.93924 12.965 5.38618Z" fill="#CD6DCD"/>
</svg>
