<svg width="13" height="13" viewBox="0 0 13 13" fill="none" xmlns="http://www.w3.org/2000/svg">
<path id="Vector" d="M12.062 3.54097H10.7855L12.4102 1.91624C12.7765 1.54995 12.7765 0.956056 12.4102 0.589891C12.0439 0.223601 11.45 0.223601 11.0838 0.589891L9.45911 2.21462V0.937923C9.45911 0.419939 9.03917 0 8.52118 0C8.0032 0 7.58326 0.419939 7.58326 0.937923V4.09034L5.92564 5.74797V3.01048C5.92564 2.4925 5.5057 2.07256 4.98771 2.07256C4.46973 2.07256 4.04979 2.4925 4.04979 3.01048V7.62381L0.274718 11.3989C-0.0915725 11.7652 -0.0915725 12.3591 0.274718 12.7252C0.4578 12.9083 0.697909 13 0.937893 13C1.17788 13 1.41798 12.9084 1.60106 12.7252L5.37602 8.95016H9.98947C10.5075 8.95016 10.9274 8.53022 10.9274 8.01224C10.9274 7.49425 10.5075 7.07431 9.98947 7.07431H7.25186L8.90948 5.41669H12.0619C12.5799 5.41669 12.9998 4.99675 12.9998 4.47877C12.9998 3.96078 12.58 3.54097 12.062 3.54097Z" fill="#ECA026"/>
</svg>
