<svg width="49" height="14" viewBox="0 0 49 14" fill="none" xmlns="http://www.w3.org/2000/svg">
<path id="Vector" d="M2.72277 3.58093H6.4024L9.1669 9.00602L9.16666 9.00757C10.0486 9.55466 10.9621 10.0557 11.9035 10.508L15.7824 9.00602L19.4236 12.9235L19.4238 12.9238C21.0724 13.2135 22.7684 13.3652 24.4999 13.3652C26.856 13.3652 29.1464 13.0847 31.3404 12.5567L31.3401 12.5556L34.4507 9.00602L36.8734 10.6122L36.8741 10.613C37.7104 10.22 38.5251 9.78844 39.3156 9.32053L39.3155 9.31946L42.0196 4.78798L44.8692 5.05766L44.8693 5.05825C46.4266 3.5348 47.8142 1.83868 49 0H0C0.815594 1.26471 1.72667 2.462 2.72253 3.58224L2.72277 3.58093Z" fill="#A2DD21"/>
</svg>
