<svg width="32" height="9" viewBox="0 0 32 9" fill="none" xmlns="http://www.w3.org/2000/svg">
<path id="Vector" d="M30.2614 4.03024V4.19106C30.2614 4.83834 29.7299 5.35697 29.0698 5.32993C28.4611 5.29136 27.9953 4.74702 27.9953 4.12546V1.81686C27.9953 1.27252 27.5424 0.858144 26.998 0.872327C26.9852 0.872327 26.9852 0.872327 26.9723 0.872327C26.9723 0.872327 26.9723 0.872327 26.9595 0.872327C26.4151 0.859471 25.9622 1.27385 25.9622 1.81686V3.90541C25.9622 4.55269 25.405 5.07132 24.7577 5.03143C24.149 5.00571 23.6832 4.44851 23.6832 3.83981V2.02405C23.6832 1.47971 23.2302 1.02676 22.673 1.02676H22.5958C22.0772 1.02676 21.65 1.45399 21.65 1.97263V4.33397C21.65 4.98125 21.1056 5.49855 20.4455 5.47284C19.8368 5.43427 19.3838 4.88993 19.3838 4.26836V1.10265C19.3838 0.598205 18.9437 0.170974 18.4251 0.209542H18.3479C17.8164 0.209542 17.3905 0.636773 17.3905 1.15541V4.39186C17.3905 5.01343 16.8861 5.53073 16.2516 5.53073C15.6429 5.53073 15.1385 5.03914 15.1256 4.43052V1.71402C15.1256 1.09245 14.6598 0.549435 14.0511 0.509541C13.391 0.483829 12.8595 1.00113 12.8595 1.64841L12.8466 4.1578C12.8466 4.80508 12.3165 5.32238 11.655 5.29667C11.0579 5.25935 10.605 4.73433 10.5869 4.13981V1.1953C10.5869 0.584022 10.1275 0.0371062 9.51621 0.00110964C8.86122 -0.0271734 8.32069 0.488805 8.32069 1.13741V4.222C8.30269 4.85385 7.77253 5.35697 7.1226 5.33126C6.51389 5.29269 6.06095 4.74835 6.06095 4.12678V1.81686C6.06095 1.27252 5.59515 0.858144 5.0508 0.872327C5.03795 0.872327 5.03795 0.872327 5.03795 0.872327C5.02509 0.872327 5.02509 0.872327 5.02509 0.872327C4.46789 0.859471 4.01495 1.27385 4.01495 1.81686V3.90541C4.01495 4.55269 3.4706 5.07132 2.82333 5.03143C2.25966 5.00953 1.84014 4.53859 1.76815 3.99292C1.16972 5.23214 0.576526 6.5743 0 8.00786C10.6499 8.8469 21.3501 8.8469 32.0001 8.00786C31.426 6.57049 30.8444 5.245 30.2614 4.03024Z" fill="#3AA2EB"/>
</svg>
