<svg width="19" height="19" viewBox="0 0 19 19" fill="none" xmlns="http://www.w3.org/2000/svg">
<path id="Vector" d="M18.0883 5.38674H14.9024L18.2536 2.03548C18.6097 1.67946 18.6097 1.10221 18.2536 0.746316C17.8976 0.390296 17.3204 0.390296 16.9645 0.746316L13.6132 4.09758V0.911626C13.6132 0.408165 13.2051 0 12.7016 0C12.1981 0 11.79 0.408165 11.79 0.911626V5.92083L8.23779 9.47301V4.06452C8.23779 3.56105 7.82962 3.15289 7.32616 3.15289C6.8227 3.15289 6.41454 3.56105 6.41454 4.06452V11.2963L0.267015 17.4438C-0.0890051 17.7998 -0.0890051 18.377 0.267015 18.7329C0.444965 18.9109 0.67834 19 0.911595 19C1.14485 19 1.37823 18.911 1.55618 18.7329L7.70357 12.5855H14.9353C15.4388 12.5855 15.8469 12.1774 15.8469 11.6739C15.8469 11.1705 15.4388 10.7623 14.9353 10.7623H9.52683L13.079 7.21011H18.0882C18.5917 7.21011 18.9998 6.80195 18.9998 6.29849C18.9998 5.79502 18.5918 5.38674 18.0883 5.38674Z" fill="#ECA026"/>
</svg>
