<svg width="22" height="33" viewBox="0 0 22 33" fill="none" xmlns="http://www.w3.org/2000/svg">
<g id="Group">
<path id="Vector" d="M19.4876 10.8955H17.9245C17.7487 10.8955 17.7005 10.6536 17.863 10.5863L20.5787 9.46139C21.3567 9.13914 21.7929 8.27061 21.5215 7.47327C21.2241 6.59976 20.2574 6.1716 19.4186 6.51924L16.5213 7.71934C16.3588 7.78668 16.2217 7.5816 16.3461 7.4572L18.5666 5.23668C19.1621 4.64121 19.2327 3.67191 18.6769 3.03915C18.0679 2.3458 17.011 2.32024 16.3689 2.96232L13.8144 5.51682C13.69 5.64122 13.485 5.50412 13.5523 5.34163L14.8385 2.23651C15.1608 1.45846 14.8551 0.536082 14.0996 0.164174C13.2717 -0.243253 12.2853 0.137494 11.9379 0.976457L9.76395 6.22479C9.70915 6.35707 9.52174 6.35707 9.46694 6.22479L8.64099 4.23073C8.27664 3.35111 7.27583 2.88148 6.38961 3.2296C5.48668 3.58431 5.05403 4.60891 5.42368 5.50123L7.4703 10.4421C7.65771 10.8947 7.65771 11.4032 7.4703 11.8558L0 29.8908L7.50679 33.0002L14.8807 15.198C15.1666 14.5079 15.84 14.0578 16.587 14.0578H19.5417C20.4498 14.0578 21.179 13.2923 21.1194 12.3716C21.0649 11.531 20.3296 10.8955 19.4876 10.8955Z" fill="#FFCEBF"/>
<path id="Vector_2" d="M14.9527 12.3968C14.2057 12.3968 13.5323 12.8468 13.2464 13.5369L5.52453 32.1791L7.50654 33L14.8804 15.1978C15.1663 14.5077 15.8398 14.0576 16.5868 14.0576H19.5415C20.4412 14.0576 21.1641 13.3061 21.1194 12.3966L14.9527 12.3968Z" fill="#FFB09E"/>
</g>
</svg>
