<svg width="38" height="15" viewBox="0 0 38 15" fill="none" xmlns="http://www.w3.org/2000/svg">
<g id="Group">
<path id="Vector" d="M29.0625 15C26.8255 14.9975 24.6808 14.1078 23.099 12.526C21.5172 10.9442 20.6275 8.7995 20.625 6.5625V3.75C20.626 2.75576 21.0215 1.80254 21.7245 1.0995C22.4275 0.396464 23.3808 0.00104231 24.375 0H33.75C34.7442 0.00104231 35.6975 0.396464 36.4005 1.0995C37.1035 1.80254 37.499 2.75576 37.5 3.75V6.5625C37.4975 8.7995 36.6078 10.9442 35.026 12.526C33.4442 14.1078 31.2995 14.9975 29.0625 15ZM24.375 1.875C23.8779 1.87557 23.4013 2.0733 23.0498 2.4248C22.6983 2.77631 22.5006 3.25289 22.5 3.75V6.5625C22.5 8.30298 23.1914 9.97218 24.4221 11.2029C25.6528 12.4336 27.322 13.125 29.0625 13.125C30.803 13.125 32.4722 12.4336 33.7029 11.2029C34.9336 9.97218 35.625 8.30298 35.625 6.5625V3.75C35.6244 3.25289 35.4267 2.77631 35.0752 2.4248C34.7237 2.0733 34.2471 1.87557 33.75 1.875H24.375Z" fill="#E1503C"/>
<path id="Vector_2" d="M8.4375 15C6.2005 14.9975 4.05583 14.1078 2.47403 12.526C0.892227 10.9442 0.00248142 8.7995 0 6.5625V3.75C0.00104231 2.75576 0.396465 1.80254 1.0995 1.0995C1.80254 0.396464 2.75576 0.00104231 3.75 0H13.125C14.1192 0.00104231 15.0725 0.396464 15.7755 1.0995C16.4785 1.80254 16.874 2.75576 16.875 3.75V6.5625C16.8725 8.7995 15.9828 10.9442 14.401 12.526C12.8192 14.1078 10.6745 14.9975 8.4375 15ZM3.75 1.875C3.25289 1.87557 2.77631 2.0733 2.42481 2.4248C2.0733 2.77631 1.87557 3.25289 1.875 3.75V6.5625C1.875 8.30298 2.5664 9.97218 3.79711 11.2029C5.02782 12.4336 6.69702 13.125 8.4375 13.125C10.178 13.125 11.8472 12.4336 13.0779 11.2029C14.3086 9.97218 15 8.30298 15 6.5625V3.75C14.9994 3.25289 14.8017 2.77631 14.4502 2.4248C14.0987 2.0733 13.6221 1.87557 13.125 1.875H3.75Z" fill="#E1503C"/>
</g>
</svg>
