<svg width="30" height="10" viewBox="0 0 30 10" fill="none" xmlns="http://www.w3.org/2000/svg">
<g id="Group">
<path id="Shape" d="M7.94306 0.0537908C7.77227 -0.0174622 7.58017 -0.0179449 7.40903 0.0524481C7.23789 0.122841 7.10173 0.258342 7.0305 0.429138L4.18609 7.25586L1.34168 0.429138C1.24572 0.199077 1.03431 0.0376869 0.78709 0.00576235C0.539869 -0.0261622 0.294396 0.0762291 0.143139 0.274366C-0.00811918 0.472503 -0.0421824 0.736285 0.0537805 0.966346L3.54214 9.33841C3.6505 9.59833 3.90449 9.76762 4.18609 9.76762C4.46769 9.76762 4.72168 9.59833 4.83004 9.33841L8.3184 0.966346C8.38966 0.795561 8.39014 0.603464 8.31975 0.432323C8.24935 0.261181 8.11385 0.125017 7.94306 0.0537908Z" fill="#3B97D3"/>
<path id="Shape_2" d="M26.4579 0.429208C26.3495 0.169291 26.0955 0 25.8139 0C25.5323 0 25.2783 0.169291 25.17 0.429208L21.6816 8.80127C21.5333 9.15692 21.7013 9.56548 22.057 9.71383C22.4126 9.86217 22.8212 9.69412 22.9695 9.33848L23.9532 6.97686H27.6746L28.6583 9.33848C28.7543 9.56854 28.9657 9.72993 29.2129 9.76186C29.4602 9.79378 29.7056 9.69139 29.8569 9.49325C30.0081 9.29512 30.0422 9.03133 29.9463 8.80127L26.4579 0.429208ZM24.5351 5.58152L25.8139 2.51176L27.0928 5.58152H24.5351Z" fill="#3B97D3"/>
<path id="Shape_3" d="M10.4652 0C10.0799 0 9.76751 0.312358 9.76751 0.697672V9.06974C9.76751 9.45505 10.0799 9.76741 10.4652 9.76741C10.8505 9.76741 11.1629 9.45505 11.1629 9.06974V0.697672C11.1629 0.312358 10.8505 0 10.4652 0Z" fill="#3B97D3"/>
<path id="Shape_4" d="M17.093 1.39534C18.5316 1.39534 19.5349 2.13069 19.5349 2.79069C19.5349 3.176 19.8472 3.48836 20.2326 3.48836C20.6179 3.48836 20.9302 3.176 20.9302 2.79069C20.9302 1.22581 19.2447 0 17.093 0C14.9414 0 13.2558 1.22581 13.2558 2.79069C13.2558 4.35557 14.9414 5.58138 17.093 5.58138C18.5316 5.58138 19.5349 6.31672 19.5349 6.97672C19.5349 7.63672 18.5316 8.37206 17.093 8.37206C15.6544 8.37206 14.6512 7.63672 14.6512 6.97672C14.6512 6.59141 14.3388 6.27905 13.9535 6.27905C13.5682 6.27905 13.2558 6.59141 13.2558 6.97672C13.2558 8.5416 14.9414 9.76741 17.093 9.76741C19.2447 9.76741 20.9302 8.5416 20.9302 6.97672C20.9302 5.41184 19.2447 4.18603 17.093 4.18603C15.6537 4.18603 14.6512 3.45069 14.6512 2.79069C14.6512 2.13069 15.6537 1.39534 17.093 1.39534Z" fill="#3B97D3"/>
</g>
</svg>
