<svg width="22" height="24" viewBox="0 0 22 24" fill="none" xmlns="http://www.w3.org/2000/svg">
<g id="Group">
<path id="Vector" d="M21.111 13.4445C21.111 19.2801 16.3758 24.0096 10.5374 24C4.7321 23.9904 -0.00639352 19.2386 6.47545e-06 13.4327C0.00212412 11.4305 0.562171 9.55986 1.53215 7.96546C1.67803 7.72645 2.02137 7.70725 2.19229 7.92927C2.19652 7.93407 2.20029 7.93939 2.204 7.94419C2.54311 8.3823 3.23304 8.25614 3.40607 7.73016C4.5184 4.34791 6.53958 1.08777 8.9496 0.0387817C9.2567 -0.0948652 9.59586 0.133605 9.59125 0.468523C9.5911 0.479628 9.59101 0.490734 9.59092 0.50184C9.5808 2.52984 11.2124 4.21723 13.2397 4.27115C13.3145 4.27313 13.3887 4.27294 13.4625 4.27059C15.1948 4.21581 16.7812 5.23257 17.395 6.85341C17.5049 7.14386 17.6084 7.43652 17.705 7.73012C17.8781 8.25609 18.568 8.38226 18.9071 7.94414C18.9108 7.93934 18.9145 7.93402 18.9188 7.92922C19.0913 7.70508 19.4352 7.7296 19.5821 7.97129C20.5521 9.56729 21.111 11.4407 21.111 13.4445Z" fill="url(#paint0_linear_160_3408)"/>
<path id="Vector_2" d="M18.5204 16.0351C18.5204 20.4385 14.9473 24.0072 10.5419 23.9999C6.16138 23.9927 2.5859 20.4071 2.5907 16.0263C2.5923 14.5155 3.01489 13.1039 3.74679 11.9008C3.85686 11.7205 4.11597 11.706 4.24491 11.8735C4.24811 11.8771 4.25093 11.8811 4.25376 11.8848C4.50966 12.2153 5.03023 12.1201 5.16077 11.7232C6.00016 9.17111 7.52524 6.71111 9.34378 5.91963C9.57549 5.81878 9.8314 5.99116 9.82796 6.24386C9.82782 6.25224 9.82778 6.26061 9.82773 6.26904C9.82011 7.7993 11.0513 9.07257 12.581 9.11322C12.6374 9.11473 12.6935 9.11459 12.7491 9.1128C14.0562 9.07148 15.2533 9.83868 15.7164 11.0617C15.7993 11.2809 15.8774 11.5017 15.9504 11.7233C16.0809 12.1202 16.6015 12.2154 16.8574 11.8848C16.8602 11.8812 16.863 11.8772 16.8662 11.8736C16.9964 11.7044 17.2559 11.7229 17.3667 11.9053C18.0987 13.1095 18.5204 14.5231 18.5204 16.0351Z" fill="url(#paint1_linear_160_3408)"/>
<path id="Vector_3" d="M6.47545e-06 13.4328C-0.00639352 19.2386 4.7321 23.9904 10.5374 24C16.3758 24.0096 21.111 19.2801 21.111 13.4445C21.111 12.9573 21.0778 12.478 21.0138 12.0083H0.09723C0.0338418 12.4741 0.000524122 12.9496 6.47545e-06 13.4328Z" fill="url(#paint2_linear_160_3408)"/>
<path id="Vector_4" d="M18.3344 1.53845C18.3334 1.53845 18.3323 1.53845 18.3312 1.53845C18.1986 1.53892 18.1164 1.68791 18.1838 1.80217C18.2961 1.99271 18.3523 2.22014 18.3294 2.46217C18.2832 2.94894 17.9083 3.352 17.4262 3.43365C17.3056 3.45407 17.1884 3.45403 17.0768 3.43685C16.8904 3.40819 16.7177 3.55064 16.7173 3.7392V3.74306C16.7173 4.63619 17.4413 5.36024 18.3344 5.36024C19.2276 5.36024 19.9516 4.63619 19.9516 3.74306C19.9516 2.84988 19.2276 1.53845 18.3344 1.53845Z" fill="url(#paint3_linear_160_3408)"/>
</g>
<defs>
<linearGradient id="paint0_linear_160_3408" x1="3.6169" y1="6.70339" x2="14.4697" y2="17.5562" gradientUnits="userSpaceOnUse">
<stop stop-color="#FEE45A"/>
<stop offset="1" stop-color="#FEA613"/>
</linearGradient>
<linearGradient id="paint1_linear_160_3408" x1="1.54585" y1="7.1745" x2="13.4456" y2="19.0742" gradientUnits="userSpaceOnUse">
<stop stop-color="#FEDBBD"/>
<stop offset="1" stop-color="#FD3581"/>
</linearGradient>
<linearGradient id="paint2_linear_160_3408" x1="10.5555" y1="13.5529" x2="10.5555" y2="22.6585" gradientUnits="userSpaceOnUse">
<stop stop-color="#FE646F" stop-opacity="0"/>
<stop offset="0.2966" stop-color="#FC616A" stop-opacity="0.297"/>
<stop offset="0.6214" stop-color="#F5575D" stop-opacity="0.621"/>
<stop offset="0.9585" stop-color="#EB4747" stop-opacity="0.959"/>
<stop offset="1" stop-color="#E94444"/>
</linearGradient>
<linearGradient id="paint3_linear_160_3408" x1="16.4424" y1="1.67022" x2="18.7946" y2="4.0224" gradientUnits="userSpaceOnUse">
<stop stop-color="#FEE45A"/>
<stop offset="1" stop-color="#FEA613"/>
</linearGradient>
</defs>
</svg>
