<svg width="15" height="21" viewBox="0 0 15 21" fill="none" xmlns="http://www.w3.org/2000/svg">
<path id="Vector" d="M14.6722 1.97534C12.7052 2.16584 13.2437 4.30181 13.2057 4.475C13.0574 4.40343 11.7236 2.70143 10.4198 3.99615C6.77243 7.61486 12.4861 12.8978 12.4861 12.8978C12.4861 12.8978 4.91559 11.093 3.94097 16.1379C3.59484 17.9271 5.76919 18.1145 5.8902 18.186C5.777 18.3044 3.74578 19.0474 4.57336 20.687C4.62801 20.795 4.68527 20.8991 4.74512 20.998C3.15242 21.037 1.57143 20.5217 0.669684 18.7351C-0.157896 17.0956 1.87332 16.3526 1.98653 16.2342C1.86551 16.1626 -0.308838 15.9752 0.0372882 14.1861C1.01191 9.1412 8.58244 10.946 8.58244 10.946C8.58244 10.946 2.86876 5.66302 6.51609 2.04431C7.81992 0.749589 9.15368 2.45159 9.30202 2.52316C9.33195 2.38653 8.83878 0.260328 10.6475 0.0365171C12.5396 -0.197704 13.816 0.723564 14.6722 1.97534Z" fill="#FFBFCB"/>
</svg>
