<svg width="166" height="60" viewBox="0 0 166 60" fill="none" xmlns="http://www.w3.org/2000/svg">
<g id="Partner Logo (1) 1" clip-path="url(#clip0_160_3088)">
<path id="Vector" d="M40.0409 44.2705C41.5648 44.2705 43.0562 44.6922 44.2234 45.6003C44.353 45.6976 44.4179 45.8597 44.4827 46.0219L44.6448 45.9895C44.6124 45.8273 44.58 45.6003 44.58 45.3732L44.5476 43.8813H44.7421L44.9366 49.8813H44.5152L44.4503 47.9678C44.3206 46.1192 42.1159 44.6597 39.8788 44.6597C36.1503 44.6597 34.1402 47.0597 34.1402 51.5354C34.1402 56.4976 36.2476 59.157 40.1382 59.157C42.3105 59.157 44.4179 58.0868 45.196 56.3354L45.5851 56.4651C44.7097 58.5408 42.4726 59.5462 40.1058 59.5462C35.3073 59.5462 32.1299 56.4651 32.1299 51.8922C32.065 47.2868 35.2749 44.2705 40.0409 44.2705Z" fill="#006F44"/>
<path id="Vector_2" d="M46.7199 59.1569H47.0766C47.6602 59.1569 47.9844 58.5732 48.341 57.8596L54.7281 44.4326H56.4789V44.6921C56.4789 45.1137 56.5762 45.6326 56.6734 45.8921L62.0555 57.8596C62.5094 58.865 62.5742 59.1569 63.3848 59.1569H63.5793V59.3515H59.2348V59.1569H60.9855V59.1245C60.6613 59.0272 60.4344 58.5083 60.2723 58.1515L59.0078 55.2975H49.9945L48.7625 57.8596C48.6977 58.0218 48.6328 58.184 48.6328 58.3461C48.6328 58.8326 49.0543 59.1569 49.7352 59.1569H50.8375V59.3515H46.6875V59.1569H46.7199ZM58.8781 54.9083L55.0199 46.2813C54.8578 45.9569 54.8254 45.6651 54.8254 45.438H54.6309C54.6309 45.5678 54.566 45.8272 54.3715 46.2813L50.2215 54.9083H58.8781Z" fill="#006F44"/>
<path id="Vector_3" d="M69.4798 59.1569H70.2904C71.3927 59.1569 71.49 59.0596 71.49 58.0867V57.3732C66.9185 57.1137 63.9357 55.0056 63.9357 51.8921C63.9357 48.811 66.9185 46.7029 71.49 46.4434V45.7299C71.49 44.7245 71.3603 44.6596 70.2904 44.6596H69.4798V44.4326H75.2833V44.6596H74.4728C73.3704 44.6596 73.2407 44.7569 73.2407 45.7299V46.411C77.8122 46.638 80.795 48.7786 80.795 51.8596C80.795 54.9732 77.8122 57.0813 73.2407 57.3407V58.0542C73.2407 59.0596 73.3704 59.1245 74.4728 59.1245H75.2833V59.3191H69.4798V59.1569ZM71.49 46.8002C68.1181 47.0596 65.9458 48.8759 65.9458 51.5029C65.9458 54.5191 68.1181 56.5948 71.49 56.9515V46.8002ZM73.2732 56.9515C76.645 56.6921 78.8173 54.8759 78.8173 52.2488C78.8173 49.2326 76.645 47.1245 73.2732 46.8002V56.9515Z" fill="#006F44"/>
<path id="Vector_4" d="M82.2543 59.1569H82.6109C83.7781 59.1569 83.9402 58.8326 84.0375 57.6975L84.6211 45.7299C84.6211 45.5678 84.6535 45.4056 84.6535 45.3083C84.6535 44.8542 84.4914 44.6596 83.5188 44.6596H82.6109V44.4326H85.9504L91.8512 56.3029C92.0457 56.7245 92.2078 57.0813 92.2078 57.1786H92.3375C92.3375 57.0488 92.4996 56.5948 92.6617 56.3029L98.5625 44.4326H101.967V44.6272H101.156C100.054 44.6272 99.8918 44.9191 99.8918 45.5353C99.8918 45.6975 99.8918 45.8921 99.9242 46.0867L100.443 57.6651C100.475 58.8326 100.637 59.1245 101.902 59.1245H102.388V59.3191H96.4551V59.1245H97.2656C98.5301 59.1245 98.6598 58.8326 98.6598 58.3137C98.6598 58.2164 98.6598 58.0867 98.6598 57.9569L98.2059 47.0272C98.1734 46.638 98.1734 46.3461 98.1734 46.1191H98.0437C98.0437 46.184 97.8816 46.5407 97.6871 46.9623L91.5594 59.384L91.4945 59.5137H91.4297L91.3648 59.384L85.3344 47.1894C85.1398 46.7678 85.075 46.3786 85.075 46.3137H84.9777C84.9777 46.5083 84.9777 46.638 84.9453 47.0272L84.3617 57.8921C84.3617 58.0542 84.3293 58.2164 84.3293 58.3461C84.3293 58.8326 84.5238 59.0921 85.7559 59.0921H86.5664V59.2867H82.1895V59.1569H82.2543Z" fill="#006F44"/>
<path id="Vector_5" d="M103.816 59.1569H104.172C104.756 59.1569 105.08 58.5732 105.437 57.8596L111.824 44.4326H113.574V44.6921C113.574 45.1137 113.672 45.6326 113.769 45.8921L119.151 57.8596C119.605 58.865 119.67 59.1569 120.48 59.1569H120.675V59.3515H116.33V59.1569H118.081V59.1245C117.757 59.0272 117.53 58.5083 117.368 58.1515L116.103 55.2975H107.09L105.858 57.8596C105.793 58.0218 105.728 58.184 105.728 58.3461C105.728 58.8326 106.15 59.1569 106.831 59.1569H107.933V59.3515H103.783V59.1569H103.816ZM115.941 54.9083L112.083 46.2813C111.921 45.9569 111.889 45.6651 111.889 45.438H111.694C111.694 45.5678 111.629 45.8272 111.435 46.2813L107.285 54.9083H115.941Z" fill="#006F44"/>
<path id="Vector_6" d="M122.359 59.1569H123.17C124.272 59.1569 124.37 59.0596 124.37 58.0542V45.7299C124.37 44.7245 124.24 44.6272 123.17 44.6272H122.359V44.4326H128.098C131.535 44.4326 133.804 46.2488 133.804 49.0056C133.804 51.7299 131.502 53.5461 128.098 53.5461H126.153V58.0542C126.153 59.0596 126.283 59.1569 127.385 59.1569H127.968V59.3515H122.392V59.1569H122.359ZM125.731 44.9515C125.991 45.2759 126.12 45.7623 126.12 46.2488V53.1894H127.385C130.27 53.1894 131.794 51.7299 131.794 49.038C131.794 46.3461 130.238 44.8867 127.385 44.8867H125.731V44.9515Z" fill="#006F44"/>
<path id="Vector_7" d="M23.3105 51.9893L23.4078 51.438H29.0822L28.9525 51.9893H23.3105Z" fill="#006F44"/>
<path id="Vector_8" d="M136.787 51.9893L136.885 51.438H142.559L142.429 51.9893H136.787Z" fill="#006F44"/>
<path id="Vector_9" d="M7.23008 23.0267C6.12773 25.9781 5.57656 28.1186 5.64141 29.4808C5.67383 30.1619 5.77109 30.4862 5.9332 30.9078H0C1.3293 29.2538 2.69102 27.1132 3.98789 24.5511C5.28477 21.9889 6.67891 18.9078 8.07305 15.1781C9.27266 12.1294 10.2129 9.37267 10.991 6.97267C11.7367 4.57267 12.0934 3.11322 12.0609 2.62673C12.0609 2.07538 11.8664 1.62133 11.6395 1.19971H17.5078C19.6801 8.69159 21.8199 15.0159 23.7652 20.1402C25.7105 25.297 27.3316 28.8646 28.7582 30.8754H23.3438C23.3438 30.8754 20.75 23.7402 18.2535 16.2483C17.2809 13.3619 14.2332 4.34565 14.2332 4.34565L9.72656 16.3132L7.2625 22.897L7.23008 23.0267Z" fill="#006F44"/>
<path id="Vector_10" d="M34.2375 17.3187V15.4052C34.2375 7.00516 34.2375 2.43219 33.0703 1.16733H35.9559C41.3703 1.16733 45.2609 1.0376 47.6602 1.0376C47.8547 1.0376 48.6004 1.0376 49.2812 1.07003L49.6379 5.41597C48.7625 3.04841 46.0715 2.85381 41.2082 2.85381H38.6145C38.2902 4.28083 38.193 7.52408 38.193 12.5835V14.1079C39.2629 14.2376 40.4625 14.2052 41.7918 14.2052C44.7422 14.2052 47.3359 14.1079 49.7027 13.6862C47.4656 16.1511 44.191 16.3781 39.3602 16.3781C39.0359 16.3781 38.6793 16.3457 38.1605 16.3457V19.3619C38.1605 24.4214 38.2578 27.6971 38.582 29.1241H41.273C46.493 29.1241 49.7352 28.5079 51.7453 25.9133L50.9672 30.5511C49.7027 30.7781 48.1789 30.9079 46.3309 30.9079C43.8668 30.9079 40.7219 30.8106 36.8312 30.8106H33.0703C34.1727 29.7403 34.2375 25.3619 34.2375 17.3187Z" fill="#006F44"/>
<path id="Vector_11" d="M77.8771 7.55655C76.5478 4.3133 74.181 2.69168 70.7443 2.69168C64.0654 2.69168 60.0775 7.26465 60.0775 15.016C60.0775 23.1565 64.7138 28.0214 71.5224 28.0214C74.8618 28.0214 77.7798 26.7241 79.8224 24.3565C78.72 28.5728 74.7646 31.4592 69.3501 31.4592C61.3743 31.4592 55.506 25.3944 55.506 16.3457C55.506 6.68087 61.2771 0.648438 71.263 0.648438C73.6298 0.648438 75.8021 1.19979 78.1689 1.19979L77.8771 7.55655Z" fill="#006F44"/>
<path id="Vector_12" d="M103.036 12.6486C103.036 6.16207 103.004 2.49721 101.837 1.19991H108.192C107.057 2.30262 106.992 6.4864 106.992 14.2377V17.8377C106.992 25.5891 107.024 29.8053 108.159 30.908H101.804C102.907 29.6107 103.004 25.9134 103.004 19.4269V15.8918H89.1599V19.4269C89.1599 25.9134 89.1599 29.6107 90.3271 30.908H84.0372C85.1396 29.7405 85.2044 25.3621 85.2044 17.3188V15.4053C85.2044 7.00532 85.2044 2.43235 84.0372 1.16748H90.3271C89.1599 2.49721 89.1599 6.16207 89.1599 12.6486V14.1729H103.004V12.6486H103.036Z" fill="#006F44"/>
<path id="Vector_13" d="M118.989 15.2113C122.264 7.62211 123.528 3.34102 123.528 2.65994C123.528 2.20588 123.398 1.7194 123.171 1.23291H128.91C133.741 17.4167 137.761 27.1789 140.387 30.941H135.33L130.661 18.0653H119.864L117.887 22.9302C116.817 25.3951 115.974 27.4708 115.974 29.514C115.974 29.9356 116.071 30.4545 116.201 30.941H110.267C113.315 27.2437 116.039 22.1194 118.989 15.2113ZM129.98 16.314L125.635 4.34643L120.61 16.314H129.98Z" fill="#006F44"/>
<path id="Vector_14" d="M164.898 27.8917C165.093 29.4809 165.352 30.4863 165.773 30.9079H159.484C159.937 30.4539 160.229 29.416 160.424 27.7944C160.553 26.1403 160.651 22.6376 160.651 17.3187V16.443C158.511 16.7349 158.154 17.2214 156.63 19.3944L155.982 20.3349C150.924 27.5674 150.924 27.5674 149.984 28.8647C149.109 30.162 148.363 30.9079 146.774 30.9079H142.754C144.148 30.0647 145.445 28.5079 146.774 26.6917C146.774 26.6917 153.226 18.0647 153.55 17.643C153.972 17.1241 154.523 16.5728 154.523 16.5728H154.069C150.049 16.2485 146.515 13.362 146.255 9.11332C146.028 5.22143 148.946 0.907921 155.204 0.875488H155.236H155.269C158.803 0.875488 162.045 1.19981 165.644 1.19981H165.773H165.871L165.773 1.23225C165.352 1.65387 165.093 2.65927 164.898 4.18359C164.703 5.77278 164.606 9.08089 164.606 14.2052V16.0214V17.8376C164.639 22.9295 164.736 26.3349 164.898 27.8917ZM160.651 14.8863C160.651 9.40521 160.553 5.83764 160.424 4.31332C160.327 3.6971 160.294 3.21062 160.197 2.72414L156.63 2.6917C154.004 2.6917 152.61 3.34035 151.637 4.86467C151.021 5.87008 150.665 7.32954 150.762 9.08089C150.957 11.9998 152.675 13.9133 154.555 14.5944C155.82 15.016 156.955 15.0485 158.316 15.016C158.9 15.016 160.002 14.9187 160.651 14.8863Z" fill="#006F44"/>
</g>
<defs>
<clipPath id="clip0_160_3088">
<rect width="166" height="60" fill="white"/>
</clipPath>
</defs>
</svg>
