<svg width="49" height="60" viewBox="0 0 49 60" fill="none" xmlns="http://www.w3.org/2000/svg">
<g id="Group">
<path id="Vector" d="M41.5938 21.2859C36.5066 15.6674 33.4835 10.7213 31.8429 7.56139C30.0662 4.13872 29.484 2.01635 29.4795 1.99946L28.9507 0L27.0618 0.8425C26.9542 0.890472 25.6612 1.47986 24.0251 2.74707L22.774 4.95143L24.0251 7.54555C25.0029 6.44877 26.0113 5.6289 26.8224 5.06133C28.1457 8.42711 31.5001 15.3807 38.9854 23.6478C40.6529 25.4895 44.5314 30.3775 44.5314 35.975C44.5314 47.2821 35.3323 56.4813 24.0253 56.4813L22.774 58.7489L24.0251 60C37.2726 59.9999 48.0502 49.2224 48.0502 35.975C48.0503 31.1717 45.697 25.8178 41.5938 21.2859Z" fill="#FFB62D"/>
<path id="Vector_2" d="M9.56609 50.5435C5.70746 46.7145 3.5601 41.596 3.5194 36.1313C3.4889 32.0404 4.65853 28.0833 6.90171 24.6878C7.17559 24.2733 8.27425 22.7406 9.22794 21.4179L9.82835 22.0183C11.3053 23.4952 13.4092 24.1325 15.4578 23.7228C18.377 23.1389 20.484 20.5554 20.4677 17.5797C20.4575 15.7381 20.6883 13.0572 21.8454 10.7428C22.473 9.48753 23.2391 8.42734 24.0251 7.54567V2.74706C22.3019 4.08195 20.1981 6.16902 18.6981 9.16909C17.2302 12.105 16.9366 15.3738 16.949 17.5988C16.9561 18.8937 16.0387 20.018 14.7676 20.2722C13.8764 20.4502 12.9597 20.1732 12.3164 19.53L8.79807 16.0116L7.58775 17.6805C7.46213 17.8538 4.50429 21.933 3.96581 22.7481C1.33626 26.7286 -0.0348654 31.3654 0.000673714 36.1574C0.0482938 42.5573 2.56512 48.5533 7.0875 53.0411C11.6095 57.5286 17.6248 59.9999 24.0251 59.9999V56.4812C18.5596 56.4812 13.4246 54.3725 9.56609 50.5435Z" fill="#FDCB02"/>
</g>
</svg>
