<svg width="24" height="24" viewBox="0 0 24 24" fill="none" xmlns="http://www.w3.org/2000/svg">
<g id="tabler-icon-calendar-month">
<path id="Vector" d="M16.0007 3V7M8.00073 3V7M4.00073 11H20.0007M7.00073 14H7.01373M10.0107 14H10.0157M13.0107 14H13.0157M16.0157 14H16.0207M13.0157 17H13.0207M7.01074 17H7.01574M10.0107 17H10.0157M4.00073 7C4.00073 6.46957 4.21145 5.96086 4.58652 5.58579C4.96159 5.21071 5.4703 5 6.00073 5H18.0007C18.5312 5 19.0399 5.21071 19.4149 5.58579C19.79 5.96086 20.0007 6.46957 20.0007 7V19C20.0007 19.5304 19.79 20.0391 19.4149 20.4142C19.0399 20.7893 18.5312 21 18.0007 21H6.00073C5.4703 21 4.96159 20.7893 4.58652 20.4142C4.21145 20.0391 4.00073 19.5304 4.00073 19V7Z" stroke="#65758B" stroke-width="2" stroke-linecap="round" stroke-linejoin="round"/>
</g>
</svg>
