<svg width="40" height="40" viewBox="0 0 40 40" fill="none" xmlns="http://www.w3.org/2000/svg">
<g id="fi_2200326" clip-path="url(#clip0_160_3221)">
<path id="Vector" d="M21.1455 39.1245C31.5586 39.1245 40 30.6831 40 20.27C40 9.85698 31.5586 1.41553 21.1455 1.41553C10.7325 1.41553 2.29102 9.85698 2.29102 20.27C2.29102 30.6831 10.7325 39.1245 21.1455 39.1245Z" fill="url(#paint0_linear_160_3221)"/>
<path id="Vector_2" d="M34.4214 10.353C33.7744 9.87783 33.0884 9.44191 32.3695 9.04607C31.9736 8.32709 31.5377 7.64113 31.0625 6.99415C28.4233 3.40144 24.9013 1.42285 21.1454 1.42285C17.3895 1.42285 13.8676 3.40144 11.2284 6.99415C10.7531 7.64113 10.3173 8.32717 9.92143 9.04607C9.20245 9.44191 8.51649 9.87775 7.86951 10.353C4.27681 12.9923 2.29822 16.5141 2.29822 20.2701C2.29822 24.026 4.27681 27.5479 7.86951 30.1871C8.51649 30.6624 9.20253 31.0982 9.92143 31.4941C10.3173 32.213 10.7531 32.899 11.2284 33.546C13.8676 37.1387 17.3895 39.1173 21.1454 39.1173C24.9013 39.1173 28.4233 37.1387 31.0625 33.546C31.5377 32.899 31.9736 32.213 32.3695 31.494C33.0884 31.0981 33.7745 30.6623 34.4214 30.187C38.0141 27.5479 39.9926 24.0259 39.9926 20.27C39.9926 16.5141 38.0141 12.9923 34.4214 10.353ZM21.1454 38.2301C20.1104 38.2301 19.0133 36.6882 18.1459 34.0573C19.129 34.1729 20.131 34.2328 21.1454 34.2328C22.1599 34.2328 23.1619 34.1729 24.145 34.0573C23.2776 36.6883 22.1805 38.2301 21.1454 38.2301ZM21.1454 33.3456C20.024 33.3456 18.9266 33.2697 17.8615 33.1258C17.2705 31.0358 16.8413 28.5269 16.5957 25.7878C18.066 25.8929 19.5914 25.9471 21.1454 25.9471C22.6995 25.9471 24.2249 25.8929 25.6952 25.7878C25.4497 28.5269 25.0205 31.0357 24.4294 33.1258C23.3643 33.2697 22.2669 33.3456 21.1454 33.3456ZM21.1454 2.31015C22.1805 2.31015 23.2776 3.85203 24.145 6.48293C23.1619 6.36724 22.1599 6.30732 21.1454 6.30732C20.131 6.30732 19.129 6.36724 18.1459 6.48293C19.0133 3.85195 20.1104 2.31015 21.1454 2.31015ZM21.1454 7.19462C22.2669 7.19462 23.3643 7.27054 24.4294 7.41446C25.0205 9.5045 25.4497 12.0133 25.6952 14.7524C24.2249 14.6473 22.6995 14.5931 21.1454 14.5931C19.5914 14.5931 18.0661 14.6473 16.5957 14.7524C16.8412 12.0133 17.2704 9.5045 17.8615 7.41446C18.9266 7.27054 20.024 7.19462 21.1454 7.19462ZM16.3556 20.2701C16.3556 18.6881 16.4127 17.1378 16.5226 15.6472C18.0132 15.5373 19.5634 15.4803 21.1454 15.4803C22.7274 15.4803 24.2777 15.5373 25.7683 15.6472C25.8782 17.1378 25.9352 18.688 25.9352 20.2701C25.9352 21.8521 25.8782 23.4023 25.7683 24.8928C24.2777 25.0028 22.7274 25.0598 21.1454 25.0598C19.5635 25.0598 18.0132 25.0028 16.5226 24.8928C16.4127 23.4024 16.3556 21.8521 16.3556 20.2701ZM15.6277 24.8198C12.8886 24.5743 10.3797 24.1451 8.28975 23.554C8.1459 22.4889 8.0699 21.3915 8.0699 20.2701C8.0699 19.1487 8.14583 18.0512 8.28975 16.9861C10.3797 16.3951 12.8886 15.9659 15.6277 15.7203C15.5226 17.1906 15.4684 18.716 15.4684 20.2701C15.4684 21.8241 15.5225 23.3495 15.6277 24.8198ZM26.6632 15.7204C29.4024 15.9659 31.9112 16.3951 34.0012 16.9862C34.145 18.0513 34.221 19.1487 34.221 20.2701C34.221 21.3916 34.1451 22.489 34.0012 23.5541C31.9112 24.1452 29.4024 24.5743 26.6632 24.8199C26.7683 23.3496 26.8225 21.8242 26.8225 20.2701C26.8225 18.716 26.7683 17.1907 26.6632 15.7204ZM26.5921 14.8235C26.3585 12.1386 25.9512 9.66285 25.3905 7.56458C27.7043 7.97438 29.8439 8.71117 31.7117 9.70387C32.7044 11.5717 33.4412 13.7112 33.851 16.025C31.7527 15.4644 29.277 15.0571 26.5921 14.8235ZM15.6988 14.8235C13.0139 15.0571 10.5381 15.4644 8.43987 16.025C8.84967 13.7112 9.58645 11.5717 10.5792 9.70387C12.447 8.71117 14.5865 7.97438 16.9003 7.56458C16.3397 9.66285 15.9325 12.1386 15.6988 14.8235ZM7.35822 23.2696C4.72732 22.4022 3.18543 21.3051 3.18543 20.2701C3.18543 19.235 4.72724 18.1379 7.35822 17.2705C7.24261 18.2536 7.18261 19.2556 7.18261 20.2701C7.18261 21.2845 7.24261 22.2865 7.35822 23.2696ZM15.6988 25.7167C15.9324 28.4016 16.3397 30.8774 16.9003 32.9756C14.5865 32.5658 12.447 31.829 10.5792 30.8363C9.58645 28.9685 8.84967 26.829 8.43987 24.5152C10.5382 25.0758 13.014 25.4831 15.6988 25.7167ZM26.5921 25.7167C29.277 25.4831 31.7527 25.0758 33.851 24.5152C33.4412 26.829 32.7044 28.9685 31.7117 30.8363C29.8439 31.8291 27.7043 32.5658 25.3905 32.9756C25.9512 30.8774 26.3585 28.4015 26.5921 25.7167ZM34.9326 17.2706C37.5636 18.138 39.1054 19.235 39.1054 20.2701C39.1054 21.3052 37.5636 22.4023 34.9326 23.2697C35.0483 22.2866 35.1082 21.2846 35.1082 20.2701C35.1083 19.2556 35.0483 18.2537 34.9326 17.2706ZM38.8959 18.2719C38.0277 17.5316 36.6516 16.8661 34.7987 16.2967C34.476 14.2538 33.9049 12.3074 33.1054 10.5247C36.139 12.4999 38.2487 15.2125 38.8959 18.2719ZM30.891 8.31015C29.1083 7.51069 27.1618 6.93956 25.1188 6.61681C24.5494 4.76387 23.8839 3.38771 23.1436 2.51956C26.2031 3.16677 28.9156 5.2765 30.891 8.31015ZM19.1473 2.51964C18.407 3.38779 17.7415 4.76395 17.1721 6.61689C15.1291 6.93956 13.1827 7.51069 11.3999 8.31015C13.3752 5.2765 16.0878 3.16677 19.1473 2.51964ZM9.18543 10.5246C8.38606 12.3073 7.81485 14.2538 7.49218 16.2967C5.63924 16.8661 4.26308 17.5316 3.39492 18.2719C4.04206 15.2125 6.15186 12.5 9.18543 10.5246ZM3.39492 22.2683C4.26308 23.0086 5.63924 23.6741 7.49218 24.2435C7.81485 26.2865 8.38606 28.2329 9.18543 30.0156C6.15186 28.0403 4.04206 25.3277 3.39492 22.2683ZM11.3999 32.2301C13.1826 33.0295 15.129 33.6007 17.172 33.9233C17.7414 35.7763 18.4069 37.1524 19.1472 38.0206C16.0878 37.3734 13.3752 35.2636 11.3999 32.2301ZM23.1436 38.0206C23.8839 37.1524 24.5494 35.7763 25.1188 33.9233C27.1617 33.6007 29.1082 33.0294 30.8909 32.2301C28.9156 35.2636 26.2031 37.3734 23.1436 38.0206ZM33.1054 30.0156C33.9049 28.2329 34.476 26.2865 34.7987 24.2436C36.6516 23.6741 38.0278 23.0087 38.8959 22.2683C38.2487 25.3277 36.139 28.0403 33.1054 30.0156Z" fill="url(#paint1_linear_160_3221)"/>
<path id="Vector_3" d="M14.6608 2.56104C9.9402 4.29014 6.10412 7.85304 4.01432 12.3869C3.76663 12.9243 3.64404 13.5108 3.64404 14.1025C3.64404 15.2045 4.08185 16.2614 4.86106 17.0407L5.2464 17.426C6.9733 19.1529 9.31542 20.123 11.7576 20.123C12.1225 20.123 12.4182 19.8272 12.4182 19.4625C12.4182 19.0976 12.1225 18.8018 11.7576 18.8018H9.72694C8.7904 18.8018 8.0311 18.0426 8.0311 17.106C8.0311 16.1694 8.79032 15.4101 9.72694 15.4101H11.313C13.2148 15.4101 15.0387 14.6547 16.3834 13.3099L18.8323 10.861C19.3655 10.3278 20.0888 10.0282 20.8429 10.0282C21.9339 10.0282 22.9287 9.40402 23.4033 8.42167C23.9849 7.21775 23.1078 5.81986 21.7708 5.81986H18.6112C17.6822 5.81986 16.9291 5.06684 16.9291 4.13783C16.9291 2.96559 15.7617 2.15782 14.6608 2.56104Z" fill="url(#paint2_linear_160_3221)"/>
<path id="Vector_4" d="M39.5611 16.2078C39.3007 15.0222 38.2405 14.1836 37.0267 14.1836H34.3689H32.9481C30.5333 14.1836 28.5757 16.1412 28.5757 18.556V19.088C28.5757 21.209 30.2951 22.9285 32.4162 22.9285C33.4946 22.9285 34.3689 23.8027 34.3689 24.8812V29.9803C34.3689 31.3091 36.0942 31.8384 36.8326 30.7337C38.3672 28.438 39.4111 25.7861 39.8145 22.9285C39.9365 22.0604 40.0001 21.1724 40.0001 20.2703C40 18.8754 39.8484 17.5162 39.5611 16.2078Z" fill="url(#paint3_linear_160_3221)"/>
<path id="Vector_5" d="M29.5797 3.4043C30.8513 5.94226 31.5681 8.80649 31.5681 11.8385C31.5681 22.2515 23.1267 30.693 12.7136 30.693C9.68161 30.693 6.81738 29.9762 4.27942 28.7045C7.37511 34.8829 13.7644 39.1248 21.1455 39.1248C31.5585 39.1248 40 30.6834 40 20.2703C40 12.8893 35.758 6.49998 29.5797 3.4043Z" fill="url(#paint4_linear_160_3221)"/>
<path id="Vector_6" d="M30.6617 12.4794C29.7163 11.534 27.3664 12.3158 22.8927 16.4944L20.2783 16.1722L19.4338 15.3009C18.9824 14.8495 18.2506 14.8495 17.7992 15.3009C17.6913 15.4088 17.6104 15.533 17.5544 15.6654L16.882 14.9889C16.4306 14.5376 15.6989 14.5376 15.2475 14.9889C15.0965 15.1399 14.9973 15.3225 14.9472 15.5152L13.9361 15.3906C13.695 15.3609 13.4183 15.4711 13.2092 15.6803L11.4785 17.411C11.2959 17.5936 11.2967 17.8568 11.4803 17.9358L16.6887 23.0255C15.1702 24.7919 13.7829 26.5387 12.7177 28.044L10.1249 27.6921C10.0207 27.678 9.90042 27.7253 9.8096 27.8161L9.00191 28.6238C8.84599 28.7797 8.83203 29.0034 8.97266 29.0937L10.9199 30.9832C10.593 31.6983 10.5029 32.2049 10.7196 32.4216L16.9549 38.6569C18.3027 38.9628 19.705 39.125 21.1454 39.125C31.0574 39.125 39.1825 31.4764 39.9416 21.7594L30.6617 12.4794Z" fill="url(#paint5_linear_160_3221)"/>
<path id="Vector_7" d="M16.0647 16.9614C16.703 16.9614 17.2205 16.444 17.2205 15.8057C17.2205 15.1674 16.703 14.6499 16.0647 14.6499C15.4264 14.6499 14.9089 15.1674 14.9089 15.8057C14.9089 16.444 15.4264 16.9614 16.0647 16.9614Z" fill="url(#paint6_linear_160_3221)"/>
<path id="Vector_8" d="M16.0647 16.7706C16.5975 16.7706 17.0294 16.3387 17.0294 15.8059C17.0294 15.2732 16.5975 14.8413 16.0647 14.8413C15.532 14.8413 15.1001 15.2732 15.1001 15.8059C15.1001 16.3387 15.532 16.7706 16.0647 16.7706Z" fill="url(#paint7_linear_160_3221)"/>
<path id="Vector_9" d="M17.1614 15.4404C17.1065 15.6055 17.0134 15.7607 16.882 15.8922C16.4306 16.3436 15.6989 16.3436 15.2475 15.8922C15.1161 15.7607 15.023 15.6055 14.9681 15.4404C14.8345 15.8424 14.9276 16.3033 15.2475 16.6232C15.6989 17.0745 16.4306 17.0745 16.882 16.6232C17.2019 16.3033 17.295 15.8425 17.1614 15.4404Z" fill="url(#paint8_linear_160_3221)"/>
<path id="Vector_10" d="M16.0647 16.9614C16.703 16.9614 17.2205 16.444 17.2205 15.8057C17.2205 15.1674 16.703 14.6499 16.0647 14.6499C15.4264 14.6499 14.9089 15.1674 14.9089 15.8057C14.9089 16.444 15.4264 16.9614 16.0647 16.9614Z" fill="url(#paint9_linear_160_3221)"/>
<path id="Vector_11" d="M19.4337 16.935C18.9824 17.3863 18.2506 17.3863 17.7992 16.935C17.3479 16.4836 17.3479 15.7518 17.7992 15.3004C18.2506 14.8491 18.9824 14.8491 19.4337 15.3004C19.885 15.7518 19.885 16.4837 19.4337 16.935Z" fill="url(#paint10_linear_160_3221)"/>
<path id="Vector_12" d="M18.6165 17.0826C19.1492 17.0826 19.5811 16.6507 19.5811 16.1179C19.5811 15.5852 19.1492 15.1533 18.6165 15.1533C18.0837 15.1533 17.6519 15.5852 17.6519 16.1179C17.6519 16.6507 18.0837 17.0826 18.6165 17.0826Z" fill="url(#paint11_linear_160_3221)"/>
<path id="Vector_13" d="M19.7131 15.7524C19.6582 15.9175 19.5651 16.0728 19.4338 16.2042C18.9824 16.6556 18.2506 16.6556 17.7993 16.2042C17.6678 16.0728 17.5748 15.9175 17.5199 15.7524C17.3862 16.1544 17.4793 16.6153 17.7993 16.9352C18.2506 17.3866 18.9824 17.3866 19.4338 16.9352C19.7537 16.6152 19.8468 16.1544 19.7131 15.7524Z" fill="url(#paint12_linear_160_3221)"/>
<path id="Vector_14" d="M19.4337 16.935C18.9824 17.3863 18.2506 17.3863 17.7992 16.935C17.3479 16.4836 17.3479 15.7518 17.7992 15.3004C18.2506 14.8491 18.9824 14.8491 19.4337 15.3004C19.885 15.7518 19.885 16.4837 19.4337 16.935Z" fill="url(#paint13_linear_160_3221)"/>
<path id="Vector_15" d="M27.335 28.2319C27.9733 28.2319 28.4907 27.7145 28.4907 27.0762C28.4907 26.4379 27.9733 25.9204 27.335 25.9204C26.6967 25.9204 26.1792 26.4379 26.1792 27.0762C26.1792 27.7145 26.6967 28.2319 27.335 28.2319Z" fill="url(#paint14_linear_160_3221)"/>
<path id="Vector_16" d="M27.3349 28.0406C27.8676 28.0406 28.2995 27.6087 28.2995 27.076C28.2995 26.5432 27.8676 26.1113 27.3349 26.1113C26.8021 26.1113 26.3702 26.5432 26.3702 27.076C26.3702 27.6087 26.8021 28.0406 27.3349 28.0406Z" fill="url(#paint15_linear_160_3221)"/>
<path id="Vector_17" d="M27.7004 25.9795C27.5353 26.0344 27.38 26.1275 27.2486 26.2588C26.7972 26.7102 26.7972 27.442 27.2486 27.8933C27.38 28.0248 27.5353 28.1178 27.7004 28.1727C27.2984 28.3064 26.8375 28.2133 26.5176 27.8933C26.0662 27.442 26.0662 26.7102 26.5176 26.2588C26.8375 25.9389 27.2983 25.8459 27.7004 25.9795Z" fill="url(#paint16_linear_160_3221)"/>
<path id="Vector_18" d="M27.335 28.2319C27.9733 28.2319 28.4907 27.7145 28.4907 27.0762C28.4907 26.4379 27.9733 25.9204 27.335 25.9204C26.6967 25.9204 26.1792 26.4379 26.1792 27.0762C26.1792 27.7145 26.6967 28.2319 27.335 28.2319Z" fill="url(#paint17_linear_160_3221)"/>
<path id="Vector_19" d="M26.2057 23.7072C25.7543 24.1586 25.7543 24.8903 26.2057 25.3417C26.6571 25.7931 27.3889 25.7931 27.8402 25.3417C28.2916 24.8903 28.2916 24.1586 27.8402 23.7072C27.3889 23.2558 26.6571 23.2558 26.2057 23.7072Z" fill="url(#paint18_linear_160_3221)"/>
<path id="Vector_20" d="M27.023 25.4888C27.5557 25.4888 27.9876 25.0569 27.9876 24.5242C27.9876 23.9914 27.5557 23.5596 27.023 23.5596C26.4902 23.5596 26.0583 23.9914 26.0583 24.5242C26.0583 25.0569 26.4902 25.4888 27.023 25.4888Z" fill="url(#paint19_linear_160_3221)"/>
<path id="Vector_21" d="M27.3885 23.4277C27.2234 23.4826 27.0681 23.5757 26.9367 23.7071C26.4853 24.1584 26.4853 24.8902 26.9367 25.3416C27.0681 25.473 27.2234 25.566 27.3885 25.6209C26.9865 25.7546 26.5256 25.6615 26.2057 25.3416C25.7543 24.8902 25.7543 24.1584 26.2057 23.7071C26.5256 23.3871 26.9864 23.2941 27.3885 23.4277Z" fill="url(#paint20_linear_160_3221)"/>
<path id="Vector_22" d="M26.2057 23.7072C25.7543 24.1586 25.7543 24.8903 26.2057 25.3417C26.6571 25.7931 27.3889 25.7931 27.8402 25.3417C28.2916 24.8903 28.2916 24.1586 27.8402 23.7072C27.3889 23.2558 26.6571 23.2558 26.2057 23.7072Z" fill="url(#paint21_linear_160_3221)"/>
<path id="Vector_23" d="M8.97263 29.0935L11.45 30.6852L13.9272 28.2079L10.1249 27.6919C10.0207 27.6778 9.90039 27.7251 9.80957 27.8159L9.00188 28.6236C8.84596 28.7795 8.83208 29.0031 8.97263 29.0935Z" fill="url(#paint22_linear_160_3221)"/>
<path id="Vector_24" d="M9.24348 28.3818L9.00191 28.6234C8.84599 28.7793 8.83203 29.003 8.97266 29.0934L11.45 30.685L13.3611 28.7739L9.55877 28.2578C9.45462 28.2437 9.3343 28.2911 9.24348 28.3818Z" fill="url(#paint23_linear_160_3221)"/>
<path id="Vector_25" d="M14.0474 34.168L12.4557 31.6906L14.9329 29.2134L15.4489 33.0157C15.4631 33.1199 15.4158 33.2403 15.325 33.331L14.5173 34.1387C14.3613 34.2946 14.1377 34.3085 14.0474 34.168Z" fill="url(#paint24_linear_160_3221)"/>
<path id="Vector_26" d="M14.7589 33.8974L14.5173 34.139C14.3614 34.2949 14.1377 34.3089 14.0474 34.1683L12.4557 31.6909L14.3668 29.7798L14.8828 33.5821C14.897 33.6863 14.8496 33.8067 14.7589 33.8974Z" fill="url(#paint25_linear_160_3221)"/>
<path id="Vector_27" d="M11.4804 17.9357L19.3637 21.3332L24.0589 16.638L13.9361 15.3905C13.695 15.3608 13.4183 15.4711 13.2092 15.6803L11.4786 17.4109C11.296 17.5934 11.2968 17.8566 11.4804 17.9357Z" fill="url(#paint26_linear_160_3221)"/>
<path id="Vector_28" d="M12.0937 16.7954L11.4785 17.4106C11.2958 17.5933 11.2967 17.8565 11.4803 17.9355L19.3636 21.333L22.9434 17.7532L12.8206 16.5058C12.5795 16.476 12.3029 16.5863 12.0937 16.7954Z" fill="url(#paint27_linear_160_3221)"/>
<path id="Vector_29" d="M16.599 16.9714L12.8206 16.5058C12.5795 16.476 12.3029 16.5863 12.0937 16.7955L11.4785 17.4107C11.2958 17.5934 11.2967 17.8565 11.4803 17.9356L14.3836 19.1868L16.599 16.9714Z" fill="url(#paint28_linear_160_3221)"/>
<path id="Vector_30" d="M11.4804 17.9357L19.3636 21.3332L20.9782 19.7186L12.2386 16.6509L11.4786 17.4109C11.296 17.5935 11.2968 17.8566 11.4804 17.9357Z" fill="url(#paint29_linear_160_3221)"/>
<path id="Vector_31" d="M25.2052 31.6605L21.8077 23.7772L26.503 19.082L27.7504 29.2048C27.7801 29.4459 27.6699 29.7226 27.4607 29.9317L25.7301 31.6623C25.5474 31.8449 25.2843 31.8441 25.2052 31.6605Z" fill="url(#paint30_linear_160_3221)"/>
<path id="Vector_32" d="M26.3452 31.0469L25.73 31.6621C25.5473 31.8448 25.2842 31.8439 25.2052 31.6603L21.8077 23.777L25.3875 20.1973L26.635 30.32C26.6647 30.5611 26.5544 30.8377 26.3452 31.0469Z" fill="url(#paint31_linear_160_3221)"/>
<path id="Vector_33" d="M26.1694 26.542L26.635 30.3203C26.6647 30.5614 26.5545 30.8381 26.3453 31.0472L25.7301 31.6625C25.5474 31.8451 25.2843 31.8443 25.2052 31.6607L23.954 28.7574L26.1694 26.542Z" fill="url(#paint32_linear_160_3221)"/>
<path id="Vector_34" d="M25.2052 31.6605L21.8077 23.7772L23.4223 22.1626L26.49 30.9023L25.73 31.6623C25.5474 31.8449 25.2843 31.844 25.2052 31.6605Z" fill="url(#paint33_linear_160_3221)"/>
<path id="Vector_35" d="M25.1238 21.8211C19.617 27.3279 11.77 33.4716 10.7195 32.4211C9.66898 31.3706 15.8127 23.5237 21.3195 18.0168C26.8263 12.51 29.611 11.4285 30.6615 12.479C31.7121 13.5296 30.6307 16.3143 25.1238 21.8211Z" fill="url(#paint34_linear_160_3221)"/>
<path id="Vector_36" d="M24.7158 21.6604C19.4778 26.8984 12.0999 32.8279 11.2065 31.9345C10.3132 31.041 16.2427 23.6632 21.4806 18.4252C26.7185 13.1872 29.2814 12.0728 30.1748 12.9661C31.0682 13.8596 29.9537 16.4225 24.7158 21.6604Z" fill="url(#paint35_linear_160_3221)"/>
<path id="Vector_37" d="M25.1238 21.821C30.6306 16.3141 31.7121 13.5295 30.6616 12.479L10.7195 32.4211C11.7701 33.4716 19.617 27.3279 25.1238 21.821Z" fill="url(#paint36_linear_160_3221)"/>
<path id="Vector_38" d="M25.9712 14.5218C25.634 14.8154 25.2801 15.1316 24.909 15.4713C24.8141 15.5582 24.8227 15.693 24.9254 15.7115C25.5603 15.8259 26.1334 16.104 26.5851 16.5557C27.0368 17.0074 27.3149 17.5806 27.4293 18.2154C27.4478 18.3181 27.5826 18.3267 27.6695 18.2318C28.0092 17.8607 28.3254 17.5068 28.619 17.1696C28.8188 16.94 28.905 16.6512 28.8403 16.4181C28.6988 15.9089 28.4427 15.4493 28.0671 15.0737C27.6914 14.698 27.2319 14.442 26.7227 14.3005C26.4896 14.2358 26.2008 14.3219 25.9712 14.5218Z" fill="url(#paint37_linear_160_3221)"/>
<path id="Vector_39" d="M28.6188 17.1697C28.3608 17.4669 28.0847 17.7767 27.7906 18.0999C27.7506 18.1438 27.7106 18.1877 27.6698 18.2324C27.5828 18.3273 27.4479 18.3187 27.429 18.2159C27.3153 17.5806 27.0369 17.0073 26.5851 16.5555C26.5585 16.5289 26.5318 16.503 26.5043 16.4787C26.1836 16.1814 25.8071 15.9665 25.3945 15.83C25.7655 15.492 26.1177 15.1767 26.4541 14.8842C26.6839 14.6842 26.9726 14.5979 27.2055 14.663C27.4824 14.7399 27.7443 14.8504 27.9867 14.9963C28.0141 15.0214 28.0408 15.0473 28.0675 15.074C28.4432 15.4497 28.6988 15.9093 28.84 16.4183C28.9051 16.6512 28.8188 16.9399 28.6188 17.1697Z" fill="url(#paint38_linear_160_3221)"/>
<path id="Vector_40" d="M27.4294 18.2155C27.4479 18.3181 27.5827 18.3268 27.6696 18.2318C28.0093 17.8607 28.3254 17.5068 28.6191 17.1696C28.8189 16.94 28.905 16.6512 28.8403 16.4181C28.6989 15.9089 28.4428 15.4493 28.0672 15.0737L26.5852 16.5557C27.0369 17.0074 27.315 17.5806 27.4294 18.2155Z" fill="url(#paint39_linear_160_3221)"/>
<path id="Vector_41" d="M12.5702 30.7364L12.4045 30.5707C12.2659 30.4321 12.3134 30.1657 12.5079 29.9916L15.3702 27.4293C15.496 27.3167 15.6626 27.2989 15.7523 27.3887C15.8419 27.4783 15.8242 27.645 15.7116 27.7707L13.1492 30.6331C12.9752 30.8274 12.7088 30.875 12.5702 30.7364Z" fill="url(#paint40_linear_160_3221)"/>
<path id="Vector_42" d="M2.5062 36.5926C2.34165 36.5926 2.18329 36.5826 2.03231 36.5627C1.82 36.5347 1.68086 36.3264 1.73812 36.12L1.89514 35.5533C1.94047 35.3898 2.09592 35.2812 2.26478 35.2978C2.58196 35.3288 2.97537 35.2946 3.42737 35.1957C3.61012 35.1557 3.79239 35.2666 3.84102 35.4472L3.99231 36.0091C4.04463 36.2034 3.92267 36.4004 3.72612 36.444C3.28212 36.5427 2.87302 36.5926 2.5062 36.5926ZM5.32063 35.5592L5.10298 35.0204C5.03145 34.8432 5.11435 34.6422 5.2898 34.5667C5.68431 34.3969 6.10196 34.1984 6.53757 33.9738C6.70808 33.8858 6.91804 33.9509 7.00832 34.1203L7.28173 34.633C7.37396 34.8059 7.30628 35.0211 7.13208 35.111C6.66298 35.3531 6.21169 35.5673 5.78384 35.7511C5.60322 35.8287 5.39435 35.7417 5.32063 35.5592ZM0.565961 35.1098C0.367137 35.194 0.13851 35.0811 0.0876079 34.8713C0.0294118 34.6309 0 34.3684 0 34.0864C0 33.7898 0.032549 33.4651 0.0970981 33.1178C0.133882 32.9197 0.328314 32.7917 0.524314 32.8383L1.09027 32.9729C1.27106 33.0159 1.38761 33.193 1.35435 33.3758C1.30714 33.6359 1.28329 33.8738 1.28329 34.0862C1.28329 34.234 1.29482 34.3687 1.31749 34.4895C1.34816 34.6524 1.2629 34.8144 1.1102 34.8791L0.565961 35.1098ZM8.48612 33.9549L8.18996 33.455C8.092 33.2896 8.14479 33.0762 8.30918 32.9766C8.69694 32.7417 9.09663 32.4896 9.50329 32.2235C9.66439 32.1181 9.88055 32.1629 9.98722 32.3231L10.3091 32.8069C10.4173 32.9695 10.3716 33.1889 10.2082 33.2959C9.78714 33.5714 9.37286 33.8327 8.97059 34.0763C8.8033 34.1776 8.5858 34.1233 8.48612 33.9549ZM11.9371 32.1116C11.7783 32.225 11.5576 32.1882 11.4452 32.0287L11.9371 32.1116ZM1.48737 31.7057L0.94502 31.497C0.761177 31.4262 0.670588 31.2185 0.745647 31.0364C0.922902 30.6063 1.13216 30.1514 1.37075 29.6775C1.4589 29.5024 1.67365 29.4325 1.84753 29.5233L2.36275 29.792C2.53278 29.8807 2.59984 30.0898 2.51365 30.2611C2.29333 30.6989 2.10055 31.1176 1.93757 31.5119C1.86471 31.6883 1.66541 31.7742 1.48737 31.7057ZM3.01804 28.606L2.51608 28.3134C2.34729 28.215 2.29098 27.9981 2.39098 27.8303C2.3942 27.825 2.39741 27.8196 2.40055 27.8142C2.50063 27.6465 2.71867 27.5924 2.88533 27.6942L3.38133 27.9968C3.54573 28.0971 3.59835 28.3113 3.49961 28.4767C3.49843 28.4788 3.49718 28.4807 3.496 28.4828C3.39741 28.6481 3.18439 28.7029 3.01804 28.606ZM31.2577 12.1715L30.7817 11.8383C30.6238 11.7278 30.5843 11.5105 30.6937 11.3519C30.9688 10.9532 31.2322 10.5593 31.4806 10.1753C31.5851 10.0136 31.8004 9.96718 31.9629 10.0703L32.4534 10.3818C32.6183 10.4865 32.666 10.7052 32.5599 10.8692C32.3037 11.2655 32.0322 11.6716 31.7487 12.0824C31.6379 12.2431 31.4177 12.2834 31.2577 12.1715ZM33.1722 9.20404L32.6707 8.91055C32.5049 8.81353 32.4478 8.60074 32.5431 8.43392C32.7853 8.00929 33.0069 7.59753 33.2051 7.20372C33.2912 7.03259 33.4983 6.96278 33.6708 7.04616L34.194 7.29902C34.3708 7.38443 34.4435 7.59745 34.3554 7.77282C34.1455 8.19023 33.9112 8.62584 33.6554 9.07408C33.5582 9.24404 33.3411 9.30286 33.1722 9.20404ZM34.7512 6.02412L34.2098 5.81321C34.032 5.74396 33.9433 5.54537 34.0076 5.36576C34.1722 4.90608 34.29 4.48592 34.3595 4.11031C34.3931 3.92914 34.5617 3.80608 34.7448 3.82741L35.323 3.89502C35.5237 3.91847 35.6641 4.10584 35.6284 4.30467C35.5459 4.76412 35.4057 5.27 35.2095 5.81596C35.1427 6.00169 34.935 6.09572 34.7512 6.02412ZM29.9696 2.72412L29.7291 2.19494C29.6479 2.01627 29.729 1.8049 29.9093 1.72717C30.4155 1.50898 30.8937 1.33149 31.3374 1.19674C31.5287 1.1387 31.7298 1.25008 31.7806 1.44349L31.928 2.00592C31.9756 2.18765 31.8723 2.3751 31.6926 2.43C31.3031 2.54898 30.88 2.70655 30.4286 2.90074C30.2529 2.97627 30.0486 2.89816 29.9696 2.72412ZM34.6167 2.63423C34.4736 2.68929 34.3082 2.64749 34.2159 2.52498C34.1947 2.49667 34.1717 2.47023 34.147 2.44553C33.9572 2.2558 33.6436 2.15933 33.2148 2.1587H33.2027V0.875488V1.51714L33.2035 1.24357C33.204 1.03698 33.3824 0.873371 33.588 0.894312C34.1976 0.956429 34.6884 1.17227 35.0544 1.53808C35.1659 1.64953 35.264 1.77392 35.3482 1.91C35.4631 2.09604 35.3775 2.34145 35.1734 2.41996L34.6167 2.63423Z" fill="url(#paint41_linear_160_3221)"/>
<path id="Vector_43" d="M12.9839 7.26231C13.5892 7.26231 14.0799 6.77162 14.0799 6.16631C14.0799 5.56101 13.5892 5.07031 12.9839 5.07031C12.3786 5.07031 11.8879 5.56101 11.8879 6.16631C11.8879 6.77162 12.3786 7.26231 12.9839 7.26231Z" fill="url(#paint42_linear_160_3221)"/>
<path id="Vector_44" d="M7.14471 15.3751C7.75001 15.3751 8.24071 14.8844 8.24071 14.2791C8.24071 13.6738 7.75001 13.1831 7.14471 13.1831C6.5394 13.1831 6.04871 13.6738 6.04871 14.2791C6.04871 14.8844 6.5394 15.3751 7.14471 15.3751Z" fill="url(#paint43_linear_160_3221)"/>
<path id="Vector_45" d="M37.0287 18.1783C37.634 18.1783 38.1247 17.6876 38.1247 17.0823C38.1247 16.477 37.634 15.9863 37.0287 15.9863C36.4234 15.9863 35.9327 16.477 35.9327 17.0823C35.9327 17.6876 36.4234 18.1783 37.0287 18.1783Z" fill="url(#paint44_linear_160_3221)"/>
</g>
<defs>
<linearGradient id="paint0_linear_160_3221" x1="12.0151" y1="11.1397" x2="34.8673" y2="33.9918" gradientUnits="userSpaceOnUse">
<stop stop-color="#00AEFC"/>
<stop offset="1" stop-color="#3F3CEE"/>
</linearGradient>
<linearGradient id="paint1_linear_160_3221" x1="24.0272" y1="41.0282" x2="17.2428" y2="-7.84146" gradientUnits="userSpaceOnUse">
<stop stop-color="#00AEFC" stop-opacity="0"/>
<stop offset="1" stop-color="#18CFFC"/>
</linearGradient>
<linearGradient id="paint2_linear_160_3221" x1="15.2224" y1="12.7126" x2="44.9294" y2="33.7911" gradientUnits="userSpaceOnUse">
<stop stop-color="#E5F3FF"/>
<stop offset="1" stop-color="#B3CCFF"/>
</linearGradient>
<linearGradient id="paint3_linear_160_3221" x1="31.4388" y1="21.8786" x2="44.7515" y2="24.2206" gradientUnits="userSpaceOnUse">
<stop stop-color="#E5F3FF"/>
<stop offset="1" stop-color="#B3CCFF"/>
</linearGradient>
<linearGradient id="paint4_linear_160_3221" x1="27.371" y1="16.5438" x2="41.2299" y2="-10.5322" gradientUnits="userSpaceOnUse">
<stop stop-color="#3F3CEE" stop-opacity="0"/>
<stop offset="1" stop-color="#2F43BC"/>
</linearGradient>
<linearGradient id="paint5_linear_160_3221" x1="29.3672" y1="31.127" x2="19.7716" y2="21.5314" gradientUnits="userSpaceOnUse">
<stop stop-color="#3F3CEE" stop-opacity="0"/>
<stop offset="1" stop-color="#2F43BC"/>
</linearGradient>
<linearGradient id="paint6_linear_160_3221" x1="16.0771" y1="15.1841" x2="16.0771" y2="17.3008" gradientUnits="userSpaceOnUse">
<stop stop-color="#F9F7FC"/>
<stop offset="1" stop-color="#F0DDFC"/>
</linearGradient>
<linearGradient id="paint7_linear_160_3221" x1="16.0772" y1="16.3299" x2="16.0772" y2="14.8509" gradientUnits="userSpaceOnUse">
<stop stop-color="#E9EDF5" stop-opacity="0"/>
<stop offset="1" stop-color="white"/>
</linearGradient>
<linearGradient id="paint8_linear_160_3221" x1="15.7924" y1="16.1374" x2="19.0046" y2="15.1716" gradientUnits="userSpaceOnUse">
<stop stop-color="#F0DDFC" stop-opacity="0"/>
<stop offset="0.2889" stop-color="#C8B7E0" stop-opacity="0.289"/>
<stop offset="0.5915" stop-color="#A595C8" stop-opacity="0.592"/>
<stop offset="0.8395" stop-color="#8F81B8" stop-opacity="0.84"/>
<stop offset="1" stop-color="#8779B3"/>
</linearGradient>
<linearGradient id="paint9_linear_160_3221" x1="16.1817" y1="15.2111" x2="15.9924" y2="16.2697" gradientUnits="userSpaceOnUse">
<stop stop-color="#F0DDFC" stop-opacity="0"/>
<stop offset="0.2889" stop-color="#C8B7E0" stop-opacity="0.289"/>
<stop offset="0.5915" stop-color="#A595C8" stop-opacity="0.592"/>
<stop offset="0.8395" stop-color="#8F81B8" stop-opacity="0.84"/>
<stop offset="1" stop-color="#8779B3"/>
</linearGradient>
<linearGradient id="paint10_linear_160_3221" x1="18.6286" y1="15.4962" x2="18.6285" y2="17.6128" gradientUnits="userSpaceOnUse">
<stop stop-color="#F9F7FC"/>
<stop offset="1" stop-color="#F0DDFC"/>
</linearGradient>
<linearGradient id="paint11_linear_160_3221" x1="18.6286" y1="16.6417" x2="18.6285" y2="15.1628" gradientUnits="userSpaceOnUse">
<stop stop-color="#E9EDF5" stop-opacity="0"/>
<stop offset="1" stop-color="white"/>
</linearGradient>
<linearGradient id="paint12_linear_160_3221" x1="18.3438" y1="16.4493" x2="21.556" y2="15.4836" gradientUnits="userSpaceOnUse">
<stop stop-color="#F0DDFC" stop-opacity="0"/>
<stop offset="0.2889" stop-color="#C8B7E0" stop-opacity="0.289"/>
<stop offset="0.5915" stop-color="#A595C8" stop-opacity="0.592"/>
<stop offset="0.8395" stop-color="#8F81B8" stop-opacity="0.84"/>
<stop offset="1" stop-color="#8779B3"/>
</linearGradient>
<linearGradient id="paint13_linear_160_3221" x1="18.7331" y1="15.5231" x2="18.5437" y2="16.5817" gradientUnits="userSpaceOnUse">
<stop stop-color="#F0DDFC" stop-opacity="0"/>
<stop offset="0.2889" stop-color="#C8B7E0" stop-opacity="0.289"/>
<stop offset="0.5915" stop-color="#A595C8" stop-opacity="0.592"/>
<stop offset="0.8395" stop-color="#8F81B8" stop-opacity="0.84"/>
<stop offset="1" stop-color="#8779B3"/>
</linearGradient>
<linearGradient id="paint14_linear_160_3221" x1="27.9591" y1="27.0663" x2="25.8425" y2="27.0664" gradientUnits="userSpaceOnUse">
<stop stop-color="#F9F7FC"/>
<stop offset="1" stop-color="#F0DDFC"/>
</linearGradient>
<linearGradient id="paint15_linear_160_3221" x1="26.8136" y1="27.0661" x2="28.2926" y2="27.0661" gradientUnits="userSpaceOnUse">
<stop stop-color="#E9EDF5" stop-opacity="0"/>
<stop offset="1" stop-color="white"/>
</linearGradient>
<linearGradient id="paint16_linear_160_3221" x1="27.006" y1="27.3511" x2="27.9718" y2="24.1389" gradientUnits="userSpaceOnUse">
<stop stop-color="#F0DDFC" stop-opacity="0"/>
<stop offset="0.2889" stop-color="#C8B7E0" stop-opacity="0.289"/>
<stop offset="0.5915" stop-color="#A595C8" stop-opacity="0.592"/>
<stop offset="0.8395" stop-color="#8F81B8" stop-opacity="0.84"/>
<stop offset="1" stop-color="#8779B3"/>
</linearGradient>
<linearGradient id="paint17_linear_160_3221" x1="27.9322" y1="26.9618" x2="26.8737" y2="27.1511" gradientUnits="userSpaceOnUse">
<stop stop-color="#F0DDFC" stop-opacity="0"/>
<stop offset="0.2889" stop-color="#C8B7E0" stop-opacity="0.289"/>
<stop offset="0.5915" stop-color="#A595C8" stop-opacity="0.592"/>
<stop offset="0.8395" stop-color="#8F81B8" stop-opacity="0.84"/>
<stop offset="1" stop-color="#8779B3"/>
</linearGradient>
<linearGradient id="paint18_linear_160_3221" x1="27.6472" y1="24.515" x2="25.5305" y2="24.515" gradientUnits="userSpaceOnUse">
<stop stop-color="#F9F7FC"/>
<stop offset="1" stop-color="#F0DDFC"/>
</linearGradient>
<linearGradient id="paint19_linear_160_3221" x1="26.5018" y1="24.5147" x2="27.9807" y2="24.5148" gradientUnits="userSpaceOnUse">
<stop stop-color="#E9EDF5" stop-opacity="0"/>
<stop offset="1" stop-color="white"/>
</linearGradient>
<linearGradient id="paint20_linear_160_3221" x1="26.6942" y1="24.7997" x2="27.66" y2="21.5876" gradientUnits="userSpaceOnUse">
<stop stop-color="#F0DDFC" stop-opacity="0"/>
<stop offset="0.2889" stop-color="#C8B7E0" stop-opacity="0.289"/>
<stop offset="0.5915" stop-color="#A595C8" stop-opacity="0.592"/>
<stop offset="0.8395" stop-color="#8F81B8" stop-opacity="0.84"/>
<stop offset="1" stop-color="#8779B3"/>
</linearGradient>
<linearGradient id="paint21_linear_160_3221" x1="27.6203" y1="24.4104" x2="26.5616" y2="24.5997" gradientUnits="userSpaceOnUse">
<stop stop-color="#F0DDFC" stop-opacity="0"/>
<stop offset="0.2889" stop-color="#C8B7E0" stop-opacity="0.289"/>
<stop offset="0.5915" stop-color="#A595C8" stop-opacity="0.592"/>
<stop offset="0.8395" stop-color="#8F81B8" stop-opacity="0.84"/>
<stop offset="1" stop-color="#8779B3"/>
</linearGradient>
<linearGradient id="paint22_linear_160_3221" x1="11.4432" y1="28.3395" x2="11.1718" y2="30.154" gradientUnits="userSpaceOnUse">
<stop stop-color="#FFDA45"/>
<stop offset="0.3043" stop-color="#FFCE3E"/>
<stop offset="0.8558" stop-color="#FFAE2B"/>
<stop offset="1" stop-color="#FFA425"/>
</linearGradient>
<linearGradient id="paint23_linear_160_3221" x1="10.8182" y1="29.0713" x2="13.5115" y2="26.3198" gradientUnits="userSpaceOnUse">
<stop stop-color="#FFDA45" stop-opacity="0"/>
<stop offset="1" stop-color="#B53759"/>
</linearGradient>
<linearGradient id="paint24_linear_160_3221" x1="14.8053" y1="31.7013" x2="12.9909" y2="31.9728" gradientUnits="userSpaceOnUse">
<stop stop-color="#FFDA45"/>
<stop offset="0.3043" stop-color="#FFCE3E"/>
<stop offset="0.8558" stop-color="#FFAE2B"/>
<stop offset="1" stop-color="#FFA425"/>
</linearGradient>
<linearGradient id="paint25_linear_160_3221" x1="14.0734" y1="32.3266" x2="16.8249" y2="29.6333" gradientUnits="userSpaceOnUse">
<stop stop-color="#FFDA45" stop-opacity="0"/>
<stop offset="1" stop-color="#B53759"/>
</linearGradient>
<linearGradient id="paint26_linear_160_3221" x1="18.1194" y1="16.4333" x2="15.3037" y2="21.1398" gradientUnits="userSpaceOnUse">
<stop stop-color="#FFDA45"/>
<stop offset="0.3043" stop-color="#FFCE3E"/>
<stop offset="0.8558" stop-color="#FFAE2B"/>
<stop offset="1" stop-color="#FFA425"/>
</linearGradient>
<linearGradient id="paint27_linear_160_3221" x1="15.9206" y1="19.5041" x2="21.7089" y2="10.8779" gradientUnits="userSpaceOnUse">
<stop stop-color="#FFDA45" stop-opacity="0"/>
<stop offset="1" stop-color="#B53759"/>
</linearGradient>
<linearGradient id="paint28_linear_160_3221" x1="14.486" y1="18.0086" x2="17.283" y2="21.5164" gradientUnits="userSpaceOnUse">
<stop stop-color="#F0DDFC" stop-opacity="0"/>
<stop offset="0.2889" stop-color="#C8B7E0" stop-opacity="0.289"/>
<stop offset="0.5915" stop-color="#A595C8" stop-opacity="0.592"/>
<stop offset="0.8395" stop-color="#8F81B8" stop-opacity="0.84"/>
<stop offset="1" stop-color="#8779B3"/>
</linearGradient>
<linearGradient id="paint29_linear_160_3221" x1="16.0479" y1="18.8898" x2="14.8786" y2="21.0613" gradientUnits="userSpaceOnUse">
<stop stop-color="#FFDA45" stop-opacity="0"/>
<stop offset="1" stop-color="#B53759"/>
</linearGradient>
<linearGradient id="paint30_linear_160_3221" x1="26.7102" y1="25.0242" x2="22.0037" y2="27.8399" gradientUnits="userSpaceOnUse">
<stop stop-color="#FFDA45"/>
<stop offset="0.3043" stop-color="#FFCE3E"/>
<stop offset="0.8558" stop-color="#FFAE2B"/>
<stop offset="1" stop-color="#FFA425"/>
</linearGradient>
<linearGradient id="paint31_linear_160_3221" x1="24.2052" y1="26.8429" x2="32.8315" y2="21.0547" gradientUnits="userSpaceOnUse">
<stop stop-color="#FFDA45" stop-opacity="0"/>
<stop offset="1" stop-color="#B53759"/>
</linearGradient>
<linearGradient id="paint32_linear_160_3221" x1="25.4638" y1="28.92" x2="21.9561" y2="26.1231" gradientUnits="userSpaceOnUse">
<stop stop-color="#FFDA45" stop-opacity="0"/>
<stop offset="1" stop-color="#B53759"/>
</linearGradient>
<linearGradient id="paint33_linear_160_3221" x1="24.2537" y1="27.0956" x2="22.0823" y2="28.2649" gradientUnits="userSpaceOnUse">
<stop stop-color="#FFDA45" stop-opacity="0"/>
<stop offset="1" stop-color="#B53759"/>
</linearGradient>
<linearGradient id="paint34_linear_160_3221" x1="19.9206" y1="21.6823" x2="22.3011" y2="24.0628" gradientUnits="userSpaceOnUse">
<stop stop-color="#E5F3FF"/>
<stop offset="1" stop-color="#B3CCFF"/>
</linearGradient>
<linearGradient id="paint35_linear_160_3221" x1="21.5702" y1="23.2367" x2="18.183" y2="20.2124" gradientUnits="userSpaceOnUse">
<stop stop-color="#E5F3FF" stop-opacity="0"/>
<stop offset="1" stop-color="white"/>
</linearGradient>
<linearGradient id="paint36_linear_160_3221" x1="20.5213" y1="25.5128" x2="25.7922" y2="-11.281" gradientUnits="userSpaceOnUse">
<stop stop-color="#B3CCFF" stop-opacity="0"/>
<stop offset="1" stop-color="#9FB0CB"/>
</linearGradient>
<linearGradient id="paint37_linear_160_3221" x1="26.1646" y1="14.8099" x2="28.2376" y2="18.0675" gradientUnits="userSpaceOnUse">
<stop stop-color="#8B788A"/>
<stop offset="1" stop-color="#6E566E"/>
</linearGradient>
<linearGradient id="paint38_linear_160_3221" x1="27.2109" y1="16.4482" x2="26.6619" y2="14.5462" gradientUnits="userSpaceOnUse">
<stop stop-color="#8B788A" stop-opacity="0"/>
<stop offset="1" stop-color="#9E8C92"/>
</linearGradient>
<linearGradient id="paint39_linear_160_3221" x1="27.6366" y1="16.8788" x2="28.9395" y2="13.5261" gradientUnits="userSpaceOnUse">
<stop stop-color="#555A66" stop-opacity="0"/>
<stop offset="1" stop-color="#555A66"/>
</linearGradient>
<linearGradient id="paint40_linear_160_3221" x1="14.0565" y1="28.958" x2="14.3388" y2="29.2403" gradientUnits="userSpaceOnUse">
<stop stop-color="#E5F3FF"/>
<stop offset="1" stop-color="#B3CCFF"/>
</linearGradient>
<linearGradient id="paint41_linear_160_3221" x1="0" y1="18.734" x2="35.6339" y2="18.734" gradientUnits="userSpaceOnUse">
<stop stop-color="#FF7044"/>
<stop offset="1" stop-color="#F92814"/>
</linearGradient>
<linearGradient id="paint42_linear_160_3221" x1="12.899" y1="6.08145" x2="14.1062" y2="7.28859" gradientUnits="userSpaceOnUse">
<stop stop-color="#FF7044"/>
<stop offset="1" stop-color="#F92814"/>
</linearGradient>
<linearGradient id="paint43_linear_160_3221" x1="6.6811" y1="13.8155" x2="7.99765" y2="15.1321" gradientUnits="userSpaceOnUse">
<stop stop-color="#92F37F"/>
<stop offset="1" stop-color="#4AB272"/>
</linearGradient>
<linearGradient id="paint44_linear_160_3221" x1="36.3523" y1="16.4059" x2="38.2411" y2="18.2947" gradientUnits="userSpaceOnUse">
<stop stop-color="#92F37F"/>
<stop offset="1" stop-color="#4AB272"/>
</linearGradient>
<clipPath id="clip0_160_3221">
<rect width="40" height="40" fill="white"/>
</clipPath>
</defs>
</svg>
