<svg width="22" height="27" viewBox="0 0 22 27" fill="none" xmlns="http://www.w3.org/2000/svg">
<g id="Group">
<path id="Vector" d="M17.6208 10.9895C18.046 10.6652 18.4617 10.304 18.8606 9.90504C21.8931 6.87252 22.815 2.87778 20.9197 0.982443C19.802 -0.135203 17.954 -0.269172 16.0041 0.427754C18.9376 4.75407 16.9301 12.3825 11.0895 18.2231C7.66559 21.647 3.62747 23.753 0 24.3193C1.2751 25.9087 3.90403 27 6.94266 27C11.2312 27 14.7078 24.8271 14.7078 22.1468C14.7078 21.4096 14.4435 20.7112 13.973 20.0854C18.2072 20.0459 21.6206 17.8897 21.6206 15.234C21.6206 13.4078 20.006 11.8178 17.6208 10.9895Z" fill="#FEB237"/>
</g>
</svg>
