<svg width="16" height="24" viewBox="0 0 16 24" fill="none" xmlns="http://www.w3.org/2000/svg">
<path id="Vector" d="M13.2263 1.62692C12.741 0.6623 11.7426 0 10.589 0C9.43538 0 8.43716 0.6623 7.95172 1.62692C7.59693 1.47588 7.20653 1.39204 6.79644 1.39204C5.16657 1.39204 3.84528 2.71334 3.84528 4.34321C3.84528 4.51076 3.86001 4.67477 3.88678 4.83478C2.56737 5.1292 1.58082 6.30617 1.58082 7.71437C1.58082 8.40697 1.82006 9.04333 2.21954 9.54681C1.30739 10.0489 0.689183 11.019 0.689183 12.1338C0.689183 12.9708 1.0382 13.7258 1.59803 14.263C0.649095 14.7536 0 15.7434 0 16.8854C0 18.2422 0.916043 19.3845 2.16318 19.7294C2.15256 19.8374 2.1469 19.9468 2.1469 20.0575C2.1469 21.8966 3.63776 23.3874 5.4768 23.3874H12.6099L16 13.1989L13.2263 1.62692Z" fill="#4A3279"/>
</svg>
