<svg width="24" height="24" viewBox="0 0 24 24" fill="none" xmlns="http://www.w3.org/2000/svg">
<g id="tabler-icon-map-search">
<path id="Vector" d="M11 17.9996L9 16.9996M9 16.9996L3 19.9996V6.99963L9 3.99963M9 16.9996V3.99963M9 3.99963L15 6.99963M15 6.99963L21 3.99963V11.4996M15 6.99963V11.9996M20.2 20.1998L22 21.9998M15 17.9996C15 18.7953 15.3161 19.5583 15.8787 20.121C16.4413 20.6836 17.2043 20.9996 18 20.9996C18.7956 20.9996 19.5587 20.6836 20.1213 20.121C20.6839 19.5583 21 18.7953 21 17.9996C21 17.204 20.6839 16.4409 20.1213 15.8783C19.5587 15.3157 18.7956 14.9996 18 14.9996C17.2043 14.9996 16.4413 15.3157 15.8787 15.8783C15.3161 16.4409 15 17.204 15 17.9996Z" stroke="#00DBA1" stroke-width="2" stroke-linecap="round" stroke-linejoin="round"/>
</g>
</svg>
