<svg width="55" height="43" viewBox="0 0 55 43" fill="none" xmlns="http://www.w3.org/2000/svg">
<path id="Vector" d="M54.516 3.35735L46.5553 0.0598437C46.1556 -0.105752 45.6974 0.0841259 45.5318 0.483781L42.6181 7.51808V8.20616C42.6181 11.4675 39.9647 14.1209 36.7034 14.1209H18.2964C15.0351 14.1209 12.3816 11.4675 12.3816 8.20616V7.51808L9.46794 0.483781C9.30235 0.0841259 8.8441 -0.105752 8.44445 0.0598437L0.483782 3.35735C0.0841269 3.52294 -0.105752 3.98104 0.0598435 4.38085L7.42455 22.1607C7.54268 22.4458 7.60346 22.7515 7.60346 23.06V36.6894C13.4054 40.2133 20.2157 42.2424 27.5 42.2424C34.7844 42.2424 41.5946 40.2133 47.3966 36.6894V23.06C47.3966 22.7513 47.4574 22.4458 47.5755 22.1607L54.9402 4.38085C55.1055 3.98104 54.9158 3.52294 54.516 3.35735Z" fill="#004F3A"/>
</svg>
