<svg width="41" height="10" viewBox="0 0 41 10" fill="none" xmlns="http://www.w3.org/2000/svg">
<g id="Mona.Media / Website">
<path d="M0 0.131799H2.51359L5.16839 6.60876H5.28136L7.93616 0.131799H10.4497V9.77193H8.47277V3.49737H8.39275L5.89799 9.72486H4.55176L2.057 3.47384H1.97698V9.77193H0V0.131799Z" fill="#15191E"/>
<path d="M20.9878 4.95186C20.9878 6.00311 20.7885 6.89746 20.39 7.63491C19.9946 8.37235 19.4548 8.93563 18.7707 9.32475C18.0898 9.71074 17.3241 9.90373 16.4737 9.90373C15.617 9.90373 14.8481 9.70917 14.1672 9.32005C13.4862 8.93093 12.948 8.36764 12.5526 7.6302C12.1572 6.89275 11.9595 5.99998 11.9595 4.95186C11.9595 3.90061 12.1572 3.00626 12.5526 2.26882C12.948 1.53137 13.4862 0.969662 14.1672 0.58368C14.8481 0.19456 15.617 0 16.4737 0C17.3241 0 18.0898 0.19456 18.7707 0.58368C19.4548 0.969662 19.9946 1.53137 20.39 2.26882C20.7885 3.00626 20.9878 3.90061 20.9878 4.95186ZM18.9213 4.95186C18.9213 4.2709 18.8194 3.69664 18.6154 3.22907C18.4145 2.7615 18.1305 2.40689 17.7634 2.16526C17.3962 1.92363 16.9663 1.80282 16.4737 1.80282C15.981 1.80282 15.5511 1.92363 15.1839 2.16526C14.8168 2.40689 14.5312 2.7615 14.3272 3.22907C14.1264 3.69664 14.026 4.2709 14.026 4.95186C14.026 5.63282 14.1264 6.20709 14.3272 6.67466C14.5312 7.14223 14.8168 7.49683 15.1839 7.73846C15.5511 7.98009 15.981 8.10091 16.4737 8.10091C16.9663 8.10091 17.3962 7.98009 17.7634 7.73846C18.1305 7.49683 18.4145 7.14223 18.6154 6.67466C18.8194 6.20709 18.9213 5.63282 18.9213 4.95186Z" fill="#15191E"/>
<path d="M30.5608 0.131799V9.77193H28.8004L24.6063 3.70448H24.5357V9.77193H22.4976V0.131799H24.2863L28.4473 6.19454H28.532V0.131799H30.5608Z" fill="#15191E"/>
<path d="M33.9064 9.77193H31.7223L35.0502 0.131799H37.6768L41 9.77193H38.8159L36.4011 2.33472H36.3258L33.9064 9.77193ZM33.7699 5.98272H38.9288V7.57371H33.7699V5.98272Z" fill="#15191E"/>
</g>
</svg>
