<svg width="12" height="12" viewBox="0 0 12 12" fill="none" xmlns="http://www.w3.org/2000/svg">
<g id="share-3 1" clip-path="url(#clip0_162_4667)">
<path id="Vector" d="M9.56404 7.50929V4.49054C9.95905 4.45132 10.3314 4.28789 10.6277 4.02373C10.924 3.75957 11.1289 3.40828 11.213 3.02034C11.2971 2.63241 11.2561 2.2278 11.0958 1.86466C10.9355 1.50152 10.6642 1.19855 10.3209 0.999277C9.97759 0.800006 9.57995 0.714697 9.18512 0.75561C8.79029 0.796523 8.41859 0.961552 8.12344 1.22698C7.82829 1.49241 7.62489 1.84457 7.54246 2.23286C7.46002 2.62116 7.50281 3.02558 7.66466 3.38803L4.35715 5.27804C4.1903 4.87806 3.89004 4.54823 3.50744 4.34465C3.12484 4.14107 2.68353 4.07631 2.25858 4.1614C1.83362 4.24648 1.45126 4.47615 1.17653 4.81133C0.901805 5.14652 0.751673 5.56653 0.751673 5.99992C0.751673 6.4333 0.901805 6.85331 1.17653 7.1885C1.45126 7.52368 1.83362 7.75335 2.25858 7.83843C2.68353 7.92352 3.12484 7.85876 3.50744 7.65518C3.89004 7.4516 4.1903 7.12177 4.35715 6.72179L7.66466 8.6118C7.50344 8.97377 7.46108 9.37753 7.54365 9.76508C7.62622 10.1526 7.82948 10.5041 8.12425 10.7689C8.41901 11.0337 8.79012 11.1983 9.18427 11.2391C9.57842 11.2798 9.97535 11.1946 10.3181 10.9957C10.6608 10.7967 10.9316 10.4943 11.0917 10.1319C11.2518 9.7694 11.293 9.36552 11.2092 8.97822C11.1254 8.59092 10.9211 8.24012 10.6255 7.97621C10.3299 7.71229 9.95832 7.54883 9.56404 7.50929ZM4.46778 6.35429C4.51277 6.12018 4.51277 5.87965 4.46778 5.64554L7.85216 3.71241C8.00667 3.9299 8.20588 4.11184 8.43645 4.24605C8.66702 4.38025 8.92362 4.46361 9.18904 4.49054V7.50929C8.92362 7.53622 8.66702 7.61957 8.43645 7.75378C8.20588 7.88798 8.00666 8.06993 7.85216 8.28742L4.46778 6.35429Z" fill="#15191E"/>
</g>
<defs>
<clipPath id="clip0_162_4667">
<rect width="11.5992" height="11.5992" fill="white" transform="scale(1.03456)"/>
</clipPath>
</defs>
</svg>
