<svg width="24" height="24" viewBox="0 0 24 24" fill="none" xmlns="http://www.w3.org/2000/svg">
<g id="18">
<path id="Vector" d="M12 12.6377C13.055 12.6377 13.9102 11.7825 13.9102 10.7275C13.9102 9.67259 13.055 8.81738 12 8.81738C10.945 8.81738 10.0898 9.67259 10.0898 10.7275C10.0898 11.7825 10.945 12.6377 12 12.6377Z" fill="#FFAD00"/>
<path id="Vector_2" d="M12 0C5.37281 0 0 5.37281 0 12C0 18.6272 5.37281 24 12 24C18.6272 24 24 18.6272 24 12C24 5.37281 18.6272 0 12 0ZM13.0706 17.5781C12.9425 17.7392 12.7797 17.8693 12.5944 17.9588C12.409 18.0482 12.2058 18.0947 12 18.0947C11.7942 18.0947 11.591 18.0482 11.4056 17.9588C11.2203 17.8693 11.0575 17.7392 10.9294 17.5781C9.50906 15.7917 7.17938 12.5798 7.17938 10.7283C7.17938 9.44965 7.68731 8.22338 8.59144 7.31925C9.49557 6.41512 10.7218 5.90719 12.0005 5.90719C13.2791 5.90719 14.5054 6.41512 15.4095 7.31925C16.3136 8.22338 16.8216 9.44965 16.8216 10.7283C16.8211 12.5789 14.4909 15.7908 13.0706 17.5781Z" fill="#FFAD00"/>
</g>
</svg>
