<svg width="14" height="10" viewBox="0 0 14 10" fill="none" xmlns="http://www.w3.org/2000/svg">
<g id="Group">
<path id="Vector" d="M12.3432 0H1.16965C0.979521 8.23511e-05 0.792278 0.0465126 0.624137 0.13527C0.455997 0.224028 0.312028 0.352438 0.204701 0.509377L5.79088 4.47035C6.07312 4.6698 6.41023 4.7769 6.75583 4.7769C7.10143 4.7769 7.43854 4.6698 7.72078 4.47035L13.3064 0.509377C13.1992 0.352682 13.0555 0.224425 12.8877 0.135679C12.7199 0.0469336 12.533 0.000367202 12.3432 0Z" fill="white"/>
<path id="Vector_2" d="M8.20441 5.15122C7.78097 5.451 7.27493 5.612 6.75611 5.612C6.23729 5.612 5.73125 5.451 5.30781 5.15122L0 1.38792V8.83031C0 9.14052 0.123229 9.43802 0.342578 9.65737C0.561928 9.87672 0.859429 9.99995 1.16964 9.99995H12.3432C12.6534 9.99995 12.9509 9.87672 13.1702 9.65737C13.3896 9.43802 13.5128 9.14052 13.5128 8.83031V1.38792L8.20441 5.15122Z" fill="white"/>
</g>
</svg>
