<svg width="32" height="32" viewBox="0 0 32 32" fill="none" xmlns="http://www.w3.org/2000/svg">
<g id="02.YouTube">
<path id="Background" d="M16 32C24.8366 32 32 24.8366 32 16C32 7.16344 24.8366 0 16 0C7.16344 0 0 7.16344 0 16C0 24.8366 7.16344 32 16 32Z" fill="#FF0000"/>
<path id="Icon" d="M21.2357 9.98145H10.7641C10.3456 9.98145 9.93128 10.0639 9.54469 10.2241C9.1581 10.3843 8.80686 10.6191 8.51106 10.9151C8.21525 11.2111 7.98067 11.5625 7.82072 11.9492C7.66077 12.3359 7.57858 12.7503 7.57886 13.1688V18.832C7.57858 19.2504 7.66077 19.6649 7.82072 20.0516C7.98067 20.4383 8.21525 20.7897 8.51106 21.0857C8.80686 21.3817 9.1581 21.6165 9.54469 21.7767C9.93128 21.9369 10.3456 22.0193 10.7641 22.0193H21.2357C21.6542 22.0193 22.0685 21.9369 22.4551 21.7767C22.8417 21.6165 23.193 21.3817 23.4888 21.0857C23.7846 20.7897 24.0192 20.4383 24.1791 20.0516C24.3391 19.6649 24.4212 19.2504 24.421 18.832V13.1688C24.4212 12.7503 24.3391 12.3359 24.1791 11.9492C24.0192 11.5625 23.7846 11.2111 23.4888 10.9151C23.193 10.6191 22.8417 10.3843 22.4551 10.2241C22.0685 10.0639 21.6542 9.98145 21.2357 9.98145ZM13.781 18.5814V13.4193L18.2189 16.0004L13.781 18.5814Z" fill="white"/>
</g>
</svg>
