<svg width="24" height="24" viewBox="0 0 24 24" fill="none" xmlns="http://www.w3.org/2000/svg">
<g id="phone">
<path id="Vector" d="M24 12C24 5.37258 18.6274 0 12 0C5.37258 0 0 5.37258 0 12C0 18.6274 5.37258 24 12 24C18.6274 24 24 18.6274 24 12Z" fill="#FFAD00"/>
<path id="Vector_2" d="M18.1416 15.1584L16.371 13.6866C15.2411 12.5567 13.2269 15.107 13.2213 15.1126C13.0642 15.2691 11.8021 14.2612 10.7699 13.2296C9.73768 12.1979 8.73033 10.9352 8.88683 10.7782C8.89305 10.7725 11.4433 8.75896 10.3128 7.62845L8.84389 5.85783C7.25802 4.47591 2.3083 8.23071 8.93824 14.8629L9.03881 14.9629L9.13937 15.064C15.7665 21.694 19.5236 16.7454 18.1416 15.1584Z" fill="white"/>
</g>
</svg>
