<svg width="105" height="12" viewBox="0 0 105 12" fill="none" xmlns="http://www.w3.org/2000/svg">
<g id="Mona.Media / Website">
<path d="M1.11282 10.1591C0.806793 10.1591 0.544042 10.0509 0.32457 9.83452C0.108189 9.61505 0 9.3523 0 9.04627C0 8.74334 0.108189 8.48368 0.32457 8.2673C0.544042 8.05092 0.806793 7.94273 1.11282 7.94273C1.40957 7.94273 1.66923 8.05092 1.89179 8.2673C2.11435 8.48368 2.22563 8.74334 2.22563 9.04627C2.22563 9.25029 2.17308 9.43731 2.06798 9.60732C1.96598 9.77424 1.83151 9.90871 1.66459 10.0107C1.49766 10.1096 1.31374 10.1591 1.11282 10.1591Z" fill="#15191E"/>
<path d="M3.88442 0.542498H6.36044L8.97556 6.92265H9.08684L11.702 0.542498H14.178V10.0385H12.2305V3.85776H12.1517L9.69425 9.99217H8.36815L5.91068 3.83458H5.83185V10.0385H3.88442V0.542498Z" fill="#15191E"/>
<path d="M19.0408 10.1776C18.3082 10.1776 17.6776 10.0293 17.149 9.73251C16.6235 9.43267 16.2185 9.00918 15.9341 8.46205C15.6498 7.91182 15.5076 7.26113 15.5076 6.50998C15.5076 5.77737 15.6498 5.13441 15.9341 4.5811C16.2185 4.02778 16.6188 3.59656 17.1351 3.28745C17.6544 2.97833 18.2633 2.82377 18.9619 2.82377C19.4318 2.82377 19.8692 2.89951 20.2741 3.05097C20.6822 3.19935 21.0376 3.42346 21.3406 3.7233C21.6466 4.02314 21.8846 4.40026 22.0546 4.85466C22.2246 5.30597 22.3097 5.83456 22.3097 6.44043V6.98293H16.2958V5.75883H20.4503C20.4503 5.47444 20.3885 5.22251 20.2649 5.00304C20.1412 4.78357 19.9696 4.61201 19.7502 4.48836C19.5338 4.36162 19.2819 4.29826 18.9944 4.29826C18.6945 4.29826 18.4287 4.36781 18.1969 4.50691C17.9681 4.64292 17.7888 4.82684 17.659 5.05868C17.5292 5.28743 17.4627 5.54245 17.4596 5.82374V6.98756C17.4596 7.33995 17.5245 7.64443 17.6544 7.901C17.7873 8.15757 17.9743 8.3554 18.2154 8.4945C18.4565 8.6336 18.7425 8.70315 19.0732 8.70315C19.2927 8.70315 19.4936 8.67224 19.676 8.61042C19.8584 8.5486 20.0145 8.45586 20.1443 8.33222C20.2741 8.20857 20.373 8.0571 20.441 7.87782L22.2679 7.99837C22.1752 8.43732 21.9851 8.82062 21.6976 9.14828C21.4132 9.47285 21.0454 9.72633 20.5941 9.90871C20.1458 10.088 19.6281 10.1776 19.0408 10.1776Z" fill="#15191E"/>
<path d="M26.2231 10.1545C25.6821 10.1545 25.1922 10.0154 24.7532 9.73715C24.3174 9.45585 23.9712 9.04318 23.7146 8.49914C23.4611 7.952 23.3344 7.28122 23.3344 6.4868C23.3344 5.67073 23.4657 4.99222 23.7285 4.45127C23.9912 3.90722 24.3405 3.50074 24.7764 3.23181C25.2153 2.95978 25.696 2.82377 26.2184 2.82377C26.6172 2.82377 26.9495 2.89178 27.2153 3.02779C27.4843 3.16071 27.7006 3.32763 27.8645 3.52856C28.0314 3.72639 28.1581 3.92113 28.2447 4.11279H28.305V0.542498H30.2756V10.0385H28.3281V8.8979H28.2447C28.1519 9.09573 28.0206 9.29202 27.8506 9.48676C27.6836 9.67842 27.4657 9.83761 27.1968 9.96435C26.9309 10.0911 26.6064 10.1545 26.2231 10.1545ZM26.849 8.5826C27.1674 8.5826 27.4363 8.49605 27.6558 8.32294C27.8784 8.14675 28.0484 7.901 28.1659 7.5857C28.2864 7.2704 28.3467 6.90101 28.3467 6.47752C28.3467 6.05403 28.288 5.68619 28.1705 5.37398C28.053 5.06177 27.883 4.82066 27.6604 4.65065C27.4379 4.48063 27.1674 4.39563 26.849 4.39563C26.5244 4.39563 26.2509 4.48372 26.0283 4.65992C25.8058 4.83612 25.6373 5.08032 25.5229 5.39253C25.4085 5.70473 25.3514 6.0664 25.3514 6.47752C25.3514 6.89174 25.4085 7.25804 25.5229 7.57643C25.6404 7.89173 25.8088 8.13902 26.0283 8.31831C26.2509 8.4945 26.5244 8.5826 26.849 8.5826Z" fill="#15191E"/>
<path d="M31.8996 10.0385V2.91651H33.8748V10.0385H31.8996ZM32.8918 1.99843C32.5982 1.99843 32.3463 1.90106 32.1361 1.70632C31.929 1.50849 31.8254 1.27201 31.8254 0.996899C31.8254 0.724877 31.929 0.491494 32.1361 0.296752C32.3463 0.0989171 32.5982 0 32.8918 0C33.1855 0 33.4359 0.0989171 33.643 0.296752C33.8532 0.491494 33.9583 0.724877 33.9583 0.996899C33.9583 1.27201 33.8532 1.50849 33.643 1.70632C33.4359 1.90106 33.1855 1.99843 32.8918 1.99843Z" fill="#15191E"/>
<path d="M37.488 10.173C37.0336 10.173 36.6287 10.0942 36.2732 9.93653C35.9177 9.77579 35.6364 9.53931 35.4293 9.22711C35.2253 8.91181 35.1233 8.51923 35.1233 8.04938C35.1233 7.65371 35.1959 7.32141 35.3412 7.05248C35.4865 6.78355 35.6843 6.56717 35.9347 6.40333C36.1851 6.2395 36.4695 6.11586 36.7879 6.03239C37.1093 5.94893 37.4463 5.8902 37.7987 5.8562C38.2129 5.81292 38.5467 5.77274 38.8002 5.73564C39.0537 5.69546 39.2376 5.63673 39.352 5.55945C39.4663 5.48217 39.5235 5.3678 39.5235 5.21633V5.18851C39.5235 4.89485 39.4308 4.66765 39.2453 4.50691C39.063 4.34617 38.8033 4.2658 38.4664 4.2658C38.1109 4.2658 37.828 4.34462 37.6178 4.50227C37.4076 4.65683 37.2685 4.85157 37.2005 5.0865L35.3737 4.93813C35.4664 4.50536 35.6488 4.13133 35.9208 3.81603C36.1928 3.49765 36.5437 3.25344 36.9733 3.08343C37.4061 2.91033 37.9069 2.82377 38.4756 2.82377C38.8713 2.82377 39.25 2.87014 39.6116 2.96287C39.9764 3.05561 40.2994 3.19935 40.5807 3.39409C40.8651 3.58883 41.0892 3.83922 41.253 4.14524C41.4169 4.44818 41.4988 4.81139 41.4988 5.23488V10.0385H39.6255V9.05091H39.5699C39.4555 9.27347 39.3025 9.46976 39.1109 9.63978C38.9192 9.8067 38.6889 9.93807 38.42 10.0339C38.1511 10.1266 37.8404 10.173 37.488 10.173ZM38.0537 8.8098C38.3443 8.8098 38.6008 8.75261 38.8234 8.63824C39.046 8.52078 39.2206 8.36313 39.3473 8.16529C39.4741 7.96746 39.5374 7.74335 39.5374 7.49297V6.73718C39.4756 6.77736 39.3906 6.81446 39.2824 6.84846C39.1773 6.87937 39.0583 6.90874 38.9254 6.93656C38.7925 6.96129 38.6596 6.98447 38.5266 7.00611C38.3937 7.02466 38.2732 7.04166 38.165 7.05711C37.9331 7.09112 37.7307 7.14521 37.5576 7.2194C37.3845 7.29359 37.25 7.39405 37.1542 7.52079C37.0583 7.64443 37.0104 7.79899 37.0104 7.98446C37.0104 8.25339 37.1078 8.45895 37.3025 8.60115C37.5004 8.74025 37.7508 8.8098 38.0537 8.8098Z" fill="#15191E"/>
<path d="M49.6235 0.0973712L46.5633 11.4667H45.5617L48.622 0.0973712H49.6235Z" fill="#15191E"/>
<path d="M55.904 10.0385L53.1868 0.542498H55.38L56.9519 7.14057H57.0307L58.7648 0.542498H60.6427L62.3722 7.15449H62.4557L64.0275 0.542498H66.2207L63.5036 10.0385H61.5469L59.7386 3.82994H59.6644L57.8607 10.0385H55.904Z" fill="#15191E"/>
<path d="M69.7388 10.1776C69.0062 10.1776 68.3756 10.0293 67.847 9.73251C67.3215 9.43267 66.9166 9.00918 66.6322 8.46205C66.3478 7.91182 66.2056 7.26113 66.2056 6.50998C66.2056 5.77737 66.3478 5.13441 66.6322 4.5811C66.9166 4.02778 67.3169 3.59656 67.8331 3.28745C68.3524 2.97833 68.9614 2.82377 69.66 2.82377C70.1299 2.82377 70.5673 2.89951 70.9722 3.05097C71.3802 3.19935 71.7357 3.42346 72.0387 3.7233C72.3447 4.02314 72.5827 4.40026 72.7527 4.85466C72.9227 5.30597 73.0077 5.83456 73.0077 6.44043V6.98293H66.9939V5.75883H71.1484C71.1484 5.47444 71.0866 5.22251 70.9629 5.00304C70.8393 4.78357 70.6677 4.61201 70.4483 4.48836C70.2319 4.36162 69.9799 4.29826 69.6925 4.29826C69.3926 4.29826 69.1268 4.36781 68.8949 4.50691C68.6662 4.64292 68.4869 4.82684 68.3571 5.05868C68.2273 5.28743 68.1608 5.54245 68.1577 5.82374V6.98756C68.1577 7.33995 68.2226 7.64443 68.3524 7.901C68.4854 8.15757 68.6724 8.3554 68.9135 8.4945C69.1546 8.6336 69.4405 8.70315 69.7713 8.70315C69.9908 8.70315 70.1917 8.67224 70.3741 8.61042C70.5564 8.5486 70.7125 8.45586 70.8424 8.33222C70.9722 8.20857 71.0711 8.0571 71.1391 7.87782L72.966 7.99837C72.8733 8.43732 72.6832 8.82062 72.3957 9.14828C72.1113 9.47285 71.7434 9.72633 71.2921 9.90871C70.8439 10.088 70.3262 10.1776 69.7388 10.1776Z" fill="#15191E"/>
<path d="M74.3338 10.0385V0.542498H76.3091V4.11279H76.3694C76.4559 3.92113 76.5811 3.72639 76.7449 3.52856C76.9119 3.32763 77.1282 3.16071 77.3941 3.02779C77.663 2.89178 77.9969 2.82377 78.3956 2.82377C78.9149 2.82377 79.3941 2.95978 79.833 3.23181C80.272 3.50074 80.6228 3.90722 80.8855 4.45127C81.1483 4.99222 81.2797 5.67073 81.2797 6.4868C81.2797 7.28122 81.1514 7.952 80.8948 8.49914C80.6413 9.04318 80.2951 9.45585 79.8562 9.73715C79.4203 10.0154 78.9319 10.1545 78.391 10.1545C78.0077 10.1545 77.6816 10.0911 77.4126 9.96435C77.1468 9.83761 76.9289 9.67842 76.7588 9.48676C76.5888 9.29202 76.459 9.09573 76.3694 8.8979H76.2813V10.0385H74.3338ZM76.2674 6.47752C76.2674 6.90101 76.3261 7.2704 76.4435 7.5857C76.561 7.901 76.731 8.14675 76.9536 8.32294C77.1762 8.49605 77.4466 8.5826 77.765 8.5826C78.0865 8.5826 78.3585 8.4945 78.5811 8.31831C78.8037 8.13902 78.9721 7.89173 79.0865 7.57643C79.204 7.25804 79.2627 6.89174 79.2627 6.47752C79.2627 6.0664 79.2055 5.70473 79.0911 5.39253C78.9768 5.08032 78.8083 4.83612 78.5857 4.65992C78.3632 4.48372 78.0896 4.39563 77.765 4.39563C77.4435 4.39563 77.1715 4.48063 76.949 4.65065C76.7295 4.82066 76.561 5.06177 76.4435 5.37398C76.3261 5.68619 76.2674 6.05403 76.2674 6.47752Z" fill="#15191E"/>
<path d="M88.5234 4.9474L86.7151 5.05868C86.6842 4.90412 86.6177 4.76502 86.5157 4.64137C86.4137 4.51464 86.2792 4.41417 86.1123 4.33999C85.9485 4.26271 85.7522 4.22407 85.5234 4.22407C85.2174 4.22407 84.9593 4.28898 84.7491 4.41881C84.5389 4.54555 84.4338 4.71556 84.4338 4.92885C84.4338 5.09886 84.5018 5.2426 84.6378 5.36007C84.7738 5.47753 85.0072 5.57181 85.338 5.64291L86.627 5.90257C87.3194 6.04476 87.8356 6.27351 88.1757 6.5888C88.5157 6.9041 88.6857 7.31832 88.6857 7.83145C88.6857 8.29821 88.5481 8.70779 88.273 9.06018C88.001 9.41258 87.627 9.68769 87.1509 9.88552C86.678 10.0803 86.1324 10.1776 85.5142 10.1776C84.5714 10.1776 83.8202 9.98135 83.2607 9.58877C82.7043 9.1931 82.3782 8.65524 82.2824 7.97519L84.2252 7.87318C84.2839 8.16066 84.4261 8.38013 84.6517 8.5316C84.8774 8.67997 85.1664 8.75416 85.5188 8.75416C85.865 8.75416 86.1432 8.6877 86.3534 8.55478C86.5667 8.41877 86.6749 8.24412 86.678 8.03083C86.6749 7.85154 86.5992 7.70471 86.4508 7.59034C86.3024 7.47287 86.0737 7.38323 85.7645 7.32141L84.5312 7.07566C83.8357 6.93656 83.3179 6.69545 82.9779 6.35233C82.6409 6.00921 82.4725 5.57181 82.4725 5.04013C82.4725 4.58264 82.5961 4.18852 82.8434 3.85776C83.0938 3.52701 83.4446 3.27199 83.8959 3.0927C84.3503 2.91342 84.882 2.82377 85.491 2.82377C86.3905 2.82377 87.0984 3.01388 87.6146 3.39409C88.1339 3.7743 88.4369 4.29207 88.5234 4.9474Z" fill="#15191E"/>
<path d="M89.9295 10.0385V2.91651H91.9047V10.0385H89.9295ZM90.9218 1.99843C90.6281 1.99843 90.3762 1.90106 90.166 1.70632C89.9589 1.50849 89.8553 1.27201 89.8553 0.996899C89.8553 0.724877 89.9589 0.491494 90.166 0.296752C90.3762 0.0989171 90.6281 0 90.9218 0C91.2154 0 91.4658 0.0989171 91.6729 0.296752C91.8831 0.491494 91.9882 0.724877 91.9882 0.996899C91.9882 1.27201 91.8831 1.50849 91.6729 1.70632C91.4658 1.90106 91.2154 1.99843 90.9218 1.99843Z" fill="#15191E"/>
<path d="M97.2752 2.91651V4.40026H92.9863V2.91651H97.2752ZM93.96 1.21019H95.9352V7.85C95.9352 8.03237 95.9631 8.17457 96.0187 8.27658C96.0743 8.37549 96.1516 8.44504 96.2505 8.48523C96.3525 8.52541 96.47 8.54551 96.6029 8.54551C96.6956 8.54551 96.7884 8.53778 96.8811 8.52232C96.9739 8.50378 97.045 8.48987 97.0944 8.48059L97.4051 9.95044C97.3062 9.98135 97.1671 10.0169 96.9878 10.0571C96.8085 10.1004 96.5906 10.1266 96.334 10.1359C95.858 10.1545 95.4406 10.0911 95.0821 9.9458C94.7266 9.80052 94.4499 9.57486 94.2521 9.26884C94.0543 8.96281 93.9569 8.57642 93.96 8.10965V1.21019Z" fill="#15191E"/>
<path d="M101.731 10.1776C100.999 10.1776 100.368 10.0293 99.8394 9.73251C99.3139 9.43267 98.9089 9.00918 98.6245 8.46205C98.3402 7.91182 98.198 7.26113 98.198 6.50998C98.198 5.77737 98.3402 5.13441 98.6245 4.5811C98.9089 4.02778 99.3092 3.59656 99.8255 3.28745C100.345 2.97833 100.954 2.82377 101.652 2.82377C102.122 2.82377 102.56 2.89951 102.965 3.05097C103.373 3.19935 103.728 3.42346 104.031 3.7233C104.337 4.02314 104.575 4.40026 104.745 4.85466C104.915 5.30597 105 5.83456 105 6.44043V6.98293H98.9862V5.75883H103.141C103.141 5.47444 103.079 5.22251 102.955 5.00304C102.832 4.78357 102.66 4.61201 102.441 4.48836C102.224 4.36162 101.972 4.29826 101.685 4.29826C101.385 4.29826 101.119 4.36781 100.887 4.50691C100.659 4.64292 100.479 4.82684 100.349 5.05868C100.22 5.28743 100.153 5.54245 100.15 5.82374V6.98756C100.15 7.33995 100.215 7.64443 100.345 7.901C100.478 8.15757 100.665 8.3554 100.906 8.4945C101.147 8.6336 101.433 8.70315 101.764 8.70315C101.983 8.70315 102.184 8.67224 102.366 8.61042C102.549 8.5486 102.705 8.45586 102.835 8.33222C102.965 8.20857 103.063 8.0571 103.131 7.87782L104.958 7.99837C104.866 8.43732 104.675 8.82062 104.388 9.14828C104.104 9.47285 103.736 9.72633 103.284 9.90871C102.836 10.088 102.318 10.1776 101.731 10.1776Z" fill="#15191E"/>
</g>
</svg>
