<svg width="60" height="60" viewBox="0 0 60 60" fill="none" xmlns="http://www.w3.org/2000/svg">
<g clip-path="url(#clip0_160_2916)">
<path d="M59.9999 29.9998C59.9999 29.1309 59.2955 28.4264 58.4264 28.4264H55.9506L58.3076 26.0694C58.9221 25.4549 58.9221 24.4585 58.3076 23.8441C57.6931 23.2297 56.6969 23.2296 56.0823 23.8441L51.5 28.4265H49.1709L51.5279 26.0695C52.1424 25.455 52.1424 24.4586 51.5279 23.8442C50.9132 23.2297 49.917 23.2297 49.3026 23.8442L44.7203 28.4266H33.7988L41.5215 20.7039H48.0018C48.8709 20.7039 49.5753 19.9995 49.5753 19.1304C49.5753 18.2613 48.8709 17.5569 48.0018 17.5569H44.6686L46.3155 15.91H52.7958C53.6649 15.91 54.3693 15.2056 54.3693 14.3365C54.3693 13.4675 53.6649 12.7631 52.7958 12.7631H49.4626L51.2133 11.0123C51.8279 10.3978 51.8279 9.40143 51.2133 8.78702C50.5988 8.17249 49.6025 8.17249 48.9881 8.78702L47.2373 10.5378V7.20406C47.2373 6.335 46.5329 5.63059 45.6638 5.63059C44.7948 5.63059 44.0904 6.335 44.0904 7.20406V13.6844L42.4434 15.3313V11.9982C42.4434 11.1291 41.739 10.4247 40.87 10.4247C40.0009 10.4247 39.2965 11.1291 39.2965 11.9982V18.4785L31.5738 26.2012V15.2798L36.1561 10.6974C36.7707 10.0829 36.7707 9.08655 36.1561 8.47214C35.5415 7.85761 34.5453 7.85761 33.9309 8.47214L31.5738 10.8291V8.49991L36.1561 3.91756C36.7707 3.30303 36.7707 2.30671 36.1561 1.69229C35.5415 1.07777 34.5453 1.07777 33.9309 1.69229L31.5738 4.04927V1.57347C31.5735 0.70441 30.8691 0 30.0001 0C29.1311 0 28.4266 0.70441 28.4266 1.57347V4.04927L26.0696 1.69229C25.4551 1.07777 24.4589 1.07777 23.8444 1.69229C23.2298 2.30682 23.2298 3.30314 23.8444 3.91756L28.4267 8.49991V10.8291L26.0697 8.47214C25.4552 7.85761 24.459 7.85761 23.8445 8.47214C23.23 9.08667 23.23 10.083 23.8445 10.6974L28.4268 15.2798V26.2012L20.7041 18.4785V11.9981C20.7041 11.129 19.9997 10.4246 19.1306 10.4246C18.2616 10.4246 17.5572 11.129 17.5572 11.9981V15.3313L15.9102 13.6844V7.20394C15.9102 6.33488 15.2058 5.63048 14.3368 5.63048C13.4677 5.63048 12.7633 6.33488 12.7633 7.20394V10.5372L11.0123 8.78679C10.3978 8.17226 9.40144 8.17226 8.78703 8.78679C8.1725 9.40131 8.1725 10.3976 8.78703 11.012L10.5378 12.7628H7.2043C6.33525 12.7628 5.63084 13.4672 5.63084 14.3363C5.63084 15.2053 6.33525 15.9098 7.2043 15.9098H13.6846L15.3316 17.5567H11.9984C11.1294 17.5567 10.4249 18.2611 10.4249 19.1302C10.4249 19.9992 11.1294 20.7036 11.9984 20.7036H18.4787L26.2015 28.4264H15.28L10.6975 23.844C10.083 23.2295 9.08679 23.2295 8.47226 23.844C7.85774 24.4585 7.85774 25.4549 8.47226 26.0693L10.8292 28.4262H8.50016L3.9178 23.844C3.30327 23.2295 2.30707 23.2295 1.69254 23.844C1.07801 24.4585 1.07801 25.4549 1.69254 26.0693L4.04952 28.4262H1.57371C0.704654 28.4262 0.000244141 29.1308 0.000244141 29.9997C0.000244141 30.8688 0.704654 31.5732 1.57371 31.5732H4.04963L1.69266 33.9303C1.07813 34.5448 1.07813 35.5411 1.69266 36.1555C1.99992 36.4628 2.40257 36.6164 2.80523 36.6164C3.20788 36.6164 3.61065 36.4628 3.9178 36.1555L8.50016 31.5732H10.8294L8.47238 33.9303C7.85785 34.5448 7.85785 35.5411 8.47238 36.1555C8.77965 36.4628 9.1823 36.6164 9.58495 36.6164C9.98761 36.6164 10.3904 36.4628 10.6975 36.1555L15.2799 31.5732H26.2013L18.4786 39.2959H11.9983C11.1292 39.2959 10.4248 40.0003 10.4248 40.8694C10.4248 41.7384 11.1292 42.4428 11.9983 42.4428H15.3316L13.6846 44.0898H7.20419C6.33513 44.0898 5.63072 44.7942 5.63072 45.6632C5.63072 46.5323 6.33513 47.2367 7.20419 47.2367H10.5374L8.78668 48.9875C8.17215 49.602 8.17215 50.5982 8.78668 51.2127C9.09394 51.52 9.49659 51.6736 9.89925 51.6736C10.3019 51.6736 10.7047 51.52 11.0118 51.2127L12.7626 49.462V52.7952C12.7626 53.6643 13.467 54.3687 14.3361 54.3687C15.2051 54.3687 15.9095 53.6643 15.9095 52.7952V46.3149L17.5565 44.668V48.0012C17.5565 48.8703 18.2609 49.5747 19.1299 49.5747C19.999 49.5747 20.7034 48.8703 20.7034 48.0012V41.5209L28.4261 33.7982V44.7197L23.8438 49.302C23.2292 49.9165 23.2292 50.9129 23.8438 51.5273C24.4583 52.1418 25.4546 52.1418 26.069 51.5273L28.426 49.1703V51.4994L23.8437 56.0817C23.2291 56.6963 23.2291 57.6926 23.8437 58.307C24.1509 58.6143 24.5536 58.7679 24.9562 58.7679C25.359 58.7679 25.7617 58.6143 26.0688 58.307L28.4258 55.95V58.4258C28.4258 59.2949 29.1303 59.9993 29.9992 59.9993C30.8683 59.9993 31.5727 59.2949 31.5727 58.4258V55.95L33.9298 58.3071C34.5443 58.9216 35.5407 58.9216 36.1551 58.3071C36.7695 57.6926 36.7696 56.6964 36.1551 56.0819L31.5727 51.4995V49.1703L33.9298 51.5274C34.2371 51.8347 34.6398 51.9883 35.0424 51.9883C35.4449 51.9883 35.8478 51.8347 36.155 51.5274C36.7695 50.9129 36.7695 49.9167 36.155 49.3021L31.5726 44.7198V33.799L39.2953 41.5218V48.0021C39.2953 48.8711 39.9997 49.5755 40.8688 49.5755C41.7379 49.5755 42.4423 48.8711 42.4423 48.0021V44.6688L44.0892 46.3157V52.7961C44.0892 53.6651 44.7936 54.3695 45.6627 54.3695C46.5317 54.3695 47.2361 53.6651 47.2361 52.7961V49.4628L48.9869 51.2136C49.2942 51.5208 49.6969 51.6745 50.0995 51.6745C50.5023 51.6745 50.9049 51.5208 51.2121 51.2136C51.8266 50.599 51.8266 49.6028 51.2121 48.9883L49.4613 47.2375H52.7945C53.6636 47.2375 54.368 46.5331 54.368 45.6641C54.368 44.795 53.6636 44.0906 52.7945 44.0906H46.3142L44.6673 42.4437H48.0005C48.8696 42.4437 49.574 41.7392 49.574 40.8702C49.574 40.0011 48.8696 39.2967 48.0005 39.2967H41.5202L33.7975 31.574H44.719L49.3013 36.1564C49.6086 36.4636 50.0114 36.6172 50.4139 36.6172C50.8164 36.6172 51.2193 36.4636 51.5265 36.1564C52.141 35.5418 52.141 34.5456 51.5265 33.9311L49.1694 31.574H51.4986L56.0809 36.1564C56.3882 36.4636 56.791 36.6172 57.1935 36.6172C57.5962 36.6172 57.9989 36.4636 58.3061 36.1564C58.9206 35.5418 58.9206 34.5456 58.3061 33.9311L55.949 31.574H58.4248C59.2954 31.5733 59.9999 30.8689 59.9999 29.9998Z" fill="#80C7EA"/>
</g>
<defs>
<clipPath id="clip0_160_2916">
<rect width="60" height="60" fill="white"/>
</clipPath>
</defs>
</svg>
