<svg width="60" height="60" viewBox="0 0 60 60" fill="none" xmlns="http://www.w3.org/2000/svg">
<g clip-path="url(#clip0_160_2985)">
<path d="M29.808 35.2061L2.04346 40.6022C2.80072 42.8116 3.81955 44.8993 5.06373 46.8285L29.8081 50.4132L53.3547 46.8285C54.5988 44.8995 55.6176 42.8116 56.3749 40.6022L29.808 35.2061Z" fill="#FCC459"/>
<path d="M29.2092 2.5777C13.8451 2.5777 1.29968 14.6459 0.535034 29.8202L2.04347 32.4036L1.04468 36.8816C1.29617 38.1538 1.63027 39.3963 2.04347 40.6022H56.3749C57.376 37.6817 57.9203 34.549 57.9203 31.2889C57.9203 15.4321 45.0659 2.5777 29.2092 2.5777Z" fill="#FDE36C"/>
<path d="M7.7472 50.3575H11.3736L14.0981 55.704L14.0978 55.7056C14.967 56.2447 15.8672 56.7386 16.795 57.1842L20.6178 55.704L24.2063 59.5648L24.2065 59.5651C25.8312 59.8506 27.5027 60.0001 29.2092 60.0001C31.5311 60.0001 33.7884 59.7237 35.9506 59.2034L35.9504 59.2022L39.0159 55.704L41.4036 57.287L41.4043 57.2877C42.2285 56.9004 43.0313 56.4751 43.8104 56.014L43.8102 56.0129L46.4752 51.547L49.2836 51.8128L49.2837 51.8134C50.8184 50.312 52.186 48.6404 53.3546 46.8284H5.06384C5.86763 48.0748 6.76552 49.2547 7.74697 50.3588L7.7472 50.3575Z" fill="#A2DD21"/>
<path d="M45.2714 4.51069C44.789 3.55198 43.7968 2.89374 42.6502 2.89374C41.5037 2.89374 40.5116 3.55198 40.0291 4.51069C39.6765 4.36057 39.2885 4.27725 38.8809 4.27725C37.261 4.27725 35.9478 5.59046 35.9478 7.21034C35.9478 7.37686 35.9625 7.53987 35.9891 7.69889C34.6777 7.99151 33.6972 9.16128 33.6972 10.5608C33.6972 11.2492 33.935 11.8817 34.332 12.3821C33.4255 12.881 32.8111 13.8453 32.8111 14.9532C32.8111 15.7851 33.1579 16.5354 33.7143 17.0693C32.7712 17.5569 32.1261 18.5407 32.1261 19.6757C32.1261 21.0242 33.0365 22.1595 34.276 22.5023C34.2655 22.6096 34.2598 22.7183 34.2598 22.8284C34.2598 24.6562 35.7416 26.1379 37.5693 26.1379H44.6587L48.0281 16.0118L45.2714 4.51069Z" fill="#4A3279"/>
<path d="M47.7313 26.1378C49.5591 26.1378 51.0408 24.6561 51.0408 22.8284C51.0408 22.7183 51.0352 22.6096 51.0246 22.5022C52.2641 22.1594 53.1746 21.0244 53.1746 19.6757C53.1746 18.5407 52.5294 17.5569 51.5863 17.0693C52.1426 16.5354 52.4896 15.785 52.4896 14.9531C52.4896 13.8452 51.8752 12.881 50.9686 12.382C51.3657 11.8816 51.6034 11.2492 51.6034 10.5608C51.6034 9.16125 50.6229 7.99148 49.3116 7.69886C49.3383 7.53996 49.3528 7.37683 49.3528 7.21031C49.3528 5.59031 48.0396 4.27722 46.4198 4.27722C46.0123 4.27722 45.6242 4.36042 45.2715 4.51066C45.2715 4.51066 43.0957 6.69679 44.6588 8.77031V26.1378H47.7313Z" fill="#5B4982"/>
<path d="M44.9055 22.0931H40.6375C37.5725 22.0931 35.0879 24.5779 35.0879 27.6428V33.0573C35.0879 34.4849 36.2451 35.6421 37.6727 35.6421H47.8705C49.298 35.6421 50.4553 34.4849 50.4553 33.0573V27.6428C50.4553 24.5777 47.9705 22.0931 44.9055 22.0931Z" fill="#27A6FF"/>
<path d="M57.9416 10.7114C56.933 10.5189 55.9566 11.1822 55.7068 12.1779L54.12 18.6931L52.4213 19.2469L50.6562 24.9067L56.157 22.5314C56.665 22.3053 57.0946 21.9248 57.3553 21.4336C57.517 21.1287 57.6413 20.7999 57.7214 20.4523L59.4526 13.0283C59.6968 11.9671 59.0107 10.9157 57.9416 10.7114Z" fill="#EFA29A"/>
<path d="M36.398 37.644C36.2971 40.9445 35.9966 51.3236 35.9504 59.2021C37.8486 58.7453 39.6731 58.1 41.4035 57.287L42.6649 43.4411L45.3633 36.3181L36.398 37.644Z" fill="#4A3279"/>
<path d="M48.9319 37.644H42.6649V43.4411L43.8102 56.0129C45.8021 54.834 47.6391 53.4216 49.2836 51.8128C49.173 45.8094 49.0029 39.9694 48.9319 37.644Z" fill="#5B4982"/>
<path d="M43.8318 19.7552H36.6257L31.5566 24.8064L32.2355 27.8697H35.5431C36.5281 29.8784 37.8623 32.5852 36.2185 37.0573C36.0639 37.478 36.3849 37.9583 36.7669 38.1029C36.7697 38.104 36.7725 38.1049 36.7754 38.106L37.3722 38.3256C38.6813 38.8072 40.0289 39.1051 41.3857 39.2203L46.4754 22.6744L43.8318 19.7552Z" fill="#BC57C2"/>
<path d="M53.7124 24.3837L52.4213 19.2468L48.5141 20.4195C48.3249 20.3488 47.6584 19.7847 47.4567 19.7551H43.8317V21.551C43.8317 21.551 41.6078 22.8331 41.6078 24.8063C41.6078 26.4676 41.7624 31.4011 41.681 34.8436C41.6614 35.675 41.5931 36.5044 41.46 37.3254C41.3744 37.8538 41.2995 38.5827 41.3855 39.2202C41.8114 39.2563 42.238 39.2749 42.6648 39.2749C44.4514 39.2749 46.2378 38.9584 47.9577 38.3255L48.5546 38.1059C48.5574 38.1048 48.5602 38.1038 48.563 38.1028C48.945 37.9582 49.266 37.4779 49.1114 37.0572C47.3372 32.23 49.0326 29.4593 50.0133 27.4036C50.1863 27.041 50.4454 26.7263 50.7714 26.4916L50.7771 26.4875C50.9696 26.349 51.1818 26.2406 51.4065 26.1656L53.0328 25.6235C53.5487 25.4517 53.8451 24.9111 53.7124 24.3837Z" fill="#CD6DCD"/>
<path d="M41.6231 26.1378H37.1495C36.3761 26.1378 35.7433 26.7706 35.7433 27.544V28.7936C35.7433 29.567 36.3761 30.1998 37.1495 30.1998H41.6894L43.4175 28.1688L41.6231 26.1378Z" fill="#CD6DCD"/>
<path d="M48.3938 26.1378H41.623C41.6411 27.2276 41.6711 28.6777 41.6893 30.1998H48.3938C49.1672 30.1998 49.8 29.567 49.8 28.7936V27.544C49.8 26.7706 49.1672 26.1378 48.3938 26.1378Z" fill="#DD83D7"/>
<path d="M42.665 16.9245C41.341 16.9245 40.2577 18.0078 40.2577 19.3319V20.267C40.2577 21.591 41.341 22.6744 42.665 22.6744C43.9889 22.6744 45.0722 21.591 45.0722 20.267V19.3319C45.0722 18.0078 43.9889 16.9245 42.665 16.9245Z" fill="#E28B7D"/>
<path d="M46.8792 11.0372H38.4507C37.6823 11.0372 37.0537 11.6658 37.0537 12.4342C37.0537 13.2026 37.6824 13.8312 38.4507 13.8312H46.8792C47.6476 13.8312 48.2762 13.2026 48.2762 12.4342C48.2762 11.6658 47.6475 11.0372 46.8792 11.0372Z" fill="#E28B7D"/>
<path d="M46.7252 11.3492C46.6233 11.2342 46.5671 11.0999 46.563 10.9608C46.5472 10.4314 46.4135 9.13551 45.5155 8.5375C44.8786 8.1134 43.9831 8.11773 42.8542 8.55062C42.7325 8.59726 42.5972 8.59726 42.4755 8.55062C41.3465 8.11785 40.4511 8.11351 39.8142 8.5375C38.9162 9.13551 38.7825 10.4315 38.7667 10.9608C38.7626 11.0999 38.7064 11.2342 38.6044 11.3492C38.042 11.9829 38.1651 13.8343 38.2964 14.5966C38.3885 15.0033 38.4939 15.5466 38.6117 16.1284C39.0027 18.0565 40.6974 20.1566 42.6648 20.1566C44.632 20.1566 46.3268 18.0566 46.7178 16.1286C46.836 15.5461 46.9414 15.0019 47.0338 14.5943C47.1598 13.793 47.294 11.9901 46.7252 11.3492Z" fill="#EFA29A"/>
<path d="M51.1111 29.3994C50.8068 27.0977 50.5016 23.9701 50.5385 21.1357C50.5452 20.6177 50.2901 20.1286 49.8497 19.8289C49.3609 19.4964 48.6453 19.1434 47.7825 19.1122C47.1995 19.0913 46.7224 19.5739 46.7415 20.157C46.8128 22.3275 46.9397 27.5072 48.9511 31.7002C49.1378 32.0892 49.6314 32.2145 49.9819 31.9628C50.8098 31.3681 51.242 30.3895 51.1111 29.3994Z" fill="#6AD9FB"/>
<path d="M34.2188 29.3994C34.5231 27.0977 34.8283 23.9701 34.7913 21.1357C34.7847 20.6177 35.0398 20.1286 35.4802 19.8289C35.969 19.4964 36.6845 19.1434 37.5474 19.1122C38.1304 19.0913 38.6074 19.5739 38.5883 20.157C38.5172 22.3275 38.3902 27.5072 36.3788 31.7002C36.1921 32.0892 35.6985 32.2145 35.348 31.9628C34.5201 31.3681 34.0879 30.3895 34.2188 29.3994Z" fill="#02C0FC"/>
<path d="M16.893 21.5511H10.2465C7.64091 21.5511 5.50903 23.4887 5.50903 25.857V33.2876C5.50903 35.6557 7.64091 37.5934 10.2465 37.5934H20.93C23.3143 37.5934 25.3007 35.9706 25.6211 33.8804L16.893 21.5511Z" fill="#4A3279"/>
<path d="M15.4775 32.4036L9.03801 35.0644L7.74719 50.3575C9.59055 52.4307 11.7292 54.2348 14.0981 55.7041L15.4773 44.265L18.3176 38.3457L15.4775 32.4036Z" fill="#CE634D"/>
<path d="M22.1385 35.0643L15.5882 32.3577L15.4773 32.4035V44.265L16.7947 57.1842C19.11 58.2962 21.5975 59.1064 24.2062 59.5648L22.1385 35.0643Z" fill="#E7795F"/>
<path d="M14.9536 1.5258C14.9536 1.5258 14.0597 -0.959626 11.3781 0.413929C8.06289 2.11198 10.3845 8.74233 10.3845 8.74233L15.4428 9.83979L17.6661 9.27225L18.0452 4.06162L14.9536 1.5258Z" fill="#CE634D"/>
<path d="M14.7202 6.00204C15.422 6.70376 16.553 8.0015 17.6659 9.27228L20.7748 8.47857C23.4347 -0.024325 14.9536 1.52583 14.9536 1.52583C14.9536 1.52583 13.0197 4.30142 14.7202 6.00204Z" fill="#E7795F"/>
<path d="M27.6329 26.6051L24.797 20.2C24.0612 18.7728 22.7177 17.7565 21.1444 17.4367L20.1803 17.2407C20.1449 17.2335 20.1094 17.2276 20.0741 17.2206L15.8815 19.236L10.8696 17.2664L10.0037 17.4424C8.44641 17.7589 7.11352 18.7581 6.37277 20.1641L3.30176 25.9932L4.29363 29.1778L7.43695 28.6189L8.73199 26.4718L9.03785 35.0644C9.03785 35.0644 11.8046 36.7269 15.4673 36.7269C19.13 36.7269 22.1385 35.0644 22.1385 35.0644L20.3946 27.6517L27.6329 26.6051Z" fill="#02C0FC"/>
<path d="M20.0741 17.2206C17.0769 16.6261 13.9912 16.6321 10.9961 17.2407L10.8696 17.2664C11.2817 19.2321 13.1828 22.1246 15.4674 22.1246C17.7696 22.1248 19.6822 19.2089 20.0741 17.2206Z" fill="#6AD9FB"/>
<path d="M11.297 16.0504L9.1665 16.7417C8.59345 16.9276 8.20134 17.4566 8.19021 18.059L7.96908 29.9936C7.95138 30.9461 9.07849 31.469 9.78841 30.8337C10.4245 30.2644 11.0257 29.5181 11.2207 28.6309C11.5938 26.9327 12.1399 19.7434 12.3478 16.8729C12.3889 16.3034 11.8401 15.8741 11.297 16.0504Z" fill="#5B4982"/>
<path d="M19.8793 16.0504L22.0099 16.7417C22.5829 16.9276 22.975 17.4566 22.9862 18.059L23.2073 29.9936C23.225 30.9461 22.0979 31.469 21.388 30.8337C20.7519 30.2644 20.1507 29.5181 19.9557 28.6309C19.5826 26.9327 19.0365 19.7434 18.8286 16.8729C18.7874 16.3034 19.3361 15.8741 19.8793 16.0504Z" fill="#6C618C"/>
<path d="M20.3622 7.58521H10.8143C9.94396 7.58521 9.23181 8.29735 9.23181 9.16771C9.23181 10.0381 9.94396 10.7502 10.8143 10.7502H20.3622C21.2325 10.7502 21.9447 10.0381 21.9447 9.16771C21.9447 8.29735 21.2325 7.58521 20.3622 7.58521Z" fill="#FFAA7B"/>
<path d="M24.9824 34.7291L18.6189 35.6787C17.9139 35.7839 17.2509 35.2931 17.1457 34.5881L15.6023 24.2461C15.4971 23.5411 15.9879 22.8782 16.6929 22.7729L23.0564 21.8234C23.7614 21.7181 24.4243 22.2089 24.5296 22.9139L26.0728 33.2559C26.1782 33.961 25.6874 34.624 24.9824 34.7291Z" fill="#E8F8FC"/>
<path d="M1.04449 36.8826C1.67062 36.7233 2.24555 36.3413 2.63426 35.7696L6.96938 29.3945L7.43719 28.6189L3.30188 25.9932L2.97949 26.6051L0.535078 29.8202C0.510586 30.3066 0.498047 30.7963 0.498047 31.2889C0.498047 33.2032 0.68707 35.0732 1.04449 36.8826Z" fill="#FFC7AB"/>
<path d="M26.9442 26.1459L17.8559 25.5559C16.4916 25.4673 15.3028 26.5111 15.2142 27.8755C15.1256 29.2398 16.1694 30.4286 17.5337 30.5172L26.6221 31.1071C27.9864 31.1957 29.1751 30.1519 29.2637 28.7875C29.3523 27.4233 28.3085 26.2345 26.9442 26.1459Z" fill="#FFC7AB"/>
<path d="M15.4719 13.9869C14.1859 13.9869 13.1337 15.0392 13.1337 16.3253V17.2336C13.1337 18.5196 14.1859 19.572 15.4719 19.572C16.7579 19.572 17.8102 18.5198 17.8102 17.2336V16.3253C17.8102 15.0392 16.7579 13.9869 15.4719 13.9869Z" fill="#FFAA7B"/>
<path d="M20.2155 8.77665C20.1637 8.64153 20.0989 8.50478 20.0178 8.37528C19.8725 8.14314 19.8006 7.87361 19.8204 7.60044C19.8762 6.83228 19.8466 5.32888 18.8376 4.87489C17.9808 4.48935 16.9295 4.71259 16.2592 4.93548C15.8239 5.08021 15.3521 5.08021 14.9169 4.93548C14.2466 4.71247 13.1954 4.48935 12.3385 4.87489C11.3271 5.33005 11.2999 6.84001 11.3563 7.6063C11.3757 7.87138 11.3106 8.13657 11.1672 8.36134C11.0846 8.49083 11.0187 8.62794 10.9658 8.76364C10.7945 9.20392 10.7444 9.68134 10.8087 10.1489L10.8935 11.3627C10.9939 12.7992 11.4955 14.1788 12.3411 15.3442L12.5925 15.6906C13.1713 16.4883 14.0972 17.4275 15.0826 17.4275H16.0936C17.0791 17.4275 18.005 16.4883 18.5838 15.6906L18.8352 15.3442C19.6808 14.1786 20.1824 12.7992 20.2828 11.3627L20.3676 10.1494C20.4312 9.68626 20.383 9.21353 20.2155 8.77665Z" fill="#FFC7AB"/>
<path d="M36.9195 33.8154L34.5652 29.0905L34.5092 26.8773L31.5565 24.8064L31.1362 25.2631C29.9801 26.5194 29.7367 28.3662 30.5279 29.8792L33.4993 35.5616C34.0046 36.528 35.2122 36.88 36.1577 36.3367C37.0388 35.8303 37.3728 34.725 36.9195 33.8154Z" fill="#EFA29A"/>
<path d="M43.4576 12.7153C42.903 13.2438 43.7041 14.0529 44.2773 13.5464C44.4929 13.3559 44.821 13.356 45.0364 13.5464C45.6091 14.0525 46.4116 13.2448 45.856 12.7153C45.1886 12.0792 44.1259 12.0785 43.4576 12.7153Z" fill="#5B4982"/>
<path d="M41.3258 16.6515C40.7066 16.0615 41.6011 15.1581 42.2409 15.7236C42.4816 15.9363 42.8479 15.9363 43.0885 15.7236C43.7279 15.1586 44.6239 16.0604 44.0036 16.6515C43.2585 17.3617 42.0718 17.3625 41.3258 16.6515Z" fill="#CC7066"/>
<path d="M39.4734 12.7153C38.9189 13.2438 39.72 14.0529 40.2931 13.5464C40.5087 13.3559 40.8368 13.356 41.0523 13.5464C41.6249 14.0525 42.4275 13.2448 41.8719 12.7153C41.2045 12.0792 40.1416 12.0785 39.4734 12.7153Z" fill="#5B4982"/>
<path d="M16.5494 9.48638C15.959 10.0491 16.8119 10.9106 17.422 10.3711C17.6515 10.1683 18.001 10.1684 18.2303 10.3711C18.84 10.91 19.6944 10.0499 19.103 9.48638C18.3925 8.80915 17.2608 8.80833 16.5494 9.48638Z" fill="#5B4982"/>
<path d="M14.1625 13.654C13.5033 13.0258 14.4556 12.064 15.1369 12.6661C15.3932 12.8927 15.7832 12.8925 16.0394 12.6661C16.7201 12.0645 17.674 13.0247 17.0137 13.654C16.2202 14.4101 14.9568 14.4111 14.1625 13.654Z" fill="#FC9460"/>
<path d="M12.073 9.48638C11.4826 10.0491 12.3355 10.9106 12.9457 10.3711C13.1753 10.1683 13.5246 10.1684 13.754 10.3711C14.3636 10.91 15.2181 10.0499 14.6267 9.48638C13.9162 8.80915 12.7845 8.80833 12.073 9.48638Z" fill="#5B4982"/>
</g>
<defs>
<clipPath id="clip0_160_2985">
<rect width="60" height="60" fill="white"/>
</clipPath>
</defs>
</svg>
