<svg width="60" height="60" viewBox="0 0 60 60" fill="none" xmlns="http://www.w3.org/2000/svg">
<path d="M56.25 30L50.4534 35.4825L52.7353 43.1287L44.9691 44.9691L43.1287 52.7353L35.4825 50.4534L30 56.25L24.5175 50.4534L16.8713 52.7353L15.0309 44.9691L7.26469 43.1287L9.54656 35.4825L3.75 30L9.54656 24.5175L7.26469 16.8713L15.0309 15.0309L16.8713 7.26469L24.5175 9.54656L30 3.75L35.4825 9.54656L43.1287 7.26469L44.9691 15.0309L52.7353 16.8713L50.4534 24.5175L56.25 30Z" fill="#F2CF7D"/>
<path d="M48.5784 22.6425L50.4768 24.4378L52.7352 16.8713L50.4618 16.3322L48.5784 22.6425Z" fill="#EDBC49"/>
<path d="M56.2499 30L54.3215 28.1756L48.5784 33.6075L50.8602 41.2537L43.094 43.094L41.2537 50.8603L33.6074 48.5784L28.1755 54.3215L29.9999 56.25L35.4824 50.4534L43.1287 52.7353L44.969 44.969L52.7352 43.1287L50.4534 35.4825L56.2499 30Z" fill="#EDBC49"/>
<path d="M22.6426 48.5784L16.3323 50.4619L16.8713 52.7353L24.4388 50.4769L22.6426 48.5784Z" fill="#EDBC49"/>
<path d="M30 46.875C39.3198 46.875 46.875 39.3198 46.875 30C46.875 20.6802 39.3198 13.125 30 13.125C20.6802 13.125 13.125 20.6802 13.125 30C13.125 39.3198 20.6802 46.875 30 46.875Z" fill="#EDBC49"/>
<path d="M35.625 25.7812H24.375C24.1264 25.7812 23.8879 25.6825 23.7121 25.5067C23.5363 25.3308 23.4375 25.0924 23.4375 24.8438C23.4375 24.5951 23.5363 24.3567 23.7121 24.1808C23.8879 24.005 24.1264 23.9062 24.375 23.9062H35.625C35.8736 23.9062 36.1121 24.005 36.2879 24.1808C36.4637 24.3567 36.5625 24.5951 36.5625 24.8438C36.5625 25.0924 36.4637 25.3308 36.2879 25.5067C36.1121 25.6825 35.8736 25.7812 35.625 25.7812Z" fill="#DB3C28"/>
<path d="M35.625 22.5H45C45.7459 22.5 46.4613 22.7963 46.9887 23.3238C47.5162 23.8512 47.8125 24.5666 47.8125 25.3125V28.125C47.8125 30.1141 47.0223 32.0218 45.6158 33.4283C44.2093 34.8348 42.3016 35.625 40.3125 35.625C38.3234 35.625 36.4157 34.8348 35.0092 33.4283C33.6027 32.0218 32.8125 30.1141 32.8125 28.125V25.3125C32.8125 24.5666 33.1088 23.8512 33.6363 23.3238C34.1637 22.7963 34.8791 22.5 35.625 22.5Z" fill="#495059"/>
<path d="M40.3125 32.8125C40.1272 32.8125 39.9459 32.7575 39.7918 32.6545C39.6377 32.5514 39.5175 32.405 39.4466 32.2338C39.3757 32.0625 39.3571 31.874 39.3932 31.6922C39.4294 31.5103 39.5187 31.3433 39.6497 31.2122L43.3997 27.4622C43.5765 27.2914 43.8134 27.1969 44.0592 27.1991C44.305 27.2012 44.5401 27.2998 44.7139 27.4736C44.8878 27.6474 44.9864 27.8826 44.9885 28.1284C44.9906 28.3742 44.8961 28.611 44.7254 28.7878L40.9754 32.5378C40.8884 32.625 40.7851 32.6942 40.6714 32.7413C40.5576 32.7885 40.4357 32.8127 40.3125 32.8125Z" fill="#636971"/>
<path d="M36.5625 30.9375C36.3772 30.9375 36.1959 30.8825 36.0418 30.7795C35.8877 30.6764 35.7675 30.53 35.6966 30.3588C35.6257 30.1875 35.6071 29.999 35.6432 29.8172C35.6794 29.6353 35.7687 29.4683 35.8997 29.3372L39.6497 25.5872C39.8265 25.4164 40.0634 25.3219 40.3092 25.3241C40.555 25.3262 40.7901 25.4248 40.9639 25.5986C41.1378 25.7724 41.2364 26.0076 41.2385 26.2534C41.2406 26.4992 41.1461 26.736 40.9754 26.9128L37.2254 30.6628C37.1384 30.75 37.0351 30.8192 36.9214 30.8663C36.8076 30.9135 36.6857 30.9377 36.5625 30.9375Z" fill="#636971"/>
<path d="M15 22.5H24.375C25.1209 22.5 25.8363 22.7963 26.3637 23.3238C26.8912 23.8512 27.1875 24.5666 27.1875 25.3125V28.125C27.1875 30.1141 26.3973 32.0218 24.9908 33.4283C23.5843 34.8348 21.6766 35.625 19.6875 35.625C17.6984 35.625 15.7907 34.8348 14.3842 33.4283C12.9777 32.0218 12.1875 30.1141 12.1875 28.125V25.3125C12.1875 24.5666 12.4838 23.8512 13.0113 23.3238C13.5387 22.7963 14.2541 22.5 15 22.5Z" fill="#495059"/>
<path d="M19.6875 32.8125C19.5022 32.8125 19.3209 32.7575 19.1668 32.6545C19.0127 32.5514 18.8925 32.405 18.8216 32.2338C18.7507 32.0625 18.7321 31.874 18.7682 31.6922C18.8044 31.5103 18.8937 31.3433 19.0247 31.2122L22.7747 27.4622C22.9515 27.2914 23.1884 27.1969 23.4342 27.1991C23.68 27.2012 23.9151 27.2998 24.0889 27.4736C24.2628 27.6474 24.3614 27.8826 24.3635 28.1284C24.3656 28.3742 24.2711 28.611 24.1004 28.7878L20.3504 32.5378C20.2634 32.625 20.1601 32.6942 20.0464 32.7413C19.9326 32.7885 19.8107 32.8127 19.6875 32.8125Z" fill="#636971"/>
<path d="M15.9375 30.9375C15.7522 30.9375 15.5709 30.8825 15.4168 30.7795C15.2627 30.6764 15.1425 30.53 15.0716 30.3588C15.0007 30.1875 14.9821 29.999 15.0182 29.8172C15.0544 29.6353 15.1437 29.4683 15.2747 29.3372L19.0247 25.5872C19.2015 25.4164 19.4384 25.3219 19.6842 25.3241C19.93 25.3262 20.1651 25.4248 20.3389 25.5986C20.5128 25.7724 20.6114 26.0076 20.6135 26.2534C20.6156 26.4992 20.5211 26.736 20.3504 26.9128L16.6004 30.6628C16.5134 30.75 16.4101 30.8192 16.2964 30.8663C16.1826 30.9135 16.0607 30.9377 15.9375 30.9375Z" fill="#636971"/>
<path d="M40.3125 36.5625C38.0755 36.56 35.9308 35.6703 34.349 34.0885C32.7672 32.5067 31.8775 30.362 31.875 28.125V25.3125C31.876 24.3183 32.2715 23.365 32.9745 22.662C33.6775 21.959 34.6308 21.5635 35.625 21.5625H45C45.9942 21.5635 46.9475 21.959 47.6505 22.662C48.3535 23.365 48.749 24.3183 48.75 25.3125V28.125C48.7475 30.362 47.8578 32.5067 46.276 34.0885C44.6942 35.6703 42.5495 36.56 40.3125 36.5625ZM35.625 23.4375C35.1279 23.4381 34.6513 23.6358 34.2998 23.9873C33.9483 24.3388 33.7506 24.8154 33.75 25.3125V28.125C33.75 29.8655 34.4414 31.5347 35.6721 32.7654C36.9028 33.9961 38.572 34.6875 40.3125 34.6875C42.053 34.6875 43.7222 33.9961 44.9529 32.7654C46.1836 31.5347 46.875 29.8655 46.875 28.125V25.3125C46.8744 24.8154 46.6767 24.3388 46.3252 23.9873C45.9737 23.6358 45.4971 23.4381 45 23.4375H35.625Z" fill="#E1503C"/>
<path d="M19.6875 36.5625C17.4505 36.56 15.3058 35.6703 13.724 34.0885C12.1422 32.5067 11.2525 30.362 11.25 28.125V25.3125C11.251 24.3183 11.6465 23.365 12.3495 22.662C13.0525 21.959 14.0058 21.5635 15 21.5625H24.375C25.3692 21.5635 26.3225 21.959 27.0255 22.662C27.7285 23.365 28.124 24.3183 28.125 25.3125V28.125C28.1225 30.362 27.2328 32.5067 25.651 34.0885C24.0692 35.6703 21.9245 36.56 19.6875 36.5625ZM15 23.4375C14.5029 23.4381 14.0263 23.6358 13.6748 23.9873C13.3233 24.3388 13.1256 24.8154 13.125 25.3125V28.125C13.125 29.8655 13.8164 31.5347 15.0471 32.7654C16.2778 33.9961 17.947 34.6875 19.6875 34.6875C21.428 34.6875 23.0972 33.9961 24.3279 32.7654C25.5586 31.5347 26.25 29.8655 26.25 28.125V25.3125C26.2494 24.8154 26.0517 24.3388 25.7002 23.9873C25.3487 23.6358 24.8721 23.4381 24.375 23.4375H15Z" fill="#E1503C"/>
</svg>
