<svg width="60" height="60" viewBox="0 0 60 60" fill="none" xmlns="http://www.w3.org/2000/svg">
<g clip-path="url(#clip0_160_2944)">
<path d="M46.2644 22.4669C36.0693 11.2068 33.7534 2.44928 33.7534 2.44928C33.7534 2.44928 31.9877 3.23724 30.0001 5.04258L27.4979 33.7268L30.0001 58.2406H30.0002C42.2972 58.2405 52.2659 48.2718 52.2659 35.9749C52.2658 30.8955 49.4291 25.9623 46.2644 22.4669Z" fill="#FF6200"/>
<path d="M26.2468 9.95592C24.9715 12.5067 24.6711 15.3824 24.6833 17.5892C24.6951 19.73 23.1869 21.5776 21.0878 21.9975C19.6212 22.2908 18.1051 21.8318 17.0474 20.7741L14.9869 18.7136C14.9869 18.7136 11.9322 22.9256 11.4087 23.718C9.05735 27.2773 7.70076 31.5514 7.73501 36.1444C7.82626 48.4109 17.7334 58.2407 30.0001 58.2407V5.0426C28.7 6.22349 27.305 7.83953 26.2468 9.95592Z" fill="#FD7D21"/>
<path d="M47.5687 21.286C42.4816 15.6674 39.4584 10.7213 37.8178 7.5614C36.0411 4.13873 35.4589 2.01635 35.4544 1.99946L34.9256 0L33.0367 0.842502C32.9292 0.890474 31.6361 1.47986 30 2.74707L28.7489 4.95144L30 7.54557C30.9778 6.44878 31.9863 5.62891 32.7973 5.06134C34.1206 8.42713 37.475 15.3807 44.9603 23.6479C46.6278 25.4896 50.5064 30.3776 50.5064 35.975C50.5064 47.2822 41.3073 56.4814 30.0002 56.4814L28.7489 58.749L30 60.0001C43.2475 60 54.0251 49.2225 54.0251 35.975C54.0252 31.1717 51.6719 25.8179 47.5687 21.286Z" fill="#FFB62D"/>
<path d="M15.541 50.5436C11.6823 46.7146 9.53496 41.5961 9.49426 36.1314C9.46376 32.0405 10.6334 28.0833 12.8766 24.6879C13.1505 24.2734 14.2491 22.7406 15.2028 21.4179L15.8032 22.0183C17.2802 23.4953 19.3841 24.1325 21.4327 23.7228C24.3519 23.1389 26.4589 20.5555 26.4426 17.5797C26.4324 15.7381 26.6632 13.0572 27.8203 10.7428C28.4479 9.48755 29.2141 8.42736 30 7.54568V2.74707C28.2768 4.08196 26.173 6.16904 24.673 9.16911C23.2051 12.105 22.9115 15.3738 22.9238 17.5988C22.931 18.8937 22.0136 20.0181 20.7425 20.2722C19.8513 20.4503 18.9345 20.1732 18.2913 19.53L14.7729 16.0116L13.5626 17.6806C13.437 17.8538 10.4792 21.9331 9.94067 22.7481C7.31112 26.7286 5.93999 31.3655 5.97553 36.1574C6.02315 42.5574 8.53998 48.5534 13.0624 53.0412C17.5844 57.5287 23.5997 60 30 60V56.4813C24.5345 56.4813 19.3995 54.3726 15.541 50.5436Z" fill="#FDCB02"/>
<path d="M30.0002 24.1669C29.9871 24.1669 29.9741 24.1673 29.9611 24.1673L27.0292 37.929L29.9611 51.6906C29.9741 51.6906 29.9871 51.6911 30.0002 51.6911C37.6007 51.6911 43.7623 45.5296 43.7623 37.929C43.7623 30.3284 37.6007 24.1669 30.0002 24.1669Z" fill="#ED3800"/>
<path d="M16.2379 37.929C16.2379 45.5166 22.3783 51.6695 29.961 51.6906V24.1674C22.3785 24.1885 16.2379 30.3414 16.2379 37.929Z" fill="#FF4B00"/>
<path d="M37.4666 29.851H33.566L29.961 35.1302L28.749 39.9824L29.961 40.8424L37.4666 29.851Z" fill="#D9E7EC"/>
<path d="M35.9202 37.2366C33.4737 37.2366 31.6272 38.8753 31.6272 41.7373C31.6272 44.6223 33.4736 46.2379 35.9202 46.2379C38.3667 46.2379 40.2131 44.6223 40.2131 41.7373C40.2131 38.8753 38.3666 37.2366 35.9202 37.2366ZM35.9202 43.7452C35.4124 43.7452 34.9047 43.2836 34.9047 41.7372C34.9047 40.1908 35.4124 39.7292 35.9202 39.7292C36.4279 39.7292 36.9357 40.1908 36.9357 41.7372C36.9357 43.2836 36.4279 43.7452 35.9202 43.7452Z" fill="#D9E7EC"/>
<path d="M26.4341 46.0071L29.9609 40.8424V35.1302L22.5336 46.0071H26.4341Z" fill="#FAFCFD"/>
<path d="M28.3729 34.1208C28.3729 31.2589 26.5265 29.6201 24.08 29.6201C21.6334 29.6201 19.787 31.2588 19.787 34.1208C19.787 37.0058 21.6334 38.6215 24.08 38.6215C26.5265 38.6215 28.3729 37.0058 28.3729 34.1208ZM23.0645 34.1208C23.0645 32.5744 23.5722 32.1128 24.08 32.1128C24.5877 32.1128 25.0955 32.5744 25.0955 34.1208C25.0955 35.6672 24.5877 36.1288 24.08 36.1288C23.5722 36.1288 23.0645 35.6672 23.0645 34.1208Z" fill="#FAFCFD"/>
</g>
<defs>
<clipPath id="clip0_160_2944">
<rect width="60" height="60" fill="white"/>
</clipPath>
</defs>
</svg>
