<svg width="20" height="20" viewBox="0 0 20 20" fill="none" xmlns="http://www.w3.org/2000/svg">
<g id="tabler-icon-map-pin">
<g id="Vector">
<path d="M7.49992 9.16666C7.49992 9.8297 7.76331 10.4656 8.23215 10.9344C8.70099 11.4033 9.33688 11.6667 9.99992 11.6667C10.663 11.6667 11.2988 11.4033 11.7677 10.9344C12.2365 10.4656 12.4999 9.8297 12.4999 9.16666C12.4999 8.50362 12.2365 7.86773 11.7677 7.39889C11.2988 6.93005 10.663 6.66666 9.99992 6.66666C9.33688 6.66666 8.70099 6.93005 8.23215 7.39889C7.76331 7.86773 7.49992 8.50362 7.49992 9.16666Z" stroke="#65758B" stroke-width="1.5" stroke-linecap="round" stroke-linejoin="round"/>
<path d="M14.7141 13.8808L11.1783 17.4167C10.8657 17.7289 10.4421 17.9042 10.0003 17.9042C9.5586 17.9042 9.13493 17.7289 8.82242 17.4167L5.28576 13.8808C4.35344 12.9485 3.71853 11.7606 3.46133 10.4674C3.20412 9.17419 3.33616 7.83376 3.84076 6.61561C4.34535 5.39745 5.19984 4.35628 6.29616 3.62376C7.39248 2.89123 8.68139 2.50024 9.99992 2.50024C11.3184 2.50024 12.6074 2.89123 13.7037 3.62376C14.8 4.35628 15.6545 5.39745 16.1591 6.61561C16.6637 7.83376 16.7957 9.17419 16.5385 10.4674C16.2813 11.7606 15.6464 12.9485 14.7141 13.8808Z" stroke="#65758B" stroke-width="1.5" stroke-linecap="round" stroke-linejoin="round"/>
</g>
</g>
</svg>
