<svg width="20" height="20" viewBox="0 0 20 20" fill="none" xmlns="http://www.w3.org/2000/svg">
<g id="tabler-icon-map-pin">
<g id="Vector">
<path d="M7.50004 9.1669C7.50004 9.82994 7.76343 10.4658 8.23227 10.9347C8.70111 11.4035 9.337 11.6669 10 11.6669C10.6631 11.6669 11.299 11.4035 11.7678 10.9347C12.2366 10.4658 12.5 9.82994 12.5 9.1669C12.5 8.50386 12.2366 7.86797 11.7678 7.39913C11.299 6.93029 10.6631 6.6669 10 6.6669C9.337 6.6669 8.70111 6.93029 8.23227 7.39913C7.76343 7.86797 7.50004 8.50386 7.50004 9.1669Z" stroke="#65758B" stroke-width="1.5" stroke-linecap="round" stroke-linejoin="round"/>
<path d="M14.7142 13.8811L11.1784 17.4169C10.8659 17.7291 10.4422 17.9045 10.0005 17.9045C9.55872 17.9045 9.13506 17.7291 8.82254 17.4169L5.28588 13.8811C4.35356 12.9487 3.71866 11.7608 3.46145 10.4676C3.20424 9.17443 3.33629 7.83401 3.84088 6.61585C4.34547 5.3977 5.19996 4.35653 6.29628 3.624C7.3926 2.89147 8.68152 2.50049 10 2.50049C11.3186 2.50049 12.6075 2.89147 13.7038 3.624C14.8001 4.35653 15.6546 5.3977 16.1592 6.61585C16.6638 7.83401 16.7958 9.17443 16.5386 10.4676C16.2814 11.7608 15.6465 12.9487 14.7142 13.8811Z" stroke="#65758B" stroke-width="1.5" stroke-linecap="round" stroke-linejoin="round"/>
</g>
</g>
</svg>
