<svg width="20" height="20" viewBox="0 0 20 20" fill="none" xmlns="http://www.w3.org/2000/svg">
<g id="tabler-icon-map-pin">
<g id="Vector">
<path d="M7.49992 9.1669C7.49992 9.82994 7.76331 10.4658 8.23215 10.9347C8.70099 11.4035 9.33688 11.6669 9.99992 11.6669C10.663 11.6669 11.2988 11.4035 11.7677 10.9347C12.2365 10.4658 12.4999 9.82994 12.4999 9.1669C12.4999 8.50386 12.2365 7.86797 11.7677 7.39913C11.2988 6.93029 10.663 6.6669 9.99992 6.6669C9.33688 6.6669 8.70099 6.93029 8.23215 7.39913C7.76331 7.86797 7.49992 8.50386 7.49992 9.1669Z" stroke="#65758B" stroke-width="1.5" stroke-linecap="round" stroke-linejoin="round"/>
<path d="M14.7141 13.8811L11.1783 17.4169C10.8657 17.7291 10.4421 17.9045 10.0003 17.9045C9.5586 17.9045 9.13493 17.7291 8.82242 17.4169L5.28576 13.8811C4.35344 12.9487 3.71853 11.7608 3.46133 10.4676C3.20412 9.17443 3.33616 7.83401 3.84076 6.61585C4.34535 5.3977 5.19984 4.35653 6.29616 3.624C7.39248 2.89147 8.68139 2.50049 9.99992 2.50049C11.3184 2.50049 12.6074 2.89147 13.7037 3.624C14.8 4.35653 15.6545 5.3977 16.1591 6.61585C16.6637 7.83401 16.7957 9.17443 16.5385 10.4676C16.2813 11.7608 15.6464 12.9487 14.7141 13.8811Z" stroke="#65758B" stroke-width="1.5" stroke-linecap="round" stroke-linejoin="round"/>
</g>
</g>
</svg>
