<svg width="60" height="60" viewBox="0 0 60 60" fill="none" xmlns="http://www.w3.org/2000/svg">
<g clip-path="url(#clip0_160_2961)">
<path d="M58.3652 32.6514L49.0912 47.273L41.6657 52.2835L32.6513 58.3652L17.1437 42.8563L42.4023 16.6885L46.7537 21.0399L58.3652 32.6514Z" fill="#FAD989"/>
<path d="M31.1486 41.7664L41.6657 52.2835L32.6513 58.3651L17.1437 42.8563L42.4023 16.6885L46.7537 21.0399L31.1488 36.6438C29.7342 38.0584 29.7341 40.3519 31.1486 41.7664Z" fill="#F6CA56"/>
<path d="M30 0C27.7796 0 25.6147 0.241523 23.532 0.699141C10.072 3.65719 0 15.6513 0 30C0 46.569 13.431 60 30 60C35.1036 60 39.909 58.7262 44.1168 56.4769C53.5683 51.4288 60 41.4654 60 30C60 13.431 46.569 0 30 0ZM12.3178 43.8246C11.5125 44.6299 10.1651 44.5056 9.53473 43.5566C6.95695 39.6724 5.45496 35.0119 5.45496 30C5.45496 18.3366 13.6507 8.53629 24.5812 6.05988C26.3248 5.66391 28.1394 5.45496 30 5.45496C35.0119 5.45496 39.6724 6.95695 43.5566 9.53473C44.5056 10.165 44.6299 11.5124 43.8246 12.3178L40.9233 15.2191L27.8859 22.9429L24.5716 24.9061L15.2193 40.9233L12.3178 43.8246ZM41.2106 51.8272L37.4786 55.0799L30.1412 55.3274L28.8312 54.545C28.8312 54.545 28.836 54.5353 28.8457 54.5173C24.2733 54.3071 20.0282 52.8438 16.4434 50.4653C15.4944 49.835 15.3701 48.4876 16.1754 47.6822L19.0719 44.7857L21.8791 38.3105L31.6529 32.2046L47.6822 16.1754C48.4875 15.3701 49.8349 15.4944 50.4653 16.4434C53.043 20.3276 54.545 24.9881 54.545 30C54.545 39.4889 49.119 47.745 41.2106 51.8272Z" fill="#FF7F5A"/>
<path d="M44.1168 56.4769C39.909 58.7262 35.1036 60 30 60C13.431 60 0 46.569 0 30C0 15.6513 10.072 3.6572 23.532 0.699158L24.5812 6.0599C13.6507 8.53631 5.45496 18.3366 5.45496 30C5.45496 35.0119 6.95695 39.6724 9.53473 43.5566C10.165 44.5056 11.5124 44.6299 12.3178 43.8246L15.2191 40.9233L24.5715 24.9061L27.8858 22.9429L28.6609 26.9043C28.6609 26.9043 27.369 30.6557 31.6528 32.2047L16.1754 47.6822C15.3701 48.4875 15.4944 49.8349 16.4434 50.4653C20.3276 53.0431 24.9881 54.5451 30 54.5451C34.0351 54.5451 37.8469 53.5634 41.2106 51.8272V51.8284C41.2106 51.8284 39.7738 55.6003 44.1168 56.4769Z" fill="#FF5D29"/>
<path d="M40.9292 15.2155L29.2839 25.1161L15.2154 40.9293L5.48385 31.1977L2.51971 25.7016L0.511815 24.4569C0.44537 24.1129 0.404354 23.7627 0.388651 23.4089L0.00720603 14.6227C-0.080919 12.5943 0.685722 10.6214 2.12139 9.18574L9.1858 2.12133C10.6213 0.685783 12.5942 -0.0808579 14.6226 0.00726708L23.4087 0.38883C25.2199 0.467345 26.9355 1.22192 28.2166 2.50301L39.2533 13.5397L40.9292 15.2155Z" fill="#FAD989"/>
<path d="M40.9292 15.2155L15.2154 40.9292L2.50283 28.2166C1.22185 26.9356 0.467167 25.2199 0.388769 23.4089L0.00720603 14.6226C-0.080919 12.5942 0.685722 10.6214 2.12139 9.18572L4.79209 6.51501C3.99041 9.45865 3.5751 14.1928 7.3517 17.9695L18.5258 29.1436C19.9402 30.558 22.2337 30.5581 23.6481 29.1437L39.2533 13.5396L40.9292 15.2155Z" fill="#F6CA56"/>
<path d="M12.0822 17.5368C15.0947 17.5368 17.5368 15.0947 17.5368 12.0822C17.5368 9.06967 15.0947 6.62756 12.0822 6.62756C9.06967 6.62756 6.62756 9.06967 6.62756 12.0822C6.62756 15.0947 9.06967 17.5368 12.0822 17.5368Z" fill="#687DAA"/>
<path d="M12.0822 13.9003C13.0863 13.9003 13.9004 13.0863 13.9004 12.0821C13.9004 11.078 13.0863 10.264 12.0822 10.264C11.0781 10.264 10.264 11.078 10.264 12.0821C10.264 13.0863 11.0781 13.9003 12.0822 13.9003Z" fill="#4A66A0"/>
<path d="M48.56 36.5767L37.2601 47.8779L33.3265 45.9968L30.8525 41.4292L42.132 30.1486C42.8395 29.441 43.9866 29.441 44.694 30.1486L48.56 34.0146C49.2675 34.7221 49.2675 35.8691 48.56 36.5767Z" fill="#687DAA"/>
<path d="M37.26 47.8778L36.5767 48.5599C35.8691 49.2675 34.7221 49.2675 34.0147 48.5599L30.1486 44.6939C29.4412 43.9863 29.4412 42.8393 30.1486 42.1319L30.8321 41.4497L30.8526 41.4292C30.9419 41.5463 31.0409 41.6587 31.1484 41.7661L37.26 47.8778Z" fill="#4A66A0"/>
<path d="M17.5441 31.3177C18.9489 29.9149 19.1821 27.8709 18.065 26.7522C16.9478 25.6334 14.9034 25.8637 13.4987 27.2665C12.0939 28.6693 11.8607 30.7134 12.9778 31.8321C14.0949 32.9508 16.1393 32.7205 17.5441 31.3177Z" fill="white"/>
<path d="M26.7413 18.0721C27.8577 19.1903 29.9009 18.9605 31.3052 17.5587C32.7095 16.1569 32.9428 14.114 31.8266 12.9958C30.7102 11.8774 28.667 12.1074 27.2627 13.5092C25.8583 14.9108 25.625 16.9538 26.7413 18.0721Z" fill="white"/>
<path d="M14.3846 26.4903L13.3714 25.4755C13.0181 25.1216 13.0185 24.5484 13.3724 24.1949C13.7262 23.8416 14.2996 23.8419 14.653 24.1959L15.6662 25.2106C16.0195 25.5645 16.0192 26.1378 15.6653 26.4912C15.3115 26.8445 14.7381 26.8442 14.3846 26.4903Z" fill="#495560"/>
<path d="M25.2038 15.6921L24.1907 14.6774C23.8374 14.3235 23.8379 13.7501 24.1918 13.3968C24.5457 13.0436 25.1191 13.0439 25.4724 13.3978L26.4855 14.4126C26.8388 14.7665 26.8383 15.3399 26.4844 15.6932C26.1305 16.0464 25.5571 16.046 25.2038 15.6921Z" fill="#495560"/>
<path d="M18.8179 22.9654C18.4646 22.6115 18.4651 22.0381 18.819 21.6848L21.6711 18.8376C22.025 18.4843 22.5984 18.4848 22.9517 18.8386C23.305 19.1925 23.3045 19.7659 22.9506 20.1193L20.0985 22.9664C19.7445 23.3198 19.1712 23.3193 18.8179 22.9654Z" fill="#495560"/>
</g>
<defs>
<clipPath id="clip0_160_2961">
<rect width="60" height="60" fill="white"/>
</clipPath>
</defs>
</svg>
