<svg width="60" height="60" viewBox="0 0 60 60" fill="none" xmlns="http://www.w3.org/2000/svg">
<g clip-path="url(#clip0_160_2879)">
<path d="M48.0058 23.1194C47.7809 23.1194 47.5559 23.0336 47.3844 22.8619C47.0411 22.5187 47.0411 21.9623 47.3844 21.619L49.8611 19.1421C50.2044 18.7989 50.7609 18.7989 51.104 19.1421C51.4473 19.4854 51.4473 20.0418 51.104 20.385L48.6273 22.8619C48.4557 23.0335 48.2308 23.1194 48.0058 23.1194Z" fill="#EA9B58"/>
<path d="M18.0528 49.7562C17.8279 49.7562 17.6029 49.6704 17.4313 49.4987L14.9545 47.022C14.6112 46.6787 14.6112 46.1222 14.9545 45.7791C15.2977 45.4359 15.8542 45.4359 16.1973 45.7791L18.6742 48.2559C19.0175 48.5991 19.0175 49.1556 18.6742 49.4987C18.5027 49.6703 18.2778 49.7562 18.0528 49.7562Z" fill="#EA9B58"/>
<path d="M27.6626 33.4253C31.2965 33.3675 34.4003 30.7343 34.988 27.1478C35.7665 22.3961 34.4611 17.37 31.0698 13.5417C30.7003 13.1245 30.0707 13.1099 29.6766 13.5039L28.3154 14.865C27.8104 15.3701 26.9561 15.1631 26.7276 14.4864C26.154 12.7879 25.2512 11.1762 24.0165 9.75224C23.654 9.33412 23.0092 9.31829 22.6178 9.7097L19.0422 13.2853C18.849 13.4785 18.5828 13.5801 18.3101 13.5648L8.24181 13C7.6731 12.9681 7.20201 13.4359 7.23001 14.0049L7.72912 24.1527C7.74247 24.4232 7.64076 24.6866 7.44927 24.8781L3.94701 28.3804C3.5556 28.7718 3.57142 29.4165 3.98954 29.7791C5.41349 31.0138 7.02517 31.9166 8.72369 32.4901C9.40044 32.7186 9.60751 33.5729 9.10232 34.078L7.74119 35.4392C7.34708 35.8333 7.36185 36.4629 7.77904 36.8324C11.6073 40.2237 16.6335 41.529 21.3851 40.7506C24.9716 40.163 27.6048 37.0592 27.6626 33.4253Z" fill="#FE860A"/>
<path d="M31.0699 13.5418C30.7004 13.1246 30.0708 13.1099 29.6767 13.5039L28.3156 14.865C28.2002 14.9805 28.0663 15.0569 27.926 15.1008C28.4241 16.8296 28.6917 18.6559 28.6917 20.5449C28.6917 30.1455 21.7984 38.1347 12.6917 39.8366C15.4676 40.9214 18.4777 41.2268 21.3853 40.7505C24.9718 40.1629 27.605 37.0589 27.6628 33.4251C31.2967 33.3673 34.4005 30.7341 34.9882 27.1476C35.7666 22.3961 34.4612 17.37 31.0699 13.5418Z" fill="#FE7701"/>
<path d="M45.5527 28.872C47.8604 28.872 49.7311 27.0012 49.7311 24.6935C49.7311 22.3858 47.8604 20.5151 45.5527 20.5151C43.245 20.5151 41.3743 22.3858 41.3743 24.6935C41.3743 27.0012 43.245 28.872 45.5527 28.872Z" fill="#FD5426"/>
<path d="M48.5074 21.7389C48.0657 21.2972 47.5495 20.9762 46.9995 20.7736C47.5326 22.2501 47.2082 23.9665 46.0249 25.15C44.8347 26.3401 43.1056 26.6611 41.6235 26.1153C41.8256 26.6746 42.1498 27.1997 42.5982 27.6481C44.2299 29.2798 46.8755 29.2798 48.5074 27.6481C50.1391 26.0164 50.1391 23.3707 48.5074 21.7389Z" fill="#EF4424"/>
<path d="M20.5573 55.5602C22.865 55.5602 24.7358 53.6895 24.7358 51.3818C24.7358 49.0741 22.865 47.2034 20.5573 47.2034C18.2497 47.2034 16.3789 49.0741 16.3789 51.3818C16.3789 53.6895 18.2497 55.5602 20.5573 55.5602Z" fill="#FD5426"/>
<path d="M23.512 48.4272C23.0658 47.981 22.5438 47.6578 21.9875 47.4557C22.5636 48.9504 22.2499 50.7094 21.0441 51.9151C19.8584 53.1008 18.1377 53.4241 16.6594 52.8866C16.863 53.4148 17.1767 53.9103 17.6028 54.3364C19.2345 55.9681 21.8802 55.9681 23.512 54.3364C25.1437 52.7046 25.1438 50.059 23.512 48.4272Z" fill="#EF4424"/>
<path d="M34.6747 40.2529C32.0534 40.2529 29.9285 43.6528 29.9285 47.8469C29.9285 51.7601 31.7786 54.9809 34.1557 55.3948C34.5696 57.7718 37.7903 59.622 41.7036 59.622C45.8976 59.622 49.2976 57.497 49.2976 54.8758C49.2976 54.1548 49.0391 53.4719 48.579 52.8598C52.7198 52.8212 56.058 50.7126 56.058 48.1153C56.058 46.3293 54.4788 44.7744 52.1463 43.9643C52.5622 43.6472 52.9687 43.2939 53.3588 42.9038C56.3245 39.9381 57.226 36.0314 55.3724 34.1779C53.5189 32.3243 49.6122 33.2258 46.6466 36.1915C46.2564 36.5816 45.9031 36.9883 45.586 37.404C44.776 35.0714 43.221 33.4923 41.4351 33.4923C38.8379 33.4923 36.7292 36.8305 36.6907 40.9713C36.0786 40.5114 35.3956 40.2529 34.6747 40.2529Z" fill="#FFC344"/>
<path d="M52.1461 43.9645C52.562 43.6473 52.9685 43.294 53.3587 42.9039C56.3243 39.9382 57.2258 36.0316 55.3723 34.178C54.2793 33.085 52.472 32.954 50.5651 33.6355C53.4339 37.8665 51.4707 45.3268 45.7588 51.0386C42.4104 54.387 38.4613 56.4466 34.9138 57.0004C36.1608 58.5548 38.7318 59.622 41.7034 59.622C45.8974 59.622 49.2974 57.497 49.2974 54.8758C49.2974 54.1548 49.0389 53.4719 48.5788 52.8598C52.7196 52.8213 56.0578 50.7126 56.0578 48.1154C56.0578 46.3294 54.4787 44.7745 52.1461 43.9645Z" fill="#FEB237"/>
<path d="M31.8581 36.3778L27.1717 31.6915V23.0384C27.1717 22.553 26.7782 22.1594 26.2928 22.1594C25.8074 22.1594 25.4139 22.553 25.4139 23.0384V29.9337L20.8018 25.3215V19.3021C20.8018 18.8167 20.4083 18.4232 19.9229 18.4232C19.4375 18.4232 19.044 18.8167 19.044 19.3021V23.5637L14.7289 19.2486C14.3856 18.9054 13.8291 18.9054 13.486 19.2486C13.1428 19.5919 13.1428 20.1484 13.486 20.4915L17.8011 24.8066H13.5396C13.0542 24.8066 12.6606 25.2001 12.6606 25.6855C12.6606 26.1709 13.0542 26.5644 13.5396 26.5644H19.5589L24.171 31.1766H17.2757C16.7903 31.1766 16.3968 31.5701 16.3968 32.0555C16.3968 32.5409 16.7903 32.9344 17.2757 32.9344H25.9288L30.6152 37.6207C30.7867 37.7923 31.0117 37.8782 31.2366 37.8782C31.4615 37.8782 31.6865 37.7924 31.8581 37.6207C32.2013 37.2776 32.2013 36.721 31.8581 36.3778Z" fill="#BB5D4C"/>
<path d="M51.6921 0.823609C47.805 -0.729243 43.4093 -0.0977196 40.4962 2.81556C37.583 5.72884 36.9514 10.1245 38.5043 14.0115C42.3914 15.5644 46.7871 14.9329 49.7003 12.0196C52.6134 9.10642 53.245 4.71072 51.6921 0.823609Z" fill="#FFC344"/>
<path d="M51.6921 0.823621C51.1427 0.604128 50.5831 0.429988 50.0191 0.298035C50.2964 3.24143 49.3884 6.17218 47.2537 8.30686C44.7522 10.8083 41.1577 11.626 37.7307 10.8244C37.8318 11.8978 38.0892 12.9728 38.5042 14.0116C42.3913 15.5644 46.787 14.9329 49.7001 12.0196C52.6133 9.10643 53.2449 4.71073 51.6921 0.823621Z" fill="#FEB237"/>
<path d="M48.0108 6.94408H46.8146L48.3371 5.42158C48.6803 5.07834 48.6803 4.52181 48.3371 4.17869C47.9938 3.83545 47.4373 3.83545 47.0942 4.17869L45.5717 5.70119V4.50482C45.5717 4.01943 45.1782 3.62592 44.6928 3.62592C44.2074 3.62592 43.8139 4.01943 43.8139 4.50482V7.45888L42.2605 9.0122V6.44697C42.2605 5.96158 41.867 5.56806 41.3816 5.56806C40.8962 5.56806 40.5027 5.96158 40.5027 6.44697V10.77L36.9652 14.3076C36.622 14.6508 36.622 15.2073 36.9652 15.5504C37.1368 15.722 37.3618 15.8079 37.5866 15.8079C37.8115 15.8079 38.0365 15.7221 38.2081 15.5504L41.7455 12.0129H46.0687C46.5541 12.0129 46.9476 11.6194 46.9476 11.134C46.9476 10.6486 46.5541 10.2551 46.0687 10.2551H43.5033L45.0566 8.70177H48.0107C48.4961 8.70177 48.8896 8.30826 48.8896 7.82287C48.8896 7.33748 48.4962 6.94408 48.0108 6.94408Z" fill="#ECA026"/>
<path d="M46.9894 46.8755H43.9178L47.1488 43.6445C47.492 43.3012 47.492 42.7447 47.1488 42.4016C46.8055 42.0584 46.249 42.0584 45.9059 42.4016L42.6749 45.6326V42.561C42.6749 42.0756 42.2814 41.6821 41.796 41.6821C41.3106 41.6821 40.9171 42.0756 40.9171 42.561V47.3904L37.4924 50.8151V45.6007C37.4924 45.1153 37.0989 44.7218 36.6135 44.7218C36.1281 44.7218 35.7346 45.1153 35.7346 45.6007V52.5729L29.8077 58.4998C29.4645 58.843 29.4645 59.3995 29.8077 59.7427C29.9793 59.9142 30.2043 60.0001 30.4292 60.0001C30.6541 60.0001 30.8791 59.9143 31.0506 59.7427L36.9774 53.8159H43.9496C44.4349 53.8159 44.8285 53.4224 44.8285 52.937C44.8285 52.4516 44.4349 52.0581 43.9496 52.0581H38.7352L42.1599 48.6334H46.9893C47.4747 48.6334 47.8682 48.2399 47.8682 47.7545C47.8682 47.2691 47.4748 46.8755 46.9894 46.8755Z" fill="#ECA026"/>
</g>
<defs>
<clipPath id="clip0_160_2879">
<rect width="60" height="60" fill="white"/>
</clipPath>
</defs>
</svg>
