<svg width="60" height="60" viewBox="0 0 60 60" fill="none" xmlns="http://www.w3.org/2000/svg">
<g clip-path="url(#clip0_160_2920)">
<path d="M59.9995 38.4878C60.0357 36.0374 57.112 36.3012 56.9349 36.2353C57.0577 36.0516 59.5728 34.5879 58.0896 32.6107C53.9427 27.0801 45.844 33.715 45.844 33.715C45.844 33.715 49.6509 23.9625 43.1104 21.728C40.7906 20.9354 40.1376 23.797 40.0199 23.9457C39.8841 23.7724 39.2699 20.9289 36.9307 21.728C30.3889 23.9625 34.1971 33.715 34.1971 33.715C34.1971 33.715 26.0985 27.0801 21.9515 32.6107C20.4812 34.5723 23.0015 36.0775 23.1062 36.2353C22.8993 36.3116 20.0054 36.0167 20.0416 38.4878C20.1463 45.3994 30.5984 44.7917 30.5984 44.7917C30.5984 44.7917 21.7847 50.4438 25.7635 56.0972C27.1743 58.1015 29.3855 56.1696 29.5665 56.1179C29.5756 56.339 28.4015 59.0002 30.7626 59.7295C37.3678 61.7661 40.0199 51.6373 40.0199 51.6373C40.0199 51.6373 42.6733 61.7661 49.2785 59.7295C51.6203 59.0067 50.4668 56.308 50.4746 56.1179C50.6867 56.1787 52.8552 58.1183 54.2776 56.0972C58.2564 50.4438 49.4427 44.7917 49.4427 44.7917C49.4427 44.7917 59.8961 45.3994 59.9995 38.4878Z" fill="#FFA4B8"/>
<path d="M28.8748 56.5472C28.0667 56.9985 26.7283 57.4679 25.7636 56.0972C23.2647 52.5466 25.8125 48.9961 28.0523 46.8471C29.8404 45.1316 32.8793 47.6502 31.0441 49.7039C29.4212 51.52 28.009 53.9814 28.8748 56.5472Z" fill="#FFBFCB"/>
<path d="M25.8308 34.5504C24.3605 36.512 26.8808 38.0172 26.9855 38.1749C26.7786 38.2512 23.8847 37.9564 23.9209 40.4275C23.9467 42.1305 24.6011 43.377 25.5722 44.2874C22.8774 43.6033 20.0959 42.0374 20.0416 38.4878C20.0054 36.0167 22.8993 36.3116 23.1062 36.2353C23.0015 36.0775 20.4812 34.5723 21.9515 32.6107C25.1118 28.3952 30.5674 31.2465 32.9842 32.8422C30.5546 32.0379 27.764 31.9732 25.8308 34.5504Z" fill="#FFBFCB"/>
<path d="M39.9474 23.7776C36.9134 25.3686 36.7288 29.0009 37.1318 31.8327C37.4312 33.9364 34.3499 34.4156 33.7966 32.4883C33.0241 29.7971 31.8247 23.4727 36.9306 21.728C38.988 21.0246 39.7109 23.1401 39.9474 23.7776Z" fill="#FFBFCB"/>
<path d="M46.0104 51.0127C45.6914 51.0127 45.3771 50.8658 45.1745 50.5887L42.3802 46.7663C42.0431 46.3051 42.1436 45.6579 42.6047 45.3208C43.0661 44.9834 43.7133 45.0842 44.0504 45.5454L46.8446 49.3678C47.3485 50.0571 46.8437 51.0127 46.0104 51.0127Z" fill="#FF8CA5"/>
<path d="M34.0307 51.0127C33.1968 51.0127 32.6928 50.0567 33.1965 49.3676L35.9909 45.5453C36.3279 45.0841 36.9751 44.9834 37.4366 45.3206C37.8977 45.6579 37.9983 46.3051 37.661 46.7663L34.8667 50.5887C34.6642 50.8658 34.3496 51.0127 34.0307 51.0127Z" fill="#FF8CA5"/>
<path d="M45.1794 41.1192C44.6081 41.1192 44.1443 40.6561 44.1443 40.0848C44.1443 39.614 44.4583 39.2167 44.8885 39.0914L49.3511 37.6168C49.8936 37.4375 50.4786 37.732 50.6577 38.2744C50.8371 38.8169 50.5425 39.402 50.0001 39.5812C45.1252 41.192 45.4172 41.1192 45.1794 41.1192Z" fill="#FF8CA5"/>
<path d="M34.8633 41.1195C34.6264 41.1195 34.9221 41.1937 30.0412 39.5812C29.4988 39.402 29.2042 38.817 29.3834 38.2744C29.5629 37.732 30.1475 37.4374 30.6902 37.6166L35.1876 39.1024C35.7301 39.2816 36.0246 39.8666 35.8454 40.4092C35.7017 40.8439 35.2974 41.1195 34.8633 41.1195Z" fill="#FF8CA5"/>
<path d="M40.0212 37.3796C39.4499 37.3796 38.9867 36.9164 38.9867 36.3452V31.6111C38.9867 31.0398 39.4499 30.5767 40.0212 30.5767C40.5925 30.5767 41.0556 31.0398 41.0556 31.6111V36.3452C41.0556 36.9164 40.5925 37.3796 40.0212 37.3796Z" fill="#FF8CA5"/>
<path d="M45.1793 40.0848C45.9029 42.2988 45.1323 44.7574 43.2151 46.1559C41.2948 47.5553 38.7112 47.5298 36.8259 46.1559C34.884 44.738 34.148 42.2722 34.863 40.0848C35.5716 37.9137 37.6134 36.3452 40.0211 36.3452C42.4289 36.3452 44.4694 37.9137 45.1793 40.0848Z" fill="#FFD9E0"/>
<path d="M22.2347 13.3151C22.2347 13.3151 29.3752 10.3449 27.2118 5.7195C26.4463 4.07856 24.5881 5.19838 24.4498 5.21132C24.4717 5.04968 25.6704 3.2665 24.0463 2.43116C19.5063 0.0958324 16.2671 7.11863 16.2671 7.11863C16.2671 7.11863 15.6477 -0.590801 10.5813 0.0363499C8.78392 0.258762 9.274 2.37168 9.24426 2.50745C9.09684 2.43633 7.77142 0.744966 6.47574 2.0316C2.8512 5.62769 8.52918 10.8777 8.52918 10.8777C8.52918 10.8777 1.00595 9.08414 0.0374215 14.0975C-0.306542 15.8755 1.85422 16.0617 1.97448 16.1328C1.86198 16.2505 -0.156543 16.9888 0.665866 18.6181C2.9443 23.1336 9.58305 19.4716 9.71236 19.4004C9.64124 19.5181 5.72316 26.0211 10.152 28.4715C11.7361 29.3469 12.5804 27.3504 12.6852 27.2573C12.7628 27.4008 12.8416 29.5487 14.6455 29.2706C19.633 28.5 18.2196 21.0815 18.186 20.9082C18.2869 21.0233 23.2537 26.7439 26.9467 23.2927C28.2696 22.0565 26.6325 20.6354 26.5756 20.5073C26.736 20.4789 28.8036 21.0672 29.0959 19.266C29.9145 14.2255 22.2347 13.3151 22.2347 13.3151Z" fill="#FFA4B8"/>
<path d="M12.1136 28.0823C11.6907 28.553 11.0364 28.9603 10.1519 28.4715C8.51773 27.567 8.01989 26.111 8.04588 24.6273C8.09657 21.7375 12.7367 22.1829 12.1123 25.0521C11.8957 26.0468 11.8288 27.1147 12.1136 28.0823Z" fill="#FFBFCB"/>
<path d="M14.5809 1.96306C12.6262 2.15237 13.1613 4.27499 13.1235 4.4471C12.9761 4.37598 11.6507 2.68461 10.355 3.97124C6.73048 7.56734 12.4085 12.8173 12.4085 12.8173C12.4085 12.8173 4.88523 11.0238 3.91671 16.0371C3.57274 17.8151 5.73351 18.0013 5.85376 18.0724C5.74126 18.1901 3.72274 18.9285 4.54515 20.5578C4.59946 20.6651 4.65636 20.7685 4.71584 20.8668C3.13309 20.9056 1.56198 20.3935 0.665866 18.6181C-0.156543 16.9888 1.86198 16.2505 1.97448 16.1328C1.85422 16.0617 -0.306542 15.8755 0.0374215 14.0975C1.00595 9.08414 8.52918 10.8777 8.52918 10.8777C8.52918 10.8777 2.8512 5.62769 6.47574 2.0316C7.77142 0.744966 9.09684 2.43633 9.24426 2.50745C9.274 2.37168 8.78392 0.258762 10.5813 0.0363499C12.4616 -0.196407 13.73 0.719104 14.5809 1.96306Z" fill="#FFBFCB"/>
<path d="M18.1886 12.8005C19.0446 14.5617 18.3101 16.6837 16.5489 17.5397C14.7877 18.3957 12.6645 17.6612 11.8084 15.9C10.9524 14.1388 11.6869 12.0169 13.4494 11.1608C15.2106 10.3048 17.3325 11.038 18.1886 12.8005Z" fill="#FFD9E0"/>
<path d="M57.5219 13.4651C59.2986 15.1578 60.6486 18.4242 59.6724 22.0681C55.9857 22.8698 52.7866 21.3672 51.1806 19.5129C49.2772 17.3147 51.0707 14.8682 53.2133 15.2949C52.8888 13.1341 55.4168 11.4583 57.5219 13.4651Z" fill="#FFA4B8"/>
<path d="M53.9609 21.5159C52.92 21.0562 51.9254 20.3731 51.1807 19.5129C49.2661 17.3008 51.1033 14.85 53.2135 15.2948C52.9898 13.8078 54.1174 12.5509 55.5294 12.5651C56.7632 15.7323 56.4447 19.17 53.9609 21.5159Z" fill="#FFBFCB"/>
<path d="M42.6293 4.68242C45.059 4.02165 47.3155 6.6906 45.3021 9.3686C43.603 11.6289 40.0457 13.6112 35.7449 12.9828C34.3328 8.87205 35.6233 5.00957 37.5306 2.92123C39.791 0.448828 42.831 2.17252 42.6293 4.68242Z" fill="#FFA4B8"/>
<path d="M37.0612 13.0966C36.6045 13.0842 36.1104 13.0374 35.7449 12.9828C34.3328 8.87204 35.6233 5.00957 37.5306 2.92122C38.2098 2.18144 39.0811 1.68489 40.0677 1.72252C41.4969 6.1312 40.6675 10.3877 37.0612 13.0966Z" fill="#FFBFCB"/>
<path d="M12.9567 38.1606C13.0886 42.9735 10.4442 46.6278 7.73649 48.2015C4.52832 50.0675 1.88653 47.2369 2.93006 44.652C0.144732 44.5447 -1.35655 40.9757 1.65895 38.8137C4.20389 36.9878 8.62097 36.071 12.9567 38.1606Z" fill="#FFA4B8"/>
<path d="M4.63577 48.6205C3.09945 48.0535 2.26372 46.3041 2.93018 44.652C0.144854 44.5447 -1.35643 40.9757 1.65907 38.8137C3.34513 37.603 5.58426 36.9723 7.69265 36.9633C9.76548 41.1606 8.74135 46.0835 4.63577 48.6205Z" fill="#FFBFCB"/>
</g>
<defs>
<clipPath id="clip0_160_2920">
<rect width="60" height="60" fill="white"/>
</clipPath>
</defs>
</svg>
